<?xml version="1.0" encoding="utf-8"?>
<svg version="1.1" xmlns:xlink="http://www.w3.org/1999/xlink" width="44px" height="49px" xmlns="http://www.w3.org/2000/svg">
  <g transform="matrix(1 0 0 1 -1730 -108 )">
    <path d="M 43.01171875 28.8863932291667  C 43.1931423611111 29.0884331597222  43.2838541666667 29.3276909722222  43.2838541666667 29.6041666666667  C 43.2838541666667 29.7105034722222  43.2743055555556 29.7849392361111  43.2552083333333 29.8274739583333  C 42.0329861111111 35.5271267361111  39.4739583333333 40.1474609375  35.578125 43.6884765625  C 31.6822916666667 47.2294921875  27.1180555555556 49  21.8854166666667 49  C 19.0972222222222 49  16.3997395833333 48.4151475694445  13.79296875 47.2454427083333  C 11.1861979166667 46.0757378472222  8.86111111111111 44.40625  6.81770833333333 42.2369791666667  L 3.12239583333333 46.3522135416667  C 2.75954861111111 46.7562934027778  2.32986111111111 46.9583333333333  1.83333333333333 46.9583333333333  C 1.33680555555556 46.9583333333333  0.907118055555556 46.7562934027778  0.544270833333333 46.3522135416667  C 0.181423611111111 45.9481336805556  0 45.4696180555556  0 44.9166666666667  L 0 30.625  C 0 30.0720486111111  0.181423611111111 29.5935329861111  0.544270833333333 29.189453125  C 0.907118055555556 28.7853732638889  1.33680555555556 28.5833333333333  1.83333333333333 28  L 14.6666666666667 28  C 15.1631944444444 28.5833333333333  15.5928819444444 28.7853732638889  15.9557291666667 29.189453125  C 16.3185763888889 29.5935329861111  16.5 30.0720486111111  16.5 30.625  C 16.5 31.1779513888889  16.3185763888889 31.6564670138889  15.9557291666667 32.060546875  L 12.03125 36.4309895833333  C 13.3871527777778 37.8346354166667  14.9244791666667 38.9192708333333  16.6432291666667 39.6848958333333  C 18.3619791666667 40.4505208333333  20.1475694444444 40.8333333333333  22 40.8333333333333  C 24.5590277777778 40.8333333333333  26.9461805555556 40.1421440972222  29.1614583333333 38.759765625  C 31.3767361111111 37.3773871527778  33.1527777777778 35.4739583333333  34.4895833333333 33.0494791666667  C 34.6996527777778 32.6879340277778  35.2057291666667 31.4437934027778  36.0078125 29.3170572916667  C 36.1605902777778 28.8279079861111  36.4470486111111 28.5833333333333  36.8671875 28.5833333333333  L 42.3671875 28.5833333333333  C 42.6154513888889 28.5833333333333  42.8302951388889 28.6843532986111  43.01171875 28.8863932291667  Z M 43.4557291666667 2.64778645833334  C 43.8185763888889 3.05186631944444  44 3.53038194444444  44 4.08333333333333  L 44 18.375  C 44 18.9279513888889  43.8185763888889 19.4064670138889  43.4557291666667 19.810546875  C 43.0928819444445 20.2146267361111  42.6631944444445 20.4166666666667  42.1666666666667 21  L 29.3333333333333 21  C 28.8368055555556 20.4166666666667  28.4071180555556 20.2146267361111  28.0442708333333 19.810546875  C 27.6814236111111 19.4064670138889  27.5 18.9279513888889  27.5 18.375  C 27.5 17.8220486111111  27.6814236111111 17.3435329861111  28.0442708333333 16.939453125  L 31.9973958333333 12.537109375  C 29.1710069444445 9.62348090277777  25.8385416666667 8.16666666666666  22 8.16666666666666  C 19.4409722222222 8.16666666666666  17.0538194444444 8.85785590277777  14.8385416666667 10.240234375  C 12.6232638888889 11.6226128472222  10.8472222222222 13.5260416666667  9.51041666666667 15.9505208333333  C 9.30034722222222 16.3120659722222  8.79427083333333 17.5562065972222  7.9921875 19.6829427083333  C 7.83940972222222 20.1720920138889  7.55295138888889 20.4166666666667  7.1328125 20.4166666666667  L 1.43229166666667 20.4166666666667  C 1.18402777777778 20.4166666666667  0.969184027777778 20.3156467013889  0.787760416666667 20.1136067708333  C 0.606336805555556 19.9115668402778  0.515625 19.6723090277778  0.515625 19.3958333333333  L 0.515625 19.1725260416667  C 1.75694444444444 13.4728732638889  4.33506944444444 8.8525390625  8.25 5.3115234375  C 12.1649305555556 1.7705078125  16.7482638888889 0  22 0  C 24.7881944444444 0  27.5 0.590169270833335  30.1354166666667 1.7705078125  C 32.7708333333333 2.95084635416666  35.1102430555556 4.61501736111111  37.1536458333333 6.76302083333333  L 40.8776041666667 2.64778645833334  C 41.2404513888889 2.24370659722222  41.6701388888889 2.04166666666666  42.1666666666667 2.04166666666666  C 42.6631944444445 2.04166666666666  43.0928819444445 2.24370659722222  43.4557291666667 2.64778645833334  Z " fill-rule="nonzero" fill="#ffffff" stroke="none" transform="matrix(1 0 0 1 1730 108 )" />
  </g>
</svg>