<?xml version="1.0" encoding="utf-8"?>
<svg version="1.1" xmlns:xlink="http://www.w3.org/1999/xlink" width="50px" height="51px" xmlns="http://www.w3.org/2000/svg">
  <g transform="matrix(1 0 0 1 -1820 -107 )">
    <path d="M 11.639460610362 39.1193181818182  C 12.9642772651999 40.4715909090909  13.6266855926189 42.1136363636364  13.6266855926189 44.0454545454545  C 13.6266855926189 45.9772727272727  12.9642772651999 47.6193181818182  11.639460610362 48.9715909090909  C 10.314643955524 50.3238636363636  8.70593801750651 51  6.81334279630944 51  C 4.92074757511237 51  3.31204163709487 50.3238636363636  1.98722498225692 48.9715909090909  C 0.662408327418973 47.6193181818182  0 45.9772727272727  0 44.0454545454545  C 0 42.1136363636364  0.662408327418973 40.4715909090909  1.98722498225692 39.1193181818182  C 3.31204163709487 37.7670454545455  4.92074757511237 37.0909090909091  6.81334279630944 37.0909090909091  C 8.70593801750651 37.0909090909091  10.314643955524 37.7670454545455  11.639460610362 39.1193181818182  Z M 28.9389638041164 37.4169034090909  C 30.5358410220014 40.9424715909091  31.4880529926662 44.6370738636364  31.7955997161107 48.5007102272727  C 31.8429145966406 49.1768465909091  31.6418263543885 49.7563920454545  31.1923349893542 50.2393465909091  C 30.7665010645848 50.7464488636364  30.2105512183582 51  29.5244854506742 51  L 24.7338537970192 51  C 24.1424177903951 51  23.6337828246984 50.80078125  23.207948899929 50.40234375  C 22.7821149751597 50.00390625  22.5455405725101 49.5028409090909  22.4982256919801 48.8991477272727  C 21.9777620061509 43.3693181818182  19.7953631417081 38.6424005681818  15.9510290986515 34.7183948863636  C 12.106695055595 30.7943892045455  7.47575112372841 28.5667613636364  2.05819730305181 28.0355113636364  C 1.46676129642773 27.9872159090909  0.975869410929737 27.7457386363636  0.585521646557842 27.3110795454545  C 0.195173882185947 26.8764204545455  0 26.3572443181818  0 25.7535511363636  L 0 20.8636363636364  C 0 20.1633522727273  0.248403122782115 19.5958806818182  0.745209368346345 19.1612215909091  C 1.14738585285072 18.7507102272727  1.65602081854743 18.5454545454545  2.27111426543648 18.5454545454545  L 2.4485450674237 18.5454545454545  C 6.23373550981784 18.859375  9.85332387035723 19.8313210227273  13.3073101490419 21.4612926136364  C 16.7612964277265 23.0912642045455  19.8249349420393 25.2826704545455  22.4982256919801 28.0355113636364  C 25.1951738821859 30.7642045454545  27.3420865862314 33.8913352272727  28.9389638041164 37.4169034090909  Z M 45.7061745919092 30.4080255681818  C 48.2375207002602 36.19140625  49.656967116158 42.2464488636364  49.9645138396026 48.5731534090909  C 50.0118287201325 49.2251420454545  49.7989117577478 49.7926136363636  49.3257629524485 50.2755681818182  C 48.8999290276792 50.7585227272727  48.3558079015851 51  47.6933995741661 51  L 42.6188786373314 51  C 42.0037851904424 51  41.477407144547 50.7887073863636  41.0397444996451 50.3661221590909  C 40.6020818547433 49.9435369318182  40.3714218121599 49.4303977272727  40.347764371895 48.8267045454545  C 40.0638750887154 43.6349431818182  38.8691743553348 38.7027698863636  36.763662171753 34.0301846590909  C 34.6581499881713 29.3575994318182  31.9198012775018 25.30078125  28.5486160397445 21.8597301136364  C 25.1774308019872 18.4186789772727  21.2029808374734 15.6235795454545  16.625266146203 13.4744318181818  C 12.0475514549326 11.3252840909091  7.21551928081382 10.09375  2.1291696238467 9.77982954545455  C 1.53773361722262 9.75568181818182  1.03501301159215 9.52024147727273  0.621007806955287 9.07350852272727  C 0.207002602318429 8.62677556818181  0 8.10156249999999  0 7.49786931818182  L 0 2.31818181818182  C 0 1.64204545454545  0.236574402649633 1.08664772727273  0.7097232079489 0.651988636363638  C 1.13555713271824 0.217329545454546  1.65602081854743 0  2.27111426543648 0  L 2.37757274662881 0  C 8.57582209604921 0.313920454545446  14.5079252424888 1.76278409090908  20.1738821859475 4.34659090909091  C 25.8398391294062 6.93039772727273  30.8729595457771 10.4801136363636  35.2732434350603 14.9957386363636  C 39.6971847646085 19.4872159090909  43.1748284835581 24.6246448863636  45.7061745919092 30.4080255681818  Z " fill-rule="nonzero" fill="#ffffff" stroke="none" transform="matrix(1 0 0 1 1820 107 )" />
  </g>
</svg>