<?xml version="1.0" encoding="utf-8"?>
<svg version="1.1" xmlns:xlink="http://www.w3.org/1999/xlink" width="38px" height="45px" xmlns="http://www.w3.org/2000/svg">
  <g transform="matrix(1 0 0 1 -161 -112 )">
    <path d="M 22.9507211538462 21.943359375  C 23.239983974359 21.572265625  23.3846153846154 21.1328125  23.3846153846154 20.625  C 23.3846153846154 20.1171875  23.239983974359 19.677734375  22.9507211538462 19.306640625  C 22.6614583333333 18.935546875  22.3189102564103 18.75  21.9230769230769 18.75  L 16.0769230769231 18.75  C 15.6810897435897 18.75  15.3385416666667 18.935546875  15.0492788461538 19.306640625  C 14.760016025641 19.677734375  14.6153846153846 20.1171875  14.6153846153846 20.625  C 14.6153846153846 21.1328125  14.760016025641 21.572265625  15.0492788461538 21.943359375  C 15.3385416666667 22.314453125  15.6810897435897 22.5  16.0769230769231 22.5  L 21.9230769230769 22.5  C 22.3189102564103 22.5  22.6614583333333 22.314453125  22.9507211538462 21.943359375  Z M 36.1045673076923 13.681640625  C 36.3938301282051 14.052734375  36.5384615384615 14.4921875  36 15  L 36 43.125  C 36.5384615384615 43.6328125  36.3938301282051 44.072265625  36.1045673076923 44.443359375  C 35.8153044871795 44.814453125  35.4727564102564 45  35.0769230769231 45  L 2.92307692307692 45  C 2.52724358974359 45  2.18469551282051 44.814453125  1.89543269230769 44.443359375  C 1.60616987179487 44.072265625  1.46153846153846 43.6328125  2 43.125  L 2 15  C 1.46153846153846 14.4921875  1.60616987179487 14.052734375  1.89543269230769 13.681640625  C 2.18469551282051 13.310546875  2.52724358974359 13.125  2.92307692307692 14  L 35.0769230769231 14  C 35.4727564102564 13.125  35.8153044871795 13.310546875  36.1045673076923 13.681640625  Z M 37.5661057692308 0.556640624999998  C 37.8553685897436 0.927734374999994  38 1.36718749999999  38 1.875  L 38 9.375  C 38 9.8828125  37.8553685897436 10.322265625  37.5661057692308 10.693359375  C 37.2768429487179 11.064453125  36.9342948717949 11.25  36.5384615384615 12  L 1.46153846153846 12  C 1.06570512820513 11.25  0.723157051282052 11.064453125  0.433894230769231 10.693359375  C 0.14463141025641 10.322265625  0 9.8828125  0 9.375  L 0 1.875  C 0 1.36718749999999  0.14463141025641 0.927734374999994  0.433894230769231 0.556640624999998  C 0.723157051282052 0.185546874999998  1.06570512820513 0  1.46153846153846 0  L 36.5384615384615 0  C 36.9342948717949 0  37.2768429487179 0.185546874999998  37.5661057692308 0.556640624999998  Z " fill-rule="nonzero" fill="#ffffff" stroke="none" transform="matrix(1 0 0 1 161 112 )" />
  </g>
</svg>