<?xml version="1.0" encoding="utf-8"?>
<svg version="1.1" xmlns:xlink="http://www.w3.org/1999/xlink" width="50px" height="47px" xmlns="http://www.w3.org/2000/svg">
  <g transform="matrix(1 0 0 1 -1049 -111 )">
    <path d="M 14.7058823529412 33.8337053571429  L 14.7058823529412 42.8035714285714  L 23.5294117647059 37.7678571428571  L 23.5294117647059 29.5323660714286  L 14.7058823529412 33.8337053571429  Z M 3.95220588235294 26.3588169642857  L 13.2352941176471 30.8962053571429  L 22.5183823529412 26.3588169642857  L 13.2352941176471 21.8214285714286  L 3.95220588235294 26.3588169642857  Z M 38.2352941176471 33.8337053571429  L 38.2352941176471 42.8035714285714  L 47.0588235294118 37.7678571428571  L 47.0588235294118 29.5323660714286  L 38.2352941176471 33.8337053571429  Z M 27.4816176470588 26.3588169642857  L 36.7647058823529 30.8962053571429  L 46.0477941176471 26.3588169642857  L 36.7647058823529 21.8214285714286  L 27.4816176470588 26.3588169642857  Z M 26.4705882352941 16.2087053571429  L 26.4705882352941 23.2114955357143  L 35.2941176470588 18.8839285714286  L 35.2941176470588 11.9073660714286  L 26.4705882352941 16.2087053571429  Z M 14.8667279411765 8.31417410714286  L 25 13.2712053571429  L 35.1332720588235 8.31417410714286  L 25 3.35714285714286  L 14.8667279411765 8.31417410714286  Z M 49.5174632352941 25.0212053571429  C 49.8391544117647 25.5807291666667  50 26.1927083333333  50 26.8571428571429  L 50 37.7678571428571  C 50 38.3973214285714  49.8544730392157 38.9830729166667  49.5634191176471 39.5251116071429  C 49.2723651960784 40.0671502976191  48.8740808823529 40.4780505952381  48.3685661764706 40.7578125  L 38.0744485294118 46.6328125  C 37.6914828431373 46.8776041666667  37.2549019607843 47  36.7647058823529 47  C 36.2745098039216 47  35.8379289215686 46.8776041666667  35.4549632352941 46.6328125  L 25.1608455882353 40.7578125  C 25.0995710784314 40.7228422619048  25.0459558823529 40.6878720238095  25 40.6529017857143  C 24.969362745098 40.6878720238095  24.9157475490196 40.7228422619048  24.8391544117647 40.7578125  L 14.5450367647059 46.6328125  C 14.1620710784314 46.8776041666667  13.7254901960784 47  13.2352941176471 47  C 12.7450980392157 47  12.3085171568627 46.8776041666667  11.9255514705882 46.6328125  L 1.63143382352941 40.7578125  C 1.12591911764706 40.4780505952381  0.727634803921569 40.0671502976191  0.436580882352941 39.5251116071429  C 0.145526960784314 38.9830729166667  0 38.3973214285714  0 37.7678571428571  L 0 26.8571428571429  C 0 26.1927083333333  0.164675245098039 25.5807291666667  0.494025735294118 25.0212053571429  C 0.823376225490196 24.461681547619  1.25612745098039 24.0420386904762  1.79227941176471 23.7622767857143  L 12 18.8839285714286  L 12 8.39285714285714  C 11.7647058823529 7.72842261904762  11.929381127451 7.11644345238095  12.2587316176471 6.55691964285714  C 12.5880821078431 5.99739583333333  13.0208333333333 5.57775297619047  13.5569852941176 5.29799107142857  L 23.8511029411765 0.262276785714283  C 24.203431372549 0.0874255952381015  24.5863970588235 0  25 0  C 25.4136029411765 0  25.796568627451 0.0874255952381015  26.1488970588235 0.262276785714283  L 36.4430147058824 5.29799107142857  C 36.9791666666667 5.57775297619047  37.4119178921569 5.99739583333333  37.7412683823529 6.55691964285714  C 38.070618872549 7.11644345238095  38.2352941176471 7.72842261904762  38 8.39285714285714  L 38 18.8839285714286  L 48.2077205882353 23.7622767857143  C 48.7591911764706 24.0420386904762  49.1957720588235 24.461681547619  49.5174632352941 25.0212053571429  Z " fill-rule="nonzero" fill="#ffffff" stroke="none" transform="matrix(1 0 0 1 1049 111 )" />
  </g>
</svg>