<?xml version="1.0" encoding="utf-8"?>
<svg version="1.1" xmlns:xlink="http://www.w3.org/1999/xlink" width="75px" height="67px" xmlns="http://www.w3.org/2000/svg">
  <g transform="matrix(1 0 0 1 -1882 -238 )">
    <path d="M 60.8842329545455 30.8828125  C 61.2038352272727 31.1683238636364  61.3636363636364 31.5331439393939  61.3636363636364 31.9772727272727  L 61.3636363636364 35.0227272727273  C 61.3636363636364 35.4668560606061  61.2038352272727 35.8316761363636  60.8842329545455 36.1171875  C 60.5646306818182 36.4026988636364  60.15625 36.5454545454545  59.6590909090909 36  L 41 36  L 41 53.2954545454545  C 40.9090909090909 53.7395833333333  40.7492897727273 54.1044034090909  40.4296875 54.3899147727273  C 40.1100852272727 54.6754261363636  39.7017045454545 54.8181818181818  39.2045454545455 54.8181818181818  L 35.7954545454545 54.8181818181818  C 35.2982954545455 54.8181818181818  34.8899147727273 54.6754261363636  34.5703125 54.3899147727273  C 34.2507102272727 54.1044034090909  34.0909090909091 53.7395833333333  34 53.2954545454545  L 34 36  L 15.3409090909091 36  C 14.84375 36.5454545454545  14.4353693181818 36.4026988636364  14.1157670454545 36.1171875  C 13.7961647727273 35.8316761363636  13.6363636363636 35.4668560606061  13.6363636363636 35.0227272727273  L 13.6363636363636 31.9772727272727  C 13.6363636363636 31.5331439393939  13.7961647727273 31.1683238636364  14.1157670454545 30.8828125  C 14.4353693181818 30.5973011363636  14.84375 30.4545454545455  15.3409090909091 31  L 34 31  L 34 13.7045454545455  C 34.0909090909091 13.2604166666667  34.2507102272727 12.8955965909091  34.5703125 12.6100852272727  C 34.8899147727273 12.3245738636364  35.2982954545455 12.1818181818182  35.7954545454545 12.1818181818182  L 39.2045454545455 12.1818181818182  C 39.7017045454545 12.1818181818182  40.1100852272727 12.3245738636364  40.4296875 12.6100852272727  C 40.7492897727273 12.8955965909091  40.9090909090909 13.2604166666667  41 13.7045454545455  L 41 31  L 59.6590909090909 31  C 60.15625 30.4545454545455  60.5646306818182 30.5973011363636  60.8842329545455 30.8828125  Z M 65.6782670454545 58.6725852272727  C 67.3473011363636 57.1815814393939  68.1818181818182 55.3892045454545  68 53.2954545454545  L 68 13.7045454545455  C 68.1818181818182 11.6107954545455  67.3473011363636 9.81841856060606  65.6782670454545 8.32741477272727  C 64.0092329545455 6.83641098484848  62.0028409090909 6.09090909090909  59.6590909090909 6  L 15.3409090909091 6  C 12.9971590909091 6.09090909090909  10.9907670454545 6.83641098484848  9.32173295454545 8.32741477272727  C 7.65269886363637 9.81841856060606  6.81818181818182 11.6107954545455  7 13.7045454545455  L 7 53.2954545454545  C 6.81818181818182 55.3892045454545  7.65269886363637 57.1815814393939  9.32173295454545 58.6725852272727  C 10.9907670454545 60.1635890151515  12.9971590909091 60.9090909090909  15.3409090909091 61  L 59.6590909090909 61  C 62.0028409090909 60.9090909090909  64.0092329545455 60.1635890151515  65.6782670454545 58.6725852272727  Z M 70.4989346590909 4.02095170454546  C 73.4996448863636 6.70158617424242  75 9.92945075757575  75 13.7045454545455  L 75 53.2954545454545  C 75 57.0705492424242  73.4996448863636 60.2984138257576  70.4989346590909 62.9790482954545  C 67.4982244318182 65.6596827651515  63.8849431818182 67  59.6590909090909 67  L 15.3409090909091 67  C 11.1150568181818 67  7.50177556818182 65.6596827651515  4.50106534090909 62.9790482954545  C 1.50035511363636 60.2984138257576  0 57.0705492424242  0 53.2954545454545  L 0 13.7045454545455  C 0 9.92945075757575  1.50035511363636 6.70158617424242  4.50106534090909 4.02095170454546  C 7.50177556818182 1.34031723484848  11.1150568181818 0  15.3409090909091 0  L 59.6590909090909 0  C 63.8849431818182 0  67.4982244318182 1.34031723484848  70.4989346590909 4.02095170454546  Z " fill-rule="nonzero" fill="#f7781b" stroke="none" transform="matrix(1 0 0 1 1882 238 )" />
  </g>
</svg>