<?xml version="1.0" encoding="utf-8"?>
<svg version="1.1" xmlns:xlink="http://www.w3.org/1999/xlink" width="85px" height="89px" xmlns="http://www.w3.org/2000/svg">
  <g transform="matrix(1 0 0 1 -1589 -1288 )">
    <path d="M 61.259765625 53.7708333333333  C 61.259765625 54.2730034722222  61.0753038194445 54.7172309027778  60.7063802083333 55.103515625  L 52.626953125 63.5631510416667  C 52.2580295138889 63.9494357638889  51.8337673611111 64.142578125  51.3541666666667 64.142578125  C 50.8745659722222 64.142578125  50.4503038194445 63.9494357638889  50.0813802083333 63.5631510416667  L 42.5 55.625  L 34.9186197916667 63.5631510416667  C 34.5496961805556 63.9494357638889  34.1254340277778 64.142578125  33.6458333333333 64.142578125  C 33.1662326388889 64.142578125  32.7419704861111 63.9494357638889  32.373046875 63.5631510416667  L 24.2936197916667 55.103515625  C 23.9246961805556 54.7172309027778  23.740234375 54.2730034722222  23.740234375 53.7708333333333  C 23.740234375 53.2686631944445  23.9246961805556 52.8244357638889  24.2936197916667 52.4381510416667  L 31.875 44.5  L 24.2936197916667 36.5618489583333  C 23.9246961805556 36.1755642361111  23.740234375 35.7313368055556  23.740234375 35.2291666666667  C 23.740234375 34.7269965277778  23.9246961805556 34.2827690972222  24.2936197916667 33.896484375  L 32.373046875 25.4368489583333  C 32.7419704861111 25.0505642361111  33.1662326388889 24.857421875  33.6458333333333 24.857421875  C 34.1254340277778 24.857421875  34.5496961805556 25.0505642361111  34.9186197916667 25.4368489583333  L 42.5 33.375  L 50.0813802083333 25.4368489583333  C 50.4503038194445 25.0505642361111  50.8745659722222 24.857421875  51.3541666666667 24.857421875  C 51.8337673611111 24.857421875  52.2580295138889 25.0505642361111  52.626953125 25.4368489583333  L 60.7063802083333 33.896484375  C 61.0753038194445 34.2827690972222  61.259765625 34.7269965277778  61.259765625 35.2291666666667  C 61.259765625 35.7313368055556  61.0753038194445 36.1755642361111  60.7063802083333 36.5618489583333  L 53.125 44.5  L 60.7063802083333 52.4381510416667  C 61.0753038194445 52.8244357638889  61.259765625 53.2686631944445  61.259765625 53.7708333333333  Z M 68.564453125 60.318359375  C 71.2575954861111 55.4898003472222  72.6041666666667 50.2170138888889  72.6041666666667 44.5  C 72.6041666666667 38.7829861111111  71.2575954861111 33.5101996527778  68.564453125 28.681640625  C 65.8713107638889 23.8530815972222  62.2189670138889 20.0288628472222  57.607421875 17.208984375  C 52.9958767361111 14.3891059027778  47.9600694444445 12.9791666666667  42.5 12.9791666666667  C 37.0399305555556 12.9791666666667  32.0041232638889 14.3891059027778  27.392578125 17.208984375  C 22.7810329861111 20.0288628472222  19.1286892361111 23.8530815972222  16.435546875 28.681640625  C 13.7424045138889 33.5101996527778  12.3958333333333 38.7829861111111  12.3958333333333 44.5  C 12.3958333333333 50.2170138888889  13.7424045138889 55.4898003472222  16.435546875 60.318359375  C 19.1286892361111 65.1469184027778  22.7810329861111 68.9711371527778  27.392578125 71.791015625  C 32.0041232638889 74.6108940972222  37.0399305555556 76.0208333333333  42.5 76.0208333333333  C 47.9600694444445 76.0208333333333  52.9958767361111 74.6108940972222  57.607421875 71.791015625  C 62.2189670138889 68.9711371527778  65.8713107638889 65.1469184027778  68.564453125 60.318359375  Z M 79.3001302083333 22.1630859375  C 83.1000434027778 28.9810112847222  85 36.4266493055555  85 44.5  C 85 52.5733506944445  83.1000434027778 60.0189887152778  79.3001302083333 66.8369140625  C 75.5002170138889 73.6548394097222  70.3445095486111 79.0531684027778  63.8330078125 83.0319010416667  C 57.3215060763889 87.0106336805556  50.2105034722222 89  42.5 89  C 34.7894965277778 89  27.6784939236111 87.0106336805556  21.1669921875 83.0319010416667  C 14.6554904513889 79.0531684027778  9.49978298611111 73.6548394097222  5.69986979166667 66.8369140625  C 1.89995659722222 60.0189887152778  0 52.5733506944445  0 44.5  C 0 36.4266493055555  1.89995659722222 28.9810112847222  5.69986979166667 22.1630859375  C 9.49978298611111 15.3451605902778  14.6554904513889 9.94683159722221  21.1669921875 5.96809895833333  C 27.6784939236111 1.98936631944444  34.7894965277778 0  42.5 0  C 50.2105034722222 0  57.3215060763889 1.98936631944444  63.8330078125 5.96809895833333  C 70.3445095486111 9.94683159722221  75.5002170138889 15.3451605902778  79.3001302083333 22.1630859375  Z " fill-rule="nonzero" fill="#aaaaaa" stroke="none" transform="matrix(1 0 0 1 1589 1288 )" />
  </g>
</svg>