<?xml version="1.0" encoding="utf-8"?>
<svg version="1.1" xmlns:xlink="http://www.w3.org/1999/xlink" width="51px" height="60px" xmlns="http://www.w3.org/2000/svg">
  <g transform="matrix(1 0 0 1 -1831 -566 )">
    <path d="M 8.61782178217822 54.9306930693069  L 12.219801980198 54.9306930693069  L 15.2831683168317 51.3267326732673  L 7.37227722772277 42.019801980198  L 4.30891089108911 45.6237623762376  L 4.30891089108911 49.8613861386139  L 8.61782178217822 49.8613861386139  L 8.61782178217822 54.9306930693069  Z M 29.590099009901 18.8514851485149  C 29.7471947194719 18.6666666666667  29.8257425742574 18.4422442244224  29.8257425742574 18.1782178217822  C 29.8257425742574 17.5973597359736  29.5788778877888 17.3069306930693  29.0851485148515 17.3069306930693  C 28.8607260726073 17.3069306930693  28.6699669966997 17.3993399339934  28.5128712871287 17.5841584158416  L 10.2673267326733 39.0495049504951  C 10.1102310231023 39.2343234323432  10.0316831683168 39.4587458745875  10.0316831683168 39.7227722772277  C 10.0316831683168 40.3036303630363  10.2785478547855 40.5940594059406  10.7722772277228 40.5940594059406  C 10.996699669967 40.5940594059406  11.1874587458746 40.5016501650165  11.3445544554455 40.3168316831683  L 29.590099009901 18.8514851485149  Z M 0 43.5247524752475  L 28.0079207920792 10.5742574257426  L 42.0118811881188 27.049504950495  L 14.0039603960396 60  L 0 60  L 0 43.5247524752475  Z M 49.7544554455446 10.7722772277228  C 50.5848184818482 11.8019801980198  51 13.003300330033  51 14.3762376237624  C 51 15.7755775577558  50.5848184818482 16.963696369637  49.7544554455446 17.9405940594059  L 44.1663366336634 24.5148514851485  L 30.1623762376238 8.03960396039604  L 35.7504950495049 1.5049504950495  C 36.5584158415842 0.501650165016496  37.5683168316832 0  38.780198019802 0  C 39.9696369636964 0  40.9907590759076 0.501650165016496  41.8435643564356 1.5049504950495  L 49.7544554455446 10.7722772277228  Z " fill-rule="nonzero" fill="#555555" stroke="none" transform="matrix(1 0 0 1 1831 566 )" />
  </g>
</svg>