<?xml version="1.0" encoding="utf-8"?>
<svg version="1.1" xmlns:xlink="http://www.w3.org/1999/xlink" width="54px" height="61px" xmlns="http://www.w3.org/2000/svg">
  <g transform="matrix(1 0 0 1 -1906 -566 )">
    <path d="M 19.2911931818182 23.232421875  C 19.5213068181818 23.470703125  19.6363636363636 23.7751736111111  20 24.1458333333333  L 20 47.0208333333333  C 19.6363636363636 47.3914930555556  19.5213068181818 47.6959635416667  19.2911931818182 47.9342447916667  C 19.0610795454545 48.1725260416667  18.7670454545455 48.2916666666667  18.4090909090909 48.2916666666667  L 15.9545454545455 48.2916666666667  C 15.5965909090909 48.2916666666667  15.3025568181818 48.1725260416667  15.0724431818182 47.9342447916667  C 14.8423295454545 47.6959635416667  14.7272727272727 47.3914930555556  15 47.0208333333333  L 15 24.1458333333333  C 14.7272727272727 23.7751736111111  14.8423295454545 23.470703125  15.0724431818182 23.232421875  C 15.3025568181818 22.994140625  15.5965909090909 22.875  15.9545454545455 22.875  L 18.4090909090909 22.875  C 18.7670454545455 22.875  19.0610795454545 22.994140625  19.2911931818182 23.232421875  Z M 29.109375 23.232421875  C 29.3394886363636 23.470703125  29.4545454545455 23.7751736111111  29 24.1458333333333  L 29 47.0208333333333  C 29.4545454545455 47.3914930555556  29.3394886363636 47.6959635416667  29.109375 47.9342447916667  C 28.8792613636364 48.1725260416667  28.5852272727273 48.2916666666667  28.2272727272727 48.2916666666667  L 25.7727272727273 48.2916666666667  C 25.4147727272727 48.2916666666667  25.1207386363636 48.1725260416667  24.890625 47.9342447916667  C 24.6605113636364 47.6959635416667  24.5454545454545 47.3914930555556  25 47.0208333333333  L 25 24.1458333333333  C 24.5454545454545 23.7751736111111  24.6605113636364 23.470703125  24.890625 23.232421875  C 25.1207386363636 22.994140625  25.4147727272727 22.875  25.7727272727273 22.875  L 28.2272727272727 22.875  C 28.5852272727273 22.875  28.8792613636364 22.994140625  29.109375 23.232421875  Z M 38.9275568181818 23.232421875  C 39.1576704545455 23.470703125  39.2727272727273 23.7751736111111  39 24.1458333333333  L 39 47.0208333333333  C 39.2727272727273 47.3914930555556  39.1576704545455 47.6959635416667  38.9275568181818 47.9342447916667  C 38.6974431818182 48.1725260416667  38.4034090909091 48.2916666666667  38.0454545454545 48.2916666666667  L 35.5909090909091 48.2916666666667  C 35.2329545454545 48.2916666666667  34.9389204545455 48.1725260416667  34.7088068181818 47.9342447916667  C 34.4786931818182 47.6959635416667  34.3636363636364 47.3914930555556  34 47.0208333333333  L 34 24.1458333333333  C 34.3636363636364 23.7751736111111  34.4786931818182 23.470703125  34.7088068181818 23.232421875  C 34.9389204545455 22.994140625  35.2329545454545 22.875  35.5909090909091 22.875  L 38.0454545454545 22.875  C 38.4034090909091 22.875  38.6974431818182 22.994140625  38.9275568181818 23.232421875  Z M 43.9133522727273 54.5068359375  C 44.0923295454545 54.0170355902778  44.1818181818182 53.4809027777778  44 52.8984375  L 44 16  L 10 16  L 10 52.8984375  C 9.81818181818182 53.4809027777778  9.90767045454546 54.0170355902778  10.0866477272727 54.5068359375  C 10.265625 54.9966362847222  10.4509943181818 55.3540581597222  10.6427556818182 55.5791015625  C 10.8345170454545 55.8041449652778  10.96875 55.9166666666667  11.0454545454545 56  L 42.9545454545455 56  C 43.03125 55.9166666666667  43.1654829545455 55.8041449652778  43.3572443181818 55.5791015625  C 43.5490056818182 55.3540581597222  43.734375 54.9966362847222  43.9133522727273 54.5068359375  Z M 20.2883522727273 5.52018229166666  L 18.4090909090909 11  L 35.5909090909091 11  L 33.75 5.52018229166666  C 33.5710227272727 5.28190104166666  33.3536931818182 5.13628472222222  33.0980113636364 5  L 20.9403409090909 5  C 20.6846590909091 5.13628472222222  20.4673295454546 5.28190104166666  20.2883522727273 5.52018229166666  Z M 53.6548295454545 10.5240885416667  C 53.8849431818182 10.7623697916667  54 11.0668402777778  54 11.4375  L 54 13.9791666666667  C 54 14.3498263888889  53.8849431818182 14.654296875  53.6548295454545 14.892578125  C 53.4247159090909 15.130859375  53.1306818181818 15.25  52.7727272727273 15.25  L 49 15.25  L 49 52.8984375  C 49.0909090909091 55.0959201388889  48.4900568181818 56.9955512152778  47.2883522727273 58.5973307291667  C 46.0866477272727 60.1991102430556  44.6420454545455 61  42.9545454545455 61  L 11.0454545454545 61  C 9.35795454545455 61  7.91335227272727 60.2255859375  6.71164772727273 58.6767578125  C 5.50994318181818 57.1279296875  4.90909090909091 55.2547743055556  5 53.0572916666667  L 5 15.25  L 1.22727272727273 15.25  C 0.869318181818182 15.25  0.575284090909091 15.130859375  0.345170454545455 14.892578125  C 0.115056818181818 14.654296875  0 14.3498263888889  0 13.9791666666667  L 0 11.4375  C 0 11.0668402777778  0.115056818181818 10.7623697916667  0.345170454545455 10.5240885416667  C 0.575284090909091 10.2858072916667  0.869318181818182 10.1666666666667  1.22727272727273 11  L 13.078125 11  L 15.7627840909091 3.53450520833334  C 16.1463068181818 2.55490451388888  16.8366477272727 1.72092013888888  17.8338068181818 1.03255208333334  C 18.8309659090909 0.344184027777774  19.8409090909091 0  20.8636363636364 0  L 33.1363636363636 0  C 34.1590909090909 0  35.1690340909091 0.344184027777774  36.1661931818182 1.03255208333334  C 37.1633522727273 1.72092013888888  37.8536931818182 2.55490451388888  38.2372159090909 3.53450520833334  L 40.921875 11  L 52.7727272727273 11  C 53.1306818181818 10.1666666666667  53.4247159090909 10.2858072916667  53.6548295454545 10.5240885416667  Z " fill-rule="nonzero" fill="#000000" stroke="none" transform="matrix(1 0 0 1 1906 566 )" />
  </g>
</svg>