<?xml version="1.0" encoding="utf-8"?>
<svg version="1.1" xmlns:xlink="http://www.w3.org/1999/xlink" width="35px" height="35px" xmlns="http://www.w3.org/2000/svg">
  <g transform="matrix(1 0 0 1 -1759 -725 )">
    <path d="M 25.1772836538462 12.2549715909091  C 25.4437099358974 11.9401041666667  25.5769230769231 11.5672348484848  25.5769230769231 11.1363636363636  C 25.5769230769231 10.7054924242424  25.4437099358974 10.3326231060606  25.1772836538462 10.0177556818182  C 24.9108573717949 9.70288825757576  24.5953525641026 9.54545454545455  24.2307692307692 9.54545454545455  L 21.5384615384615 9.54545454545455  L 21.5384615384615 6.36363636363636  C 21.5384615384615 5.93276515151515  21.4052483974359 5.55989583333333  21.1388221153846 5.24502840909091  C 20.8723958333333 4.93016098484848  20.556891025641 4.77272727272727  20.1923076923077 4.77272727272727  C 19.8277243589744 4.77272727272727  19.5122195512821 4.93016098484848  19.2457932692308 5.24502840909091  C 18.9793669871795 5.55989583333333  18.8461538461538 5.93276515151515  18.8461538461538 6.36363636363636  L 18.8461538461538 9.54545454545455  L 16.1538461538462 9.54545454545455  C 15.7892628205128 9.54545454545455  15.4737580128205 9.70288825757576  15.2073317307692 10.0177556818182  C 14.9409054487179 10.3326231060606  14.8076923076923 10.7054924242424  14.8076923076923 11.1363636363636  C 14.8076923076923 11.5672348484848  14.9409054487179 11.9401041666667  15.2073317307692 12.2549715909091  C 15.4737580128205 12.5698390151515  15.7892628205128 12.7272727272727  16.1538461538462 12.7272727272727  L 18.8461538461538 12.7272727272727  L 18.8461538461538 15.9090909090909  C 18.8461538461538 16.3399621212121  18.9793669871795 16.7128314393939  19.2457932692308 17.0276988636364  C 19.5122195512821 17.3425662878788  19.8277243589744 17.5  20.1923076923077 17.5  C 20.556891025641 17.5  20.8723958333333 17.3425662878788  21.1388221153846 17.0276988636364  C 21.4052483974359 16.7128314393939  21.5384615384615 16.3399621212121  21.5384615384615 15.9090909090909  L 21.5384615384615 12.7272727272727  L 24.2307692307692 12.7272727272727  C 24.5953525641026 12.7272727272727  24.9108573717949 12.5698390151515  25.1772836538462 12.2549715909091  Z M 12.6727764423077 29.5685369318182  C 13.1986177884615 30.1899857954545  13.4615384615385 30.9398674242424  13.4615384615385 31.8181818181818  C 13.4615384615385 32.6964962121212  13.1986177884615 33.4463778409091  12.6727764423077 34.0678267045455  C 12.1469350961538 34.6892755681818  11.5124198717949 35  10.7692307692308 35  C 10.0260416666667 35  9.3915264423077 34.6892755681818  8.86568509615384 34.0678267045455  C 8.33984375 33.4463778409091  8.07692307692308 32.6964962121212  8.07692307692308 31.8181818181818  C 8.07692307692308 30.9398674242424  8.33984375 30.1899857954545  8.86568509615384 29.5685369318182  C 9.3915264423077 28.9470880681818  10.0260416666667 28.6363636363636  10.7692307692308 28.6363636363636  C 11.5124198717949 28.6363636363636  12.1469350961538 28.9470880681818  12.6727764423077 29.5685369318182  Z M 31.5189302884615 29.5685369318182  C 32.0447716346154 30.1899857954545  32.3076923076923 30.9398674242424  32.3076923076923 31.8181818181818  C 32.3076923076923 32.6964962121212  32.0447716346154 33.4463778409091  31.5189302884615 34.0678267045455  C 30.9930889423077 34.6892755681818  30.3585737179487 35  29.6153846153846 35  C 28.8721955128205 35  28.2376802884615 34.6892755681818  27.7118389423077 34.0678267045455  C 27.1859975961538 33.4463778409091  26.9230769230769 32.6964962121212  26.9230769230769 31.8181818181818  C 26.9230769230769 30.9398674242424  27.1859975961538 30.1899857954545  27.7118389423077 29.5685369318182  C 28.2376802884615 28.9470880681818  28.8721955128205 28.6363636363636  29.6153846153846 28.6363636363636  C 30.3585737179487 28.6363636363636  30.9930889423077 28.9470880681818  31.5189302884615 29.5685369318182  Z M 34.6003605769231 3.65411931818182  C 34.8667868589744 3.96898674242424  35 4.34185606060606  35 4.77272727272727  L 35 17.5  C 35 17.8977272727273  34.8878205128205 18.2498816287879  34.6634615384615 18.5564630681818  C 34.4391025641026 18.8630445075758  34.1516426282051 19.0411931818182  33.8010817307692 19.0909090909091  L 11.8419471153846 22.1235795454545  C 11.8559695512821 22.2395833333333  11.8875200320513 22.4177320075758  11.9365985576923 22.6580255681818  C 11.9856770833333 22.8983191287879  12.0277443910256 23.1178977272727  12.0628004807692 23.3167613636364  C 12.0978565705128 23.515625  12.1153846153846 23.6979166666667  12.1153846153846 23.8636363636364  C 12.1153846153846 24.1287878787879  11.9471153846154 24.6590909090909  11.6105769230769 25  L 30.9615384615385 25  C 31.3261217948718 25.4545454545455  31.6416266025641 25.6119791666667  31.9080528846154 25.9268465909091  C 32.1744791666667 26.2417140151515  32.3076923076923 26.6145833333333  32.3076923076923 27.0454545454545  C 32.3076923076923 27.4763257575758  32.1744791666667 27.8491950757576  31.9080528846154 28.1640625  C 31.6416266025641 28.4789299242424  31.3261217948718 28.6363636363636  30.9615384615385 28  L 9.42307692307692 28  C 9.05849358974359 28.6363636363636  8.74298878205128 28.4789299242424  8.4765625 28.1640625  C 8.21013621794872 27.8491950757576  8.07692307692308 27.4763257575758  8.07692307692308 27.0454545454545  C 8.07692307692308 26.813446969697  8.15404647435897 26.4861505681818  8.30829326923077 26.0635653409091  C 8.46254006410257 25.6409801136364  8.66937099358974 25.1479640151515  8.92878605769231 24.5845170454545  C 9.18820112179487 24.0210700757576  9.33193108974359 23.7062026515151  9.35997596153846 23.6399147727273  L 5.63701923076923 3.18181818181818  L 1.34615384615385 3.18181818181818  C 0.981570512820513 3.18181818181818  0.666065705128205 3.02438446969697  0.399639423076923 2.70951704545455  C 0.133213141025641 2.39464962121212  0 2.0217803030303  0 1.59090909090909  C 0 1.16003787878788  0.133213141025641 0.787168560606056  0.399639423076923 0.472301136363638  C 0.666065705128205 0.157433712121209  0.981570512820513 0  1.34615384615385 0  L 6.73076923076923 0  C 6.95512820512821 0  7.15494791666667 0.0538589015151492  7.33022836538462 0.161576704545455  C 7.50550881410256 0.269294507575757  7.64573317307692 0.397727272727272  7.75090144230769 0.546875  C 7.85606971153846 0.696022727272728  7.9472155448718 0.899029356060601  8.02433894230769 1.15589488636364  C 8.10146233974359 1.41276041666666  8.15404647435898 1.63233901515151  8.18209134615385 1.81463068181818  C 8.21013621794872 1.99692234848485  8.24869791666667 2.24135890151515  8.29777644230769 2.54794034090909  C 8.34685496794872 2.85452178030303  8.37840544871795 3.06581439393939  8.39242788461539 3.18181818181818  L 33.6538461538462 3.18181818181818  C 34.0184294871795 3.18181818181818  34.3339342948718 3.33925189393939  34.6003605769231 3.65411931818182  Z " fill-rule="nonzero" fill="#f7781b" stroke="none" transform="matrix(1 0 0 1 1759 725 )" />
  </g>
</svg>