<?xml version="1.0" encoding="utf-8"?>
<svg version="1.1" xmlns:xlink="http://www.w3.org/1999/xlink" width="35px" height="35px" xmlns="http://www.w3.org/2000/svg">
  <g transform="matrix(1 0 0 1 -1821 -725 )">
    <path d="M 12.5035511363636 13.330078125  C 12.6526988636364 13.466796875  12.7272727272727 13.6414930555556  13 13.8541666666667  L 13 26.9791666666667  C 12.7272727272727 27.1918402777778  12.6526988636364 27.3665364583333  12.5035511363636 27.5032552083333  C 12.3544034090909 27.6399739583333  12.1638257575758 27.7083333333333  11.9318181818182 27.7083333333333  L 10.3409090909091 27.7083333333333  C 10.1089015151515 27.7083333333333  9.91832386363637 27.6399739583333  9.76917613636364 27.5032552083333  C 9.62002840909091 27.3665364583333  9.54545454545455 27.1918402777778  10 26.9791666666667  L 10 13.8541666666667  C 9.54545454545455 13.6414930555556  9.62002840909091 13.466796875  9.76917613636364 13.330078125  C 9.91832386363637 13.193359375  10.1089015151515 13.125  10.3409090909091 13.125  L 11.9318181818182 13.125  C 12.1638257575758 13.125  12.3544034090909 13.193359375  12.5035511363636 13.330078125  Z M 18.8671875 13.330078125  C 19.0163352272727 13.466796875  19.0909090909091 13.6414930555556  19 13.8541666666667  L 19 26.9791666666667  C 19.0909090909091 27.1918402777778  19.0163352272727 27.3665364583333  18.8671875 27.5032552083333  C 18.7180397727273 27.6399739583333  18.5274621212121 27.7083333333333  18.2954545454545 27.7083333333333  L 16.7045454545455 27.7083333333333  C 16.4725378787879 27.7083333333333  16.2819602272727 27.6399739583333  16.1328125 27.5032552083333  C 15.9836647727273 27.3665364583333  15.9090909090909 27.1918402777778  16 26.9791666666667  L 16 13.8541666666667  C 15.9090909090909 13.6414930555556  15.9836647727273 13.466796875  16.1328125 13.330078125  C 16.2819602272727 13.193359375  16.4725378787879 13.125  16.7045454545455 13.125  L 18.2954545454545 13.125  C 18.5274621212121 13.125  18.7180397727273 13.193359375  18.8671875 13.330078125  Z M 25.2308238636364 13.330078125  C 25.3799715909091 13.466796875  25.4545454545455 13.6414930555556  25 13.8541666666667  L 25 26.9791666666667  C 25.4545454545455 27.1918402777778  25.3799715909091 27.3665364583333  25.2308238636364 27.5032552083333  C 25.0816761363636 27.6399739583333  24.8910984848485 27.7083333333333  24.6590909090909 27.7083333333333  L 23.0681818181818 27.7083333333333  C 22.8361742424242 27.7083333333333  22.6455965909091 27.6399739583333  22.4964488636364 27.5032552083333  C 22.3473011363636 27.3665364583333  22.2727272727273 27.1918402777778  22 26.9791666666667  L 22 13.8541666666667  C 22.2727272727273 13.6414930555556  22.3473011363636 13.466796875  22.4964488636364 13.330078125  C 22.6455965909091 13.193359375  22.8361742424242 13.125  23.0681818181818 13.125  L 24.6590909090909 13.125  C 24.8910984848485 13.125  25.0816761363636 13.193359375  25.2308238636364 13.330078125  Z M 28.4623579545455 31.2744140625  C 28.5783617424242 30.9933810763889  28.6363636363636 30.6857638888889  28 30.3515625  L 28 9  L 7 9  L 7 30.3515625  C 6.36363636363636 30.6857638888889  6.42163825757576 30.9933810763889  6.53764204545455 31.2744140625  C 6.65364583333333 31.5554470486111  6.77379261363636 31.7605251736111  6.89808238636364 31.8896484375  C 7.02237215909091 32.0187717013889  7.109375 32.0833333333333  7.15909090909091 32  L 27.8409090909091 32  C 27.890625 32.0833333333333  27.9776278409091 32.0187717013889  28.1019176136364 31.8896484375  C 28.2262073863636 31.7605251736111  28.3463541666667 31.5554470486111  28.4623579545455 31.2744140625  Z M 13.1498579545455 3.16731770833333  L 11.9318181818182 6  L 23.0681818181818 6  L 21.875 3.16731770833333  C 21.7589962121212 3.03059895833333  21.618134469697 2.94704861111111  21.4524147727273 2.91666666666667  L 13.5724431818182 2.91666666666667  C 13.4067234848485 2.94704861111111  13.2658617424242 3.03059895833333  13.1498579545455 3.16731770833333  Z M 34.7762784090909 6.03841145833333  C 34.9254261363636 6.17513020833333  35 6.34982638888889  35 6.5625  L 35 8.02083333333333  C 35 8.23350694444444  34.9254261363636 8.408203125  34.7762784090909 8.544921875  C 34.6271306818182 8.681640625  34.436553030303 8.75  34.2045454545455 8.75  L 31.8181818181818 8.75  L 31.8181818181818 30.3515625  C 31.8181818181818 31.6124131944444  31.428740530303 32.7023654513889  30.6498579545455 33.6214192708333  C 29.8709753787879 34.5404730902778  28.9346590909091 35  27.8409090909091 35  L 7.15909090909091 35  C 6.06534090909091 35  5.12902462121212 34.5556640625  4.35014204545455 33.6669921875  C 3.57125946969697 32.7783203125  3.18181818181818 31.7035590277778  3.18181818181818 30.4427083333333  L 3.18181818181818 8.75  L 0.795454545454546 8.75  C 0.56344696969697 8.75  0.372869318181818 8.681640625  0.223721590909091 8.544921875  C 0.0745738636363636 8.408203125  0 8.23350694444444  0 8.02083333333333  L 0 6.5625  C 0 6.34982638888889  0.0745738636363636 6.17513020833333  0.223721590909091 6.03841145833333  C 0.372869318181818 5.90169270833333  0.56344696969697 5.83333333333333  0.795454545454546 5.83333333333333  L 8.4765625 5.83333333333333  L 10.2166193181818 2.02799479166667  C 10.4651988636364 1.46592881944444  10.9126420454545 0.987413194444441  11.5589488636364 0.592447916666668  C 12.2052556818182 0.197482638888887  12.8598484848485 0  13.5227272727273 0  L 21.4772727272727 0  C 22.1401515151515 0  22.7947443181818 0.197482638888887  23.4410511363636 0.592447916666668  C 24.0873579545455 0.987413194444441  24.5348011363636 1.46592881944444  24.7833806818182 2.02799479166667  L 26.5234375 5.83333333333333  L 34.2045454545455 5.83333333333333  C 34.436553030303 5.83333333333333  34.6271306818182 5.90169270833333  34.7762784090909 6.03841145833333  Z " fill-rule="nonzero" fill="#000000" stroke="none" transform="matrix(1 0 0 1 1821 725 )" />
  </g>
</svg>