<?xml version="1.0" encoding="utf-8"?>
<svg version="1.1" xmlns:xlink="http://www.w3.org/1999/xlink" width="80px" height="81px" xmlns="http://www.w3.org/2000/svg">
  <g transform="matrix(1 0 0 1 -2139 -1716 )">
    <path d="M 58.3333333333333 54.31640625  C 59.2361111111111 54.31640625  60.0173611111111 53.982421875  60.6770833333333 53.314453125  L 65.9895833333333 47.935546875  C 66.6493055555556 47.267578125  66.9791666666667 46.4765625  66.9791666666667 45.5625  C 66.9791666666667 44.6484375  66.6493055555556 43.857421875  65.9895833333333 43.189453125  L 42.34375 19.248046875  C 41.6840277777778 18.580078125  40.9027777777778 18.24609375  40 18.24609375  C 39.0972222222222 18.24609375  38.3159722222222 18.580078125  37.65625 19.248046875  L 14.0104166666667 43.189453125  C 13.3506944444444 43.857421875  13.0208333333333 44.6484375  13.0208333333333 45.5625  C 13.0208333333333 46.4765625  13.3506944444444 47.267578125  14.0104166666667 47.935546875  L 19.3229166666667 53.314453125  C 19.9826388888889 53.982421875  20.7638888888889 54.31640625  21.6666666666667 54.31640625  C 22.5694444444444 54.31640625  23.3506944444444 53.982421875  24.0104166666667 53.314453125  L 40 37.125  L 55.9895833333333 53.314453125  C 56.6493055555556 53.982421875  57.4305555555556 54.31640625  58.3333333333333 54.31640625  Z M 74.6354166666667 20.1708984375  C 78.2118055555555 26.3759765625  80 33.15234375  80 40.5  C 80 47.84765625  78.2118055555555 54.6240234375  74.6354166666667 60.8291015625  C 71.0590277777778 67.0341796875  66.2065972222222 71.947265625  60.078125 75.568359375  C 53.9496527777778 79.189453125  47.2569444444444 81  40 81  C 32.7430555555556 81  26.0503472222222 79.189453125  19.921875 75.568359375  C 13.7934027777778 71.947265625  8.94097222222222 67.0341796875  5.36458333333333 60.8291015625  C 1.78819444444444 54.6240234375  0 47.84765625  0 40.5  C 0 33.15234375  1.78819444444444 26.3759765625  5.36458333333333 20.1708984375  C 8.94097222222222 13.9658203125  13.7934027777778 9.05273437499999  19.921875 5.431640625  C 26.0503472222222 1.81054687499999  32.7430555555556 0  40 0  C 47.2569444444444 0  53.9496527777778 1.81054687499999  60.078125 5.431640625  C 66.2065972222222 9.05273437499999  71.0590277777778 13.9658203125  74.6354166666667 20.1708984375  Z " fill-rule="nonzero" fill="#f7781b" stroke="none" transform="matrix(1 0 0 1 2139 1716 )" />
  </g>
</svg>