<?xml version="1.0" encoding="utf-8"?>
<svg version="1.1" xmlns:xlink="http://www.w3.org/1999/xlink" width="80px" height="91px" xmlns="http://www.w3.org/2000/svg">
  <g transform="matrix(1 0 0 1 -2534 -1209 )">
    <path d="M 40 70.5013020833333  C 40.9027777777778 70.5013020833333  41.6840277777778 70.1260850694445  42.34375 69.3756510416667  L 65.9895833333333 42.478515625  C 66.6493055555556 41.7280815972222  66.9791666666667 40.8394097222222  66.9791666666667 39.8125  C 66.9791666666667 38.7855902777778  66.6493055555556 37.8969184027778  65.9895833333333 37.146484375  L 60.6770833333333 31.103515625  C 60.0173611111111 30.3530815972222  59.2361111111111 29.9778645833333  58.3333333333333 29.9778645833333  C 57.4305555555556 29.9778645833333  56.6493055555556 30.3530815972222  55.9895833333333 31.103515625  L 40 49.2916666666667  L 24.0104166666667 31.103515625  C 23.3506944444444 30.3530815972222  22.5694444444444 29.9778645833333  21.6666666666667 29.9778645833333  C 20.7638888888889 29.9778645833333  19.9826388888889 30.3530815972222  19.3229166666667 31.103515625  L 14.0104166666667 37.146484375  C 13.3506944444444 37.8969184027778  13.0208333333333 38.7855902777778  13.0208333333333 39.8125  C 13.0208333333333 40.8394097222222  13.3506944444444 41.7280815972222  14.0104166666667 42.478515625  L 37.65625 69.3756510416667  C 38.3159722222222 70.1260850694445  39.0972222222222 70.5013020833333  40 70.5013020833333  Z M 74.6354166666667 22.6611328125  C 78.2118055555555 29.6322699652778  80 37.2452256944444  80 45.5  C 80 53.7547743055556  78.2118055555555 61.3677300347222  74.6354166666667 68.3388671875  C 71.0590277777778 75.3100043402778  66.2065972222222 80.8296440972222  60.078125 84.8977864583333  C 53.9496527777778 88.9659288194445  47.2569444444444 91  40 91  C 32.7430555555556 91  26.0503472222222 88.9659288194445  19.921875 84.8977864583333  C 13.7934027777778 80.8296440972222  8.94097222222222 75.3100043402778  5.36458333333333 68.3388671875  C 1.78819444444444 61.3677300347222  0 53.7547743055556  0 45.5  C 0 37.2452256944444  1.78819444444444 29.6322699652778  5.36458333333333 22.6611328125  C 8.94097222222222 15.6899956597222  13.7934027777778 10.1703559027778  19.921875 6.10221354166666  C 26.0503472222222 2.03407118055555  32.7430555555556 0  40 0  C 47.2569444444444 0  53.9496527777778 2.03407118055555  60.078125 6.10221354166666  C 66.2065972222222 10.1703559027778  71.0590277777778 15.6899956597222  74.6354166666667 22.6611328125  Z " fill-rule="nonzero" fill="#f7781b" stroke="none" transform="matrix(1 0 0 1 2534 1209 )" />
  </g>
</svg>