<?xml version="1.0" encoding="utf-8"?>
<svg version="1.1" xmlns:xlink="http://www.w3.org/1999/xlink" width="508px" height="349px" xmlns="http://www.w3.org/2000/svg">
  <defs>
    <mask fill="white" id="clip8">
      <path d="M 0 268.827256563036  L 0 28.5986443152167  C 0 12.5834034986954  3.67631578947376 0  8.35526315789474 0  L 499.644736842105 0  C 504.323684210526 0  508 12.5834034986954  508 28.5986443152167  L 508 268.827256563036  C 508 284.842497379557  504.323684210526 297.425900878253  499.644736842105 297  L 152.344298245616 297  L 121.151315789476 349  L 89.9583333333328 297  L 8.35526315789474 297  C 3.67631578947376 297.425900878253  0 284.842497379557  0 268.827256563036  Z " fill-rule="evenodd" />
    </mask>
  </defs>
  <g transform="matrix(1 0 0 1 -2066 -1367 )">
    <path d="M 0 268.827256563036  L 0 28.5986443152167  C 0 12.5834034986954  3.67631578947376 0  8.35526315789474 0  L 499.644736842105 0  C 504.323684210526 0  508 12.5834034986954  508 28.5986443152167  L 508 268.827256563036  C 508 284.842497379557  504.323684210526 297.425900878253  499.644736842105 297  L 152.344298245616 297  L 121.151315789476 349  L 89.9583333333328 297  L 8.35526315789474 297  C 3.67631578947376 297.425900878253  0 284.842497379557  0 268.827256563036  Z " fill-rule="nonzero" fill="#ffffff" stroke="none" fill-opacity="0.274509803921569" transform="matrix(1 0 0 1 2066 1367 )" />
    <path d="M 0 268.827256563036  L 0 28.5986443152167  C 0 12.5834034986954  3.67631578947376 0  8.35526315789474 0  L 499.644736842105 0  C 504.323684210526 0  508 12.5834034986954  508 28.5986443152167  L 508 268.827256563036  C 508 284.842497379557  504.323684210526 297.425900878253  499.644736842105 297  L 152.344298245616 297  L 121.151315789476 349  L 89.9583333333328 297  L 8.35526315789474 297  C 3.67631578947376 297.425900878253  0 284.842497379557  0 268.827256563036  Z " stroke-width="2" stroke="#d7d7d7" fill="none" transform="matrix(1 0 0 1 2066 1367 )" mask="url(#clip8)" />
  </g>
</svg>