<?xml version="1.0" encoding="utf-8"?>
<svg version="1.1" xmlns:xlink="http://www.w3.org/1999/xlink" width="255px" height="54px" xmlns="http://www.w3.org/2000/svg">
  <defs>
    <mask fill="white" id="clip9">
      <path d="M 0 41.5950482934211  L 0 4.425005137598  C 0 1.94700226054313  1.84539473684214 0  4.19407894736842 0  L 250.805921052632 0  C 253.154605263158 0  255 1.94700226054313  255 4.425005137598  L 255 41.5950482934211  C 255 44.0730511704759  253.154605263158 46.0200534310191  250.805921052632 46  L 76.472039473685 46  L 60.8141447368431 54  L 45.1562499999997 46  L 4.19407894736842 46  C 1.84539473684214 46.0200534310191  0 44.0730511704759  0 41.5950482934211  Z " fill-rule="evenodd" />
    </mask>
  </defs>
  <g transform="matrix(1 0 0 1 -1586 -912 )">
    <path d="M 0 41.5950482934211  L 0 4.425005137598  C 0 1.94700226054313  1.84539473684214 0  4.19407894736842 0  L 250.805921052632 0  C 253.154605263158 0  255 1.94700226054313  255 4.425005137598  L 255 41.5950482934211  C 255 44.0730511704759  253.154605263158 46.0200534310191  250.805921052632 46  L 76.472039473685 46  L 60.8141447368431 54  L 45.1562499999997 46  L 4.19407894736842 46  C 1.84539473684214 46.0200534310191  0 44.0730511704759  0 41.5950482934211  Z " fill-rule="nonzero" fill="#ffffff" stroke="none" fill-opacity="0.274509803921569" transform="matrix(1 0 0 1 1586 912 )" />
    <path d="M 0 41.5950482934211  L 0 4.425005137598  C 0 1.94700226054313  1.84539473684214 0  4.19407894736842 0  L 250.805921052632 0  C 253.154605263158 0  255 1.94700226054313  255 4.425005137598  L 255 41.5950482934211  C 255 44.0730511704759  253.154605263158 46.0200534310191  250.805921052632 46  L 76.472039473685 46  L 60.8141447368431 54  L 45.1562499999997 46  L 4.19407894736842 46  C 1.84539473684214 46.0200534310191  0 44.0730511704759  0 41.5950482934211  Z " stroke-width="2" stroke="#555555" fill="none" transform="matrix(1 0 0 1 1586 912 )" mask="url(#clip9)" />
  </g>
</svg>