<?xml version="1.0" encoding="utf-8"?>
<svg version="1.1" xmlns:xlink="http://www.w3.org/1999/xlink" width="60px" height="59px" xmlns="http://www.w3.org/2000/svg">
  <g transform="matrix(1 0 0 1 -2106 -1561 )">
    <path d="M 13.8461538461538 44  L 13.8461538461538 54  L 46.1538461538462 54  L 46.1538461538462 44  L 13.8461538461538 44  Z M 14 5  L 14 29  L 46 29  L 46 14.75  L 40.3846153846154 14.75  C 39.4230769230769 14.75  38.6057692307692 14.3914930555556  37.9326923076923 13.6744791666667  C 37.2596153846154 12.9574652777778  36.9230769230769 12.0868055555556  36.9230769230769 11.0625  L 36.9230769230769 5  L 14 5  Z M 54.6995192307692 33.6868489583333  C 55.15625 33.2003038194444  55.3846153846154 32.6241319444444  55.3846153846154 31.9583333333333  C 55.3846153846154 31.2925347222222  55.15625 30.7163628472222  54.6995192307692 30.2298177083333  C 54.2427884615385 29.7432725694444  53.7019230769231 29.5  53.0769230769231 29.5  C 52.4519230769231 29.5  51.9110576923077 29.7432725694444  51.4543269230769 30.2298177083333  C 50.9975961538462 30.7163628472222  50.7692307692308 31.2925347222222  50.7692307692308 31.9583333333333  C 50.7692307692308 32.6241319444444  50.9975961538462 33.2003038194444  51.4543269230769 33.6868489583333  C 51.9110576923077 34.1733940972222  52.4519230769231 34.4166666666667  53.0769230769231 34.4166666666667  C 53.7019230769231 34.4166666666667  54.2427884615385 34.1733940972222  54.6995192307692 33.6868489583333  Z M 57.9627403846154 26.7535807291667  C 59.3209134615385 28.2004123263889  60 29.9353298611111  60 31.9583333333333  L 60 47.9375  C 60 48.2703993055556  59.8858173076923 48.5584852430556  59.6574519230769 48.8017578125  C 59.4290865384615 49.0450303819444  59.1586538461538 49.1666666666667  58.8461538461538 49.1666666666667  L 50.7692307692308 49.1666666666667  L 50.7692307692308 55.3125  C 50.7692307692308 56.3368055555556  50.4326923076923 57.2074652777778  49.7596153846154 57.9244791666667  C 49.0865384615385 58.6414930555556  48.2692307692308 59  47.3076923076923 59  L 12.6923076923077 59  C 11.7307692307692 59  10.9134615384615 58.6414930555556  10.2403846153846 57.9244791666667  C 9.56730769230769 57.2074652777778  9.23076923076923 56.3368055555556  9.23076923076923 55.3125  L 9.23076923076923 49.1666666666667  L 1.15384615384615 49.1666666666667  C 0.841346153846154 49.1666666666667  0.570913461538462 49.0450303819444  0.342548076923077 48.8017578125  C 0.114182692307692 48.5584852430556  0 48.2703993055556  0 47.9375  L 0 31.9583333333333  C 0 29.9353298611111  0.679086538461538 28.2004123263889  2.03725961538462 26.7535807291667  C 3.39543269230769 25.3067491319444  5.02403846153846 24.5833333333333  6.92307692307692 24.5833333333333  L 10 24.5833333333333  L 10 3.6875  C 9.23076923076923 2.66319444444444  9.56730769230769 1.79253472222221  10.2403846153846 1.07552083333333  C 10.9134615384615 0.358506944444442  11.7307692307692 0  12.6923076923077 0  L 36.9230769230769 0  C 37.8846153846154 0  38.9423076923077 0.256076388888883  40.0961538461538 0.768229166666669  C 41.25 1.28038194444444  42.1634615384615 1.89496527777777  42.8365384615385 2.61197916666667  L 48.3173076923077 8.45052083333333  C 48.9903846153846 9.16753472222221  49.5673076923077 10.140625  50.0480769230769 11.3697916666667  C 50.5288461538462 12.5989583333333  50.7692307692308 13.7256944444444  50.7692307692308 14.75  L 50.7692307692308 24.5833333333333  L 53.0769230769231 24.5833333333333  C 54.9759615384615 24.5833333333333  56.6045673076923 25.3067491319444  57.9627403846154 26.7535807291667  Z " fill-rule="nonzero" fill="#f7781b" stroke="none" transform="matrix(1 0 0 1 2106 1561 )" />
  </g>
</svg>