<?xml version="1.0" encoding="utf-8"?>
<svg version="1.1" xmlns:xlink="http://www.w3.org/1999/xlink" width="63px" height="74px" xmlns="http://www.w3.org/2000/svg">
  <g transform="matrix(1 0 0 1 -2106 -1413 )">
    <path d="M 61.5849609375 43.6243489583333  C 61.8447265625 43.9294704861111  61.974609375 44.2907986111111  61.974609375 44.7083333333333  C 61.974609375 44.8689236111111  61.9609375 44.9813368055556  61.93359375 45.0455729166667  C 60.18359375 53.6532118055556  56.51953125 60.630859375  50.94140625 65.978515625  C 45.36328125 71.326171875  38.828125 74  31.3359375 74  C 27.34375 74  23.4814453125 73.1167534722222  19.7490234375 71.3502604166667  C 16.0166015625 69.5837673611111  12.6875 67.0625  9.76171875 63.7864583333333  L 4.470703125 70.0013020833333  C 3.951171875 70.6115451388889  3.3359375 70.9166666666667  2.625 70.9166666666667  C 1.9140625 70.9166666666667  1.298828125 70.6115451388889  0.779296875 70.0013020833333  C 0.259765625 69.3910590277778  0 68.6684027777778  0 67.8333333333333  L 0 46.25  C 0 45.4149305555556  0.259765625 44.6922743055556  0.779296875 44.08203125  C 1.298828125 43.4717881944444  1.9140625 43.1666666666667  2.625 43  L 21 43  C 21.7109375 43.1666666666667  22.326171875 43.4717881944444  22.845703125 44.08203125  C 23.365234375 44.6922743055556  23.625 45.4149305555556  23.625 46.25  C 23.625 47.0850694444444  23.365234375 47.8077256944444  22.845703125 48.41796875  L 17.2265625 55.0182291666667  C 19.16796875 57.1380208333333  21.369140625 58.7760416666667  23.830078125 59.9322916666667  C 26.291015625 61.0885416666667  28.84765625 61.6666666666667  31.5 61.6666666666667  C 35.1640625 61.6666666666667  38.58203125 60.6228298611111  41.75390625 58.53515625  C 44.92578125 56.4474826388889  47.46875 53.5729166666667  49.3828125 49.9114583333333  C 49.68359375 49.3654513888889  50.408203125 47.4865451388889  51.556640625 44.2747395833333  C 51.775390625 43.5360243055556  52.185546875 43.1666666666667  52.787109375 43.1666666666667  L 60.662109375 43.1666666666667  C 61.017578125 43.1666666666667  61.3251953125 43.3192274305556  61.5849609375 43.6243489583333  Z M 62.220703125 3.99869791666667  C 62.740234375 4.60894097222222  63 5.33159722222222  63 6.16666666666667  L 63 27.75  C 63 28.5850694444444  62.740234375 29.3077256944444  62.220703125 29.91796875  C 61.701171875 30.5282118055556  61.0859375 30.8333333333333  60.375 31  L 42 31  C 41.2890625 30.8333333333333  40.673828125 30.5282118055556  40.154296875 29.91796875  C 39.634765625 29.3077256944444  39.375 28.5850694444444  39.375 27.75  C 39.375 26.9149305555556  39.634765625 26.1922743055556  40.154296875 25.58203125  L 45.814453125 18.93359375  C 41.767578125 14.5334201388889  36.99609375 12.3333333333333  31.5 12.3333333333333  C 27.8359375 12.3333333333333  24.41796875 13.3771701388889  21.24609375 15.46484375  C 18.07421875 17.5525173611111  15.53125 20.4270833333333  13.6171875 24.0885416666667  C 13.31640625 24.6345486111111  12.591796875 26.5134548611111  11.443359375 29.7252604166667  C 11.224609375 30.4639756944444  10.814453125 30.8333333333333  10.212890625 30.8333333333333  L 2.05078125 30.8333333333333  C 1.6953125 30.8333333333333  1.3876953125 30.6807725694444  1.1279296875 30.3756510416667  C 0.8681640625 30.0705295138889  0.73828125 29.7092013888889  0.73828125 29.2916666666667  L 0.73828125 28.9544270833333  C 2.515625 20.3467881944444  6.20703125 13.369140625  11.8125 8.021484375  C 17.41796875 2.673828125  23.98046875 0  31.5 0  C 35.4921875 0  39.375 0.891276041666669  43.1484375 2.673828125  C 46.921875 4.45638020833333  50.271484375 6.96961805555555  53.197265625 10.2135416666667  L 58.529296875 3.99869791666667  C 59.048828125 3.3884548611111  59.6640625 3.08333333333333  60.375 3.08333333333333  C 61.0859375 3.08333333333333  61.701171875 3.3884548611111  62.220703125 3.99869791666667  Z " fill-rule="nonzero" fill="#f7781b" stroke="none" transform="matrix(1 0 0 1 2106 1413 )" />
  </g>
</svg>