<?xml version="1.0" encoding="utf-8"?>
<svg version="1.1" xmlns:xlink="http://www.w3.org/1999/xlink" width="559px" height="158px" xmlns="http://www.w3.org/2000/svg">
  <defs>
    <filter x="103px" y="2766px" width="559px" height="158px" filterUnits="userSpaceOnUse" id="filter10">
      <feOffset dx="5" dy="5" in="SourceAlpha" result="shadowOffsetInner" />
      <feGaussianBlur stdDeviation="2.5" in="shadowOffsetInner" result="shadowGaussian" />
      <feComposite in2="shadowGaussian" operator="atop" in="SourceAlpha" result="shadowComposite" />
      <feColorMatrix type="matrix" values="0 0 0 0 0.843137254901961  0 0 0 0 0.843137254901961  0 0 0 0 0.843137254901961  0 0 0 0.623529411764706 0  " in="shadowComposite" />
    </filter>
    <g id="widget11">
      <path d="M 104 2786  A 19 19 0 0 1 123 2767 L 632 2767  A 19 19 0 0 1 651 2786 L 651 2894  A 19 19 0 0 1 632 2913 L 123 2913  A 19 19 0 0 1 104 2894 L 104 2786  Z " fill-rule="nonzero" fill="#f2f2f2" stroke="none" fill-opacity="0.419607843137255" />
      <path d="M 103.5 2786  A 19.5 19.5 0 0 1 123 2766.5 L 632 2766.5  A 19.5 19.5 0 0 1 651.5 2786 L 651.5 2894  A 19.5 19.5 0 0 1 632 2913.5 L 123 2913.5  A 19.5 19.5 0 0 1 103.5 2894 L 103.5 2786  Z " stroke-width="1" stroke="#aaaaaa" fill="none" stroke-opacity="0.725490196078431" />
    </g>
  </defs>
  <g transform="matrix(1 0 0 1 -103 -2766 )">
    <use xlink:href="#widget11" filter="url(#filter10)" />
    <use xlink:href="#widget11" />
  </g>
</svg>