<?xml version="1.0" encoding="utf-8"?>
<svg version="1.1" xmlns:xlink="http://www.w3.org/1999/xlink" width="94px" height="99px" xmlns="http://www.w3.org/2000/svg">
  <g transform="matrix(1 0 0 1 -151 -2976 )">
    <path d="M 65.6741071428571 87.0945870535714  C 71.4441964285714 83.8719308035714  76.1826636904762 79.4983258928571  79.8895089285714 73.9737723214286  C 79.1201636904762 68.2650669642857  77.5902157738095 63.5231584821429  75.2996651785714 59.748046875  C 73.0091145833333 55.9729352678571  69.7831101190476 53.7907366071428  65.6216517857143 53.2014508928571  C 63.2786458333333 55.9268973214286  60.4897693452381 58.0538504464286  57.2550223214286 59.5823102678571  C 54.0202752976191 61.1107700892857  50.6019345238095 61.875  47 61.875  C 43.3980654761905 61.875  39.979724702381 61.1107700892857  36.7449776785714 59.5823102678571  C 33.5102306547619 58.0538504464286  30.7213541666667 55.9268973214286  28.3783482142857 53.2014508928571  C 24.2168898809524 53.7907366071428  20.9908854166667 55.9729352678571  18.7003348214286 59.748046875  C 16.4097842261905 63.5231584821429  14.8798363095238 68.2650669642857  14.1104910714286 73.9737723214286  C 17.8173363095238 79.4983258928571  22.5558035714286 83.8719308035714  28.3258928571429 87.0945870535714  C 34.0959821428571 90.3172433035714  40.3206845238095 91.9285714285714  47 91.9285714285714  C 53.6793154761905 91.9285714285714  59.9040178571429 90.3172433035714  65.6741071428571 87.0945870535714  Z M 61.2416294642857 50.3563058035714  C 65.17578125 46.212890625  67.1428571428571 41.2131696428571  67.1428571428571 35.3571428571429  C 67.1428571428571 29.5011160714286  65.17578125 24.5013950892857  61.2416294642857 20.3579799107143  C 57.3074776785714 16.2145647321429  52.5602678571429 14.1428571428571  47 14.1428571428571  C 41.4397321428571 14.1428571428571  36.6925223214286 16.2145647321429  32.7583705357143 20.3579799107143  C 28.82421875 24.5013950892857  26.8571428571429 29.5011160714286  26.8571428571429 35.3571428571429  C 26.8571428571429 41.2131696428571  28.82421875 46.212890625  32.7583705357143 50.3563058035714  C 36.6925223214286 54.4997209821429  41.4397321428571 56.5714285714286  47 56.5714285714286  C 52.5602678571429 56.5714285714286  57.3074776785714 54.4997209821429  61.2416294642857 50.3563058035714  Z M 90.2756696428571 30.2745535714286  C 92.7585565476191 36.3883928571428  94 42.796875  94 49.5  C 94 56.203125  92.7585565476191 62.6023995535714  90.2756696428571 68.6978236607143  C 87.7927827380953 74.7932477678571  84.4618675595238 80.0599888392857  80.2829241071429 84.498046875  C 76.1039806547619 88.9361049107143  71.1119791666667 92.4626116071429  65.3069196428571 95.0775669642857  C 59.5018601190476 97.6925223214286  53.3995535714286 99  47 99  C 40.6354166666667 99  34.5505952380952 97.6925223214286  28.7455357142857 95.0775669642857  C 22.9404761904762 92.4626116071429  17.9397321428571 88.9453125  13.7433035714286 84.5256696428571  C 9.546875 80.1060267857143  6.20721726190476 74.8392857142857  3.72433035714286 68.7254464285714  C 1.24144345238095 62.6116071428571  0 56.203125  0 49.5  C 0 42.796875  1.24144345238095 36.3883928571428  3.72433035714286 30.2745535714286  C 6.20721726190476 24.1607142857143  9.546875 18.8939732142857  13.7433035714286 14.4743303571429  C 17.9397321428571 10.0546875  22.9404761904762 6.53738839285714  28.7455357142857 3.92243303571428  C 34.5505952380952 1.30747767857143  40.6354166666667 0  47 0  C 53.3645833333333 0  59.4494047619048 1.30747767857143  65.2544642857143 3.92243303571428  C 71.0595238095238 6.53738839285714  76.0602678571429 10.0546875  80.2566964285714 14.4743303571429  C 84.453125 18.8939732142857  87.7927827380953 24.1607142857143  90.2756696428571 30.2745535714286  Z " fill-rule="nonzero" fill="#7f7f7f" stroke="none" transform="matrix(1 0 0 1 151 2976 )" />
  </g>
</svg>