<?xml version="1.0" encoding="utf-8"?>
<svg version="1.1" xmlns:xlink="http://www.w3.org/1999/xlink" width="35px" height="35px" xmlns="http://www.w3.org/2000/svg">
  <g transform="matrix(1 0 0 1 -1186 -2568 )">
    <path d="M 25.224609375 21.1458333333333  C 25.224609375 21.3433159722222  25.1486545138889 21.5180121527778  24.9967447916667 21.669921875  L 21.669921875 24.9967447916667  C 21.5180121527778 25.1486545138889  21.3433159722222 25.224609375  21.1458333333333 25.224609375  C 20.9483506944445 25.224609375  20.7736545138889 25.1486545138889  20.6217447916667 24.9967447916667  L 17.5 21.875  L 14.3782552083333 24.9967447916667  C 14.2263454861111 25.1486545138889  14.0516493055556 25.224609375  13.8541666666667 25.224609375  C 13.6566840277778 25.224609375  13.4819878472222 25.1486545138889  13.330078125 24.9967447916667  L 10.0032552083333 21.669921875  C 9.85134548611111 21.5180121527778  9.775390625 21.3433159722222  9.775390625 21.1458333333333  C 9.775390625 20.9483506944444  9.85134548611111 20.7736545138889  10.0032552083333 20.6217447916667  L 13.125 17.5  L 10.0032552083333 14.3782552083333  C 9.85134548611111 14.2263454861111  9.775390625 14.0516493055556  9.775390625 13.8541666666667  C 9.775390625 13.6566840277778  9.85134548611111 13.4819878472222  10.0032552083333 13.330078125  L 13.330078125 10.0032552083333  C 13.4819878472222 9.85134548611111  13.6566840277778 9.775390625  13.8541666666667 9.775390625  C 14.0516493055556 9.775390625  14.2263454861111 9.85134548611111  14.3782552083333 10.0032552083333  L 17.5 13.125  L 20.6217447916667 10.0032552083333  C 20.7736545138889 9.85134548611111  20.9483506944445 9.775390625  21.1458333333333 9.775390625  C 21.3433159722222 9.775390625  21.5180121527778 9.85134548611111  21.669921875 10.0032552083333  L 24.9967447916667 13.330078125  C 25.1486545138889 13.4819878472222  25.224609375 13.6566840277778  25.224609375 13.8541666666667  C 25.224609375 14.0516493055556  25.1486545138889 14.2263454861111  24.9967447916667 14.3782552083333  L 21.875 17.5  L 24.9967447916667 20.6217447916667  C 25.1486545138889 20.7736545138889  25.224609375 20.9483506944444  25.224609375 21.1458333333333  Z M 28.232421875 23.720703125  C 29.3413628472222 21.8218315972222  29.8958333333333 19.7482638888889  29.8958333333333 17.5  C 29.8958333333333 15.2517361111111  29.3413628472222 13.1781684027778  28.232421875 11.279296875  C 27.1234809027778 9.38042534722222  25.6195746527778 7.87651909722222  23.720703125 6.767578125  C 21.8218315972222 5.65863715277778  19.7482638888889 5.10416666666667  17.5 5.10416666666667  C 15.2517361111111 5.10416666666667  13.1781684027778 5.65863715277778  11.279296875 6.767578125  C 9.38042534722222 7.87651909722222  7.87651909722222 9.38042534722222  6.767578125 11.279296875  C 5.65863715277778 13.1781684027778  5.10416666666667 15.2517361111111  5.10416666666667 17.5  C 5.10416666666667 19.7482638888889  5.65863715277778 21.8218315972222  6.767578125 23.720703125  C 7.87651909722222 25.6195746527778  9.38042534722222 27.1234809027778  11.279296875 28.232421875  C 13.1781684027778 29.3413628472222  15.2517361111111 29.8958333333333  17.5 29.8958333333333  C 19.7482638888889 29.8958333333333  21.8218315972222 29.3413628472222  23.720703125 28.232421875  C 25.6195746527778 27.1234809027778  27.1234809027778 25.6195746527778  28.232421875 23.720703125  Z M 32.6529947916667 8.7158203125  C 34.2176649305556 11.3970269097222  35 14.3250868055556  35 17.5  C 35 20.6749131944444  34.2176649305556 23.6029730902778  32.6529947916667 26.2841796875  C 31.0883246527778 28.9653862847222  28.9653862847222 31.0883246527778  26.2841796875 32.6529947916667  C 23.6029730902778 34.2176649305556  20.6749131944444 35  17.5 35  C 14.3250868055556 35  11.3970269097222 34.2176649305556  8.7158203125 32.6529947916667  C 6.03461371527778 31.0883246527778  3.91167534722222 28.9653862847222  2.34700520833333 26.2841796875  C 0.782335069444444 23.6029730902778  0 20.6749131944444  0 17.5  C 0 14.3250868055556  0.782335069444444 11.3970269097222  2.34700520833333 8.7158203125  C 3.91167534722222 6.03461371527778  6.03461371527778 3.91167534722222  8.7158203125 2.34700520833333  C 11.3970269097222 0.782335069444441  14.3250868055556 0  17.5 0  C 20.6749131944444 0  23.6029730902778 0.782335069444441  26.2841796875 2.34700520833333  C 28.9653862847222 3.91167534722222  31.0883246527778 6.03461371527778  32.6529947916667 8.7158203125  Z " fill-rule="nonzero" fill="#000000" stroke="none" transform="matrix(1 0 0 1 1186 2568 )" />
  </g>
</svg>