<?xml version="1.0" encoding="utf-8"?>
<svg version="1.1" xmlns:xlink="http://www.w3.org/1999/xlink" width="35px" height="25px" xmlns="http://www.w3.org/2000/svg">
  <g transform="matrix(1 0 0 1 -1019 -2922 )">
    <path d="M 34.3505859375 0.824652777777779  C 34.7835286458333 1.37442129629629  35 2.02546296296296  35 2.77777777777778  C 35 3.53009259259259  34.7835286458333 4.18113425925926  34.3505859375 4.73090277777778  L 19.0380859375 24.1753472222222  C 18.6051432291667 24.7251157407407  18.0924479166667 25  17.5 25  C 16.9075520833333 25  16.3948567708333 24.7251157407407  15.9619140625 24.1753472222222  L 0.6494140625 4.73090277777778  C 0.216471354166667 4.18113425925926  0 3.53009259259259  0 2.77777777777778  C 0 2.02546296296296  0.216471354166667 1.37442129629629  0.6494140625 0.824652777777779  C 1.08235677083333 0.274884259259256  1.59505208333333 0  2.1875 0  L 32.8125 0  C 33.4049479166667 0  33.9176432291667 0.274884259259256  34.3505859375 0.824652777777779  Z " fill-rule="nonzero" fill="#000000" stroke="none" transform="matrix(1 0 0 1 1019 2922 )" />
  </g>
</svg>