<?xml version="1.0" encoding="utf-8"?>
<svg version="1.1" xmlns:xlink="http://www.w3.org/1999/xlink" width="35px" height="35px" xmlns="http://www.w3.org/2000/svg">
  <g transform="matrix(1 0 0 1 -1099 -2917 )">
    <path d="M 34.3039772727273 13.4232954545455  C 34.7679924242424 13.8873106060606  35 14.4507575757576  35 15.1136363636364  L 35 19.8863636363636  C 35 20.5492424242424  34.7679924242424 21.1126893939394  34.3039772727273 21.5767045454545  C 33.8399621212121 22.0407196969697  33.2765151515152 22.2727272727273  32.6136363636364 22  L 22 22  L 22 32.6136363636364  C 22.2727272727273 33.2765151515152  22.0407196969697 33.8399621212121  21.5767045454545 34.3039772727273  C 21.1126893939394 34.7679924242424  20.5492424242424 35  19.8863636363636 35  L 15.1136363636364 35  C 14.4507575757576 35  13.8873106060606 34.7679924242424  13.4232954545455 34.3039772727273  C 12.9592803030303 33.8399621212121  12.7272727272727 33.2765151515152  13 32.6136363636364  L 13 22  L 2.38636363636364 22  C 1.72348484848485 22.2727272727273  1.16003787878788 22.0407196969697  0.696022727272727 21.5767045454545  C 0.232007575757576 21.1126893939394  0 20.5492424242424  0 19.8863636363636  L 0 15.1136363636364  C 0 14.4507575757576  0.232007575757576 13.8873106060606  0.696022727272727 13.4232954545455  C 1.16003787878788 12.9592803030303  1.72348484848485 12.7272727272727  2.38636363636364 13  L 13 13  L 13 2.38636363636364  C 12.7272727272727 1.72348484848485  12.9592803030303 1.16003787878788  13.4232954545455 0.696022727272728  C 13.8873106060606 0.232007575757575  14.4507575757576 0  15.1136363636364 0  L 19.8863636363636 0  C 20.5492424242424 0  21.1126893939394 0.232007575757575  21.5767045454545 0.696022727272728  C 22.0407196969697 1.16003787878788  22.2727272727273 1.72348484848485  22 2.38636363636364  L 22 13  L 32.6136363636364 13  C 33.2765151515152 12.7272727272727  33.8399621212121 12.9592803030303  34.3039772727273 13.4232954545455  Z " fill-rule="nonzero" fill="#000000" stroke="none" transform="matrix(1 0 0 1 1099 2917 )" />
  </g>
</svg>