<?xml version="1.0" encoding="utf-8"?>
<svg version="1.1" xmlns:xlink="http://www.w3.org/1999/xlink" width="35px" height="35px" xmlns="http://www.w3.org/2000/svg">
  <g transform="matrix(1 0 0 1 -1168 -2917 )">
    <path d="M 16.322869955157 26.25  L 17.4215246636771 26.25  L 19.6973094170404 23.3664772727273  L 16.7152466367713 19.5880681818182  L 14.4394618834081 22.4715909090909  L 14.4394618834081 23.8636363636364  L 16.322869955157 23.8636363636364  L 16.322869955157 26.25  Z M 26.0341928251121 9.17258522727273  C 26.2565396113602 8.89086174242424  26.2630792227205 8.61742424242424  26.0538116591928 8.35227272727273  C 25.8445440956652 8.08712121212121  25.6287369207773 8.09540719696969  25.4063901345291 8.37713068181818  L 18.539798206278 17.0774147727273  C 18.3174514200299 17.3591382575758  18.3109118086697 17.6325757575758  18.5201793721973 17.8977272727273  C 18.729446935725 18.1628787878788  18.9452541106129 18.1545928030303  19.167600896861 17.8728693181818  L 26.0341928251121 9.17258522727273  Z M 27.2309417040359 22.3970170454545  C 27.4925261584454 22.5295928030303  27.6233183856502 22.7698863636364  27.6233183856502 23.1178977272727  L 27.6233183856502 27.8409090909091  C 27.6233183856502 29.8129734848485  27.07072122571 31.4991714015152  25.9655269058296 32.8995028409091  C 24.8603325859492 34.299834280303  23.5295216741405 35  21.9730941704036 35  L 5.65022421524664 35  C 4.09379671150972 35  2.76298579970105 34.299834280303  1.65779147982063 32.8995028409091  C 0.552597159940209 31.4991714015152  0 29.8129734848485  0 27.8409090909091  L 0 7.15909090909091  C 0 5.18702651515151  0.552597159940209 3.50082859848485  1.65779147982063 2.10049715909091  C 2.76298579970105 0.700165719696966  4.09379671150972 0  5.65022421524664 0  L 21.9730941704036 0  C 22.7970852017937 0  23.5622197309417 0.207149621212119  24.2684977578475 0.621448863636362  C 24.4646860986547 0.737452651515149  24.582399103139 0.928030303030302  24.6216367713004 1.19318181818182  C 24.6608744394619 1.4749053030303  24.6020179372197 1.71519886363636  24.445067264574 1.9140625  L 23.4837443946188 3.13210227272727  C 23.3006352765321 3.36410984848485  23.0913677130045 3.43039772727273  22.8559417040359 3.33096590909091  C 22.5551195814649 3.23153409090909  22.2608370702541 3.18181818181818  21.9730941704036 3.18181818181818  L 5.65022421524664 3.18181818181818  C 4.78699551569507 3.18181818181818  4.04801943198804 3.57125946969697  3.43329596412556 4.35014204545455  C 2.81857249626308 5.12902462121212  2.51121076233184 6.06534090909091  3 7.15909090909091  L 3 27.8409090909091  C 2.51121076233184 28.9346590909091  2.81857249626308 29.8709753787879  3.43329596412556 30.6498579545455  C 4.04801943198804 31.428740530303  4.78699551569507 31.8181818181818  5.65022421524664 31.8181818181818  L 21.9730941704036 31.8181818181818  C 22.8363228699552 31.8181818181818  23.5752989536622 31.428740530303  24.1900224215247 30.6498579545455  C 24.8047458893871 29.8709753787879  25.1121076233184 28.9346590909091  25.1121076233184 27.8409090909091  L 25.1121076233184 24.7088068181818  C 25.1121076233184 24.4933712121212  25.1709641255605 24.3110795454545  25.2886771300448 24.1619318181818  L 26.5442825112108 22.5710227272727  C 26.7404708520179 22.3224431818182  26.9693572496263 22.2644412878788  27.2309417040359 22.3970170454545  Z M 12.5560538116592 21.4772727272727  L 25.7399103139013 4.77272727272727  L 31.390134529148 11.9318181818182  L 18.2062780269058 28.6363636363636  L 12.5560538116592 28.6363636363636  L 12.5560538116592 21.4772727272727  Z M 35 6.36363636363636  C 35 7.02651515151515  34.8168908819133 7.58996212121212  34.4506726457399 8.05397727272727  L 32.6457399103139 10.3409090909091  L 26.9955156950673 3.18181818181818  L 28.8004484304933 0.894886363636362  C 29.1666666666667 0.430871212121209  29.6113602391629 0.198863636363638  30.1345291479821 0.198863636363638  C 30.6576980568012 0.198863636363638  31.1023916292975 0.430871212121209  31.4686098654709 0.894886363636362  L 34.4506726457399 4.67329545454546  C 34.8168908819133 5.1373106060606  35 5.70075757575757  35 6.36363636363636  Z " fill-rule="nonzero" fill="#000000" stroke="none" transform="matrix(1 0 0 1 1168 2917 )" />
  </g>
</svg>