<?xml version="1.0" encoding="utf-8"?>
<svg version="1.1" xmlns:xlink="http://www.w3.org/1999/xlink" width="45px" height="33px" xmlns="http://www.w3.org/2000/svg">
  <g transform="matrix(1 0 0 1 -85 -665 )">
    <path d="M 44.1870967741935 4.55555555555556  C 44.7290322580645 5.07407407407407  45 5.7037037037037  45 6.44444444444444  C 45 7.18518518518518  44.7290322580645 7.81481481481481  44.1870967741935 8.33333333333333  L 23.1677419354839 28.4444444444444  L 19.2193548387097 32.2222222222222  C 18.6774193548387 32.7407407407407  18.0193548387097 33  17.2451612903226 33  C 16.4709677419355 33  15.8129032258065 32.7407407407407  15.2709677419355 32.2222222222222  L 11.3225806451613 28.4444444444444  L 0.812903225806452 18.3888888888889  C 0.270967741935484 17.8703703703704  0 17.2407407407407  0 16.5  C 0 15.7592592592593  0.270967741935484 15.1296296296296  0.812903225806452 14.6111111111111  L 4.76129032258064 10.8333333333333  C 5.30322580645161 10.3148148148148  5.96129032258065 10.0555555555556  6.73548387096774 10.0555555555556  C 7.50967741935484 10.0555555555556  8.16774193548387 10.3148148148148  8.70967741935484 10.8333333333333  L 17.2451612903226 19.0277777777778  L 36.2903225806452 0.777777777777778  C 36.8322580645161 0.259259259259258  37.4903225806452 0  38.2645161290323 0  C 39.0387096774194 0  39.6967741935484 0.259259259259258  40.2387096774194 0.777777777777778  L 44.1870967741935 4.55555555555556  Z " fill-rule="nonzero" fill="#419543" stroke="none" transform="matrix(1 0 0 1 85 665 )" />
  </g>
</svg>