<?xml version="1.0" encoding="utf-8"?>
<svg version="1.1" xmlns:xlink="http://www.w3.org/1999/xlink" width="68px" height="57px" xmlns="http://www.w3.org/2000/svg">
  <g transform="matrix(1 0 0 1 -1054 -1006 )">
    <path d="M 15.6923076923077 42  L 15.6923076923077 52  L 52.3076923076923 52  L 52.3076923076923 42  L 15.6923076923077 42  Z M 16 5  L 16 28  L 52 28  L 52 14.25  L 45.7692307692308 14.25  C 44.6794871794872 14.25  43.7532051282051 13.9036458333333  42.9903846153846 13.2109375  C 42.2275641025641 12.5182291666667  41.8461538461538 11.6770833333333  41.8461538461538 10.6875  L 41.8461538461538 5  L 16 5  Z M 61.9927884615385 32.544921875  C 62.5104166666667 32.0748697916667  62.7692307692308 31.5182291666667  62.7692307692308 30.875  C 62.7692307692308 30.2317708333333  62.5104166666667 29.6751302083333  61.9927884615385 29.205078125  C 61.4751602564103 28.7350260416667  60.8621794871795 28.5  60.1538461538462 28.5  C 59.4455128205128 28.5  58.8325320512821 28.7350260416667  58.3149038461538 29.205078125  C 57.7972756410256 29.6751302083333  57.5384615384615 30.2317708333333  57.5384615384615 30.875  C 57.5384615384615 31.5182291666667  57.7972756410256 32.0748697916667  58.3149038461538 32.544921875  C 58.8325320512821 33.0149739583333  59.4455128205128 33.25  60.1538461538462 33.25  C 60.8621794871795 33.25  61.4751602564103 33.0149739583333  61.9927884615385 32.544921875  Z M 65.6911057692308 25.8466796875  C 67.2303685897436 27.2444661458333  68 28.9205729166667  68 30.875  L 68 46.3125  C 68 46.6341145833333  67.870592948718 46.9124348958333  67.6117788461539 47.1474609375  C 67.3529647435898 47.3824869791667  67.0464743589744 47.5  66.6923076923077 47.5  L 57.5384615384615 47.5  L 57.5384615384615 53.4375  C 57.5384615384615 54.4270833333333  57.1570512820513 55.2682291666667  56.3942307692308 55.9609375  C 55.6314102564103 56.6536458333333  54.7051282051282 57  53.6153846153846 57  L 14.3846153846154 57  C 13.2948717948718 57  12.3685897435897 56.6536458333333  11.6057692307692 55.9609375  C 10.8429487179487 55.2682291666667  10.4615384615385 54.4270833333333  10.4615384615385 53.4375  L 10.4615384615385 47.5  L 1.30769230769231 47.5  C 0.953525641025641 47.5  0.647035256410257 47.3824869791667  0.388221153846154 47.1474609375  C 0.129407051282051 46.9124348958333  0 46.6341145833333  0 46.3125  L 0 30.875  C 0 28.9205729166667  0.76963141025641 27.2444661458333  2.30889423076923 25.8466796875  C 3.84815705128205 24.4488932291667  5.69391025641026 23.75  7.84615384615385 23.75  L 11 23.75  L 11 3.5625  C 10.4615384615385 2.57291666666666  10.8429487179487 1.73177083333333  11.6057692307692 1.0390625  C 12.3685897435897 0.346354166666664  13.2948717948718 0  14.3846153846154 0  L 41.8461538461538 0  C 42.9358974358974 0  44.1346153846154 0.247395833333328  45.4423076923077 0.742187500000002  C 46.75 1.23697916666666  47.7852564102564 1.83072916666666  48.5480769230769 2.5234375  L 54.7596153846154 8.1640625  C 55.5224358974359 8.85677083333333  56.1762820512821 9.796875  56.7211538461538 10.984375  C 57.2660256410256 12.171875  57.5384615384615 13.2604166666667  57.5384615384615 14.25  L 57.5384615384615 23.75  L 60.1538461538462 23.75  C 62.3060897435898 23.75  64.151842948718 24.4488932291667  65.6911057692308 25.8466796875  Z " fill-rule="nonzero" fill="#419543" stroke="none" transform="matrix(1 0 0 1 1054 1006 )" />
  </g>
</svg>