<?xml version="1.0" encoding="utf-8"?>
<svg version="1.1" xmlns:xlink="http://www.w3.org/1999/xlink" width="60px" height="50px" xmlns="http://www.w3.org/2000/svg">
  <g transform="matrix(1 0 0 1 -716 -455 )">
    <path d="M 24 31.25  L 24 35  L 36 35  L 36 31.25  L 32 31.25  L 32 13.75  L 28.4375 13.75  L 23.8125 19.1015625  L 26.21875 22.2265625  C 27.09375 21.2630208333333  27.6666666666667 20.5208333333333  27.9375 20  L 28 20  L 28 31.25  L 24 31.25  Z M 39.34375 19.453125  C 39.78125 21.328125  40 23.1770833333333  40 25  C 40 26.8229166666667  39.78125 28.671875  39.34375 30.546875  C 38.90625 32.421875  38.2864583333333 34.1666666666667  37.484375 35.78125  C 36.6822916666667 37.3958333333333  35.625 38.7109375  34.3125 39.7265625  C 33 40.7421875  31.5625 41.25  30 41.25  C 28.4375 41.25  27 40.7421875  25.6875 39.7265625  C 24.375 38.7109375  23.3177083333333 37.3958333333333  22.515625 35.78125  C 21.7135416666667 34.1666666666667  21.09375 32.421875  20.65625 30.546875  C 20.21875 28.671875  20 26.8229166666667  20 25  C 20 23.1770833333333  20.21875 21.328125  20.65625 19.453125  C 21.09375 17.578125  21.7135416666667 15.8333333333333  22.515625 14.21875  C 23.3177083333333 12.6041666666667  24.375 11.2890625  25.6875 10.2734375  C 27 9.2578125  28.4375 8.75  30 8.75  C 31.5625 8.75  33 9.2578125  34.3125 10.2734375  C 35.625 11.2890625  36.6822916666667 12.6041666666667  37.484375 14.21875  C 38.2864583333333 15.8333333333333  38.90625 17.578125  39.34375 19.453125  Z M 50.34375 37.9296875  C 51.90625 35.9765625  53.7916666666667 35  56 35  L 56 15  C 53.7916666666667 15  51.90625 14.0234375  50.34375 12.0703125  C 48.78125 10.1171875  48 7.76041666666666  48 5  L 12 5  C 12 7.76041666666666  11.21875 10.1171875  9.65625 12.0703125  C 8.09375 14.0234375  6.20833333333333 15  4 15  L 4 35  C 6.20833333333333 35  8.09375 35.9765625  9.65625 37.9296875  C 11.21875 39.8828125  12 42.2395833333333  12 45  L 48 45  C 48 42.2395833333333  48.78125 39.8828125  50.34375 37.9296875  Z M 59.40625 0.742187500000002  C 59.8020833333333 1.23697916666666  60 1.82291666666666  60 2.5  L 60 47.5  C 60 48.1770833333333  59.8020833333333 48.7630208333333  59.40625 49.2578125  C 59.0104166666667 49.7526041666667  58.5416666666667 50  58 50  L 2 50  C 1.45833333333333 50  0.989583333333333 49.7526041666667  0.59375 49.2578125  C 0.197916666666667 48.7630208333333  0 48.1770833333333  0 47.5  L 0 2.5  C 0 1.82291666666666  0.197916666666667 1.23697916666666  0.59375 0.742187500000002  C 0.989583333333333 0.24739583333333  1.45833333333333 0  2 0  L 58 0  C 58.5416666666667 0  59.0104166666667 0.24739583333333  59.40625 0.742187500000002  Z " fill-rule="nonzero" fill="#ffffff" stroke="none" transform="matrix(1 0 0 1 716 455 )" />
  </g>
</svg>