<?xml version="1.0" encoding="utf-8"?>
<svg version="1.1" xmlns:xlink="http://www.w3.org/1999/xlink" width="60px" height="50px" xmlns="http://www.w3.org/2000/svg">
  <g transform="matrix(1 0 0 1 -1122 -455 )">
    <path d="M 5 0  L 55 0  C 56.375 0  57.5520833333333 0.509982638888884  58.53125 1.52994791666667  C 59.5104166666667 2.54991319444444  60 3.77604166666667  60 5.20833333333333  L 60 44.7916666666667  C 60 46.2239583333333  59.5104166666667 47.4500868055556  58.53125 48.4700520833333  C 57.5520833333333 49.4900173611111  56.375 50  55 50  L 5 50  C 3.625 50  2.44791666666667 49.4900173611111  1.46875 48.4700520833333  C 0.489583333333333 47.4500868055556  0 46.2239583333333  0 44.7916666666667  L 0 5.20833333333333  C 0 3.77604166666667  0.489583333333333 2.54991319444444  1.46875 1.52994791666667  C 2.44791666666667 0.509982638888884  3.625 0  5 0  Z M 55 5  L 5 5  C 4.72916666666667 4.16666666666667  4.49479166666667 4.26974826388888  4.296875 4.47591145833333  C 4.09895833333333 4.68207465277777  4 4.92621527777777  4 5.20833333333333  L 4 13  L 56 13  L 56 5.20833333333333  C 56 4.92621527777777  55.9010416666667 4.68207465277777  55.703125 4.47591145833333  C 55.5052083333333 4.26974826388888  55.2708333333333 4.16666666666667  55 5  Z M 5 45  L 55 45  C 55.2708333333333 45.8333333333333  55.5052083333333 45.7302517361111  55.703125 45.5240885416667  C 55.9010416666667 45.3179253472222  56 45.0737847222222  56 44.7916666666667  L 56 25  L 4 25  L 4 44.7916666666667  C 4 45.0737847222222  4.09895833333333 45.3179253472222  4.296875 45.5240885416667  C 4.49479166666667 45.7302517361111  4.72916666666667 45.8333333333333  5 45  Z M 16 41.6666666666667  L 8 41.6666666666667  L 8 37.5  L 16 37.5  L 16 41.6666666666667  Z M 32 41  L 20 41  L 20 37  L 32 37  L 32 41  Z " fill-rule="nonzero" fill="#d9001b" stroke="none" transform="matrix(1 0 0 1 1122 455 )" />
  </g>
</svg>