<?xml version="1.0" encoding="utf-8"?>
<svg version="1.1" xmlns:xlink="http://www.w3.org/1999/xlink" width="54px" height="50px" xmlns="http://www.w3.org/2000/svg">
  <g transform="matrix(1 0 0 1 -1486 -463 )">
    <path d="M 4.5 0  L 49.5 0  C 50.7375 0  51.796875 0.509982638888884  52.678125 1.52994791666667  C 53.559375 2.54991319444444  54 3.77604166666667  54 5.20833333333333  L 54 44.7916666666667  C 54 46.2239583333333  53.559375 47.4500868055556  52.678125 48.4700520833333  C 51.796875 49.4900173611111  50.7375 50  49.5 50  L 4.5 50  C 3.2625 50  2.203125 49.4900173611111  1.321875 48.4700520833333  C 0.440625 47.4500868055556  0 46.2239583333333  0 44.7916666666667  L 0 5.20833333333333  C 0 3.77604166666667  0.440625 2.54991319444444  1.321875 1.52994791666667  C 2.203125 0.509982638888884  3.2625 0  4.5 0  Z M 49.5 5  L 4.5 5  C 4.25625 4.16666666666667  4.0453125 4.26974826388888  3.8671875 4.47591145833333  C 3.6890625 4.68207465277777  3.6 4.92621527777777  3.6 5.20833333333333  L 3.6 13  L 50.4 13  L 50.4 5.20833333333333  C 50.4 4.92621527777777  50.3109375 4.68207465277777  50.1328125 4.47591145833333  C 49.9546875 4.26974826388888  49.74375 4.16666666666667  49.5 5  Z M 4.5 45  L 49.5 45  C 49.74375 45.8333333333333  49.9546875 45.7302517361111  50.1328125 45.5240885416667  C 50.3109375 45.3179253472222  50.4 45.0737847222222  50 44.7916666666667  L 50 25  L 4 25  L 4 44.7916666666667  C 3.6 45.0737847222222  3.6890625 45.3179253472222  3.8671875 45.5240885416667  C 4.0453125 45.7302517361111  4.25625 45.8333333333333  4.5 45  Z M 14.4 41.6666666666667  L 7.2 41.6666666666667  L 7.2 37.5  L 14.4 37.5  L 14.4 41.6666666666667  Z M 28.8 41  L 18 41  L 18 37  L 28.8 37  L 28.8 41  Z " fill-rule="nonzero" fill="#03bf16" stroke="none" fill-opacity="0.996078431372549" transform="matrix(1 0 0 1 1486 463 )" />
  </g>
</svg>