<?xml version="1.0" encoding="utf-8"?>
<svg version="1.1" xmlns:xlink="http://www.w3.org/1999/xlink" width="54px" height="50px" xmlns="http://www.w3.org/2000/svg">
  <g transform="matrix(1 0 0 1 -1497 -446 )">
    <path d="M 21.6 31.25  L 21.6 35  L 32.4 35  L 32.4 31.25  L 28 31.25  L 28 13.75  L 25.59375 13.75  L 21.43125 19.1015625  L 23.596875 22.2265625  C 24.384375 21.2630208333333  24.9 20.5208333333333  25.14375 20  L 26 20  L 26 31.25  L 21.6 31.25  Z M 35.409375 19.453125  C 35.803125 21.328125  36 23.1770833333333  36 25  C 36 26.8229166666667  35.803125 28.671875  35.409375 30.546875  C 35.015625 32.421875  34.4578125 34.1666666666667  33.7359375 35.78125  C 33.0140625 37.3958333333333  32.0625 38.7109375  30.88125 39.7265625  C 29.7 40.7421875  28.40625 41.25  27 41.25  C 25.59375 41.25  24.3 40.7421875  23.11875 39.7265625  C 21.9375 38.7109375  20.9859375 37.3958333333333  20.2640625 35.78125  C 19.5421875 34.1666666666667  18.984375 32.421875  18.590625 30.546875  C 18.196875 28.671875  18 26.8229166666667  18 25  C 18 23.1770833333333  18.196875 21.328125  18.590625 19.453125  C 18.984375 17.578125  19.5421875 15.8333333333333  20.2640625 14.21875  C 20.9859375 12.6041666666667  21.9375 11.2890625  23.11875 10.2734375  C 24.3 9.2578125  25.59375 8.75  27 8.75  C 28.40625 8.75  29.7 9.2578125  30.88125 10.2734375  C 32.0625 11.2890625  33.0140625 12.6041666666667  33.7359375 14.21875  C 34.4578125 15.8333333333333  35.015625 17.578125  35.409375 19.453125  Z M 45.309375 37.9296875  C 46.715625 35.9765625  48.4125 35  50 35  L 50 15  C 48.4125 15  46.715625 14.0234375  45.309375 12.0703125  C 43.903125 10.1171875  43.2 7.76041666666666  43.2 5  L 10.8 5  C 10.8 7.76041666666666  10.096875 10.1171875  8.690625 12.0703125  C 7.284375 14.0234375  5.5875 15  4 15  L 4 35  C 5.5875 35  7.284375 35.9765625  8.690625 37.9296875  C 10.096875 39.8828125  10.8 42.2395833333333  10.8 45  L 43.2 45  C 43.2 42.2395833333333  43.903125 39.8828125  45.309375 37.9296875  Z M 53.465625 0.742187500000002  C 53.821875 1.23697916666666  54 1.82291666666666  54 2.5  L 54 47.5  C 54 48.1770833333333  53.821875 48.7630208333333  53.465625 49.2578125  C 53.109375 49.7526041666667  52.6875 50  52.2 50  L 1.8 50  C 1.3125 50  0.890625 49.7526041666667  0.534375 49.2578125  C 0.178125 48.7630208333333  0 48.1770833333333  0 47.5  L 0 2.5  C 0 1.82291666666666  0.178125 1.23697916666666  0.534375 0.742187500000002  C 0.890625 0.24739583333333  1.3125 0  1.8 0  L 52.2 0  C 52.6875 0  53.109375 0.24739583333333  53.465625 0.742187500000002  Z " fill-rule="nonzero" fill="#0000ff" stroke="none" transform="matrix(1 0 0 1 1497 446 )" />
  </g>
</svg>