<?xml version="1.0" encoding="utf-8"?>
<svg version="1.1" xmlns:xlink="http://www.w3.org/1999/xlink" width="181px" height="152px" xmlns="http://www.w3.org/2000/svg">
  <g transform="matrix(1 0 0 1 -2407 -753 )">
    <path d="M 140.227864583333 63.3333333333333  C 140.227864583333 65.0486111111111  139.481553819444 66.5329861111111  137.988932291667 67.7864583333333  L 88.2610677083333 109.546875  C 86.7684461805556 110.800347222222  85.0008680555556 111.427083333333  82.9583333333333 111.427083333333  C 80.9157986111111 111.427083333333  79.1482204861111 110.800347222222  77.6555989583333 109.546875  L 43.0110677083333 80.453125  C 41.5184461805556 79.1996527777778  40.7721354166667 77.7152777777778  40.7721354166667 76  C 40.7721354166667 74.2847222222222  41.5184461805556 72.8003472222222  43.0110677083333 71.546875  L 55.0305989583333 61.453125  C 56.5232204861111 60.1996527777778  58.2907986111111 59.5729166666667  60.3333333333333 59.5729166666667  C 62.3758680555556 59.5729166666667  64.1434461805556 60.1996527777778  65.6360677083333 61.453125  L 82.9583333333333 76  L 115.363932291667 48.7864583333333  C 116.856553819444 47.5329861111111  118.624131944444 46.90625  120.666666666667 46.90625  C 122.709201388889 46.90625  124.476779513889 47.5329861111111  125.969401041667 48.7864583333333  L 137.988932291667 58.8802083333333  C 139.481553819444 60.1336805555556  140.227864583333 61.6180555555556  140.227864583333 63.3333333333333  Z M 146.001953125 103.015625  C 151.736762152778 94.7690972222222  154.604166666667 85.7638888888889  154.604166666667 76  C 154.604166666667 66.2361111111111  151.736762152778 57.2309027777778  146.001953125 48.984375  C 140.267144097222 40.7378472222222  132.489800347222 34.2065972222222  122.669921875 29.390625  C 112.850043402778 24.5746527777778  102.126736111111 22.1666666666667  90.5 22.1666666666667  C 78.8732638888889 22.1666666666667  68.1499565972222 24.5746527777778  58.330078125 29.390625  C 48.5101996527778 34.2065972222222  40.7328559027778 40.7378472222222  34.998046875 48.984375  C 29.2632378472222 57.2309027777778  26.3958333333333 66.2361111111111  26.3958333333333 76  C 26.3958333333333 85.7638888888889  29.2632378472222 94.7690972222222  34.998046875 103.015625  C 40.7328559027778 111.262152777778  48.5101996527778 117.793402777778  58.330078125 122.609375  C 68.1499565972222 127.425347222222  78.8732638888889 129.833333333333  90.5 129.833333333333  C 102.126736111111 129.833333333333  112.850043402778 127.425347222222  122.669921875 122.609375  C 132.489800347222 117.793402777778  140.267144097222 111.262152777778  146.001953125 103.015625  Z M 168.862630208333 37.8515625  C 176.954210069444 49.4956597222222  181 62.2118055555555  181 76  C 181 89.7881944444444  176.954210069444 102.504340277778  168.862630208333 114.1484375  C 160.771050347222 125.792534722222  149.792426215278 135.012152777778  135.9267578125 141.807291666667  C 122.061089409722 148.602430555556  106.918836805556 152  90.5 152  C 74.0811631944445 152  58.9389105902778 148.602430555556  45.0732421875 141.807291666667  C 31.2075737847222 135.012152777778  20.2289496527778 125.792534722222  12.1373697916667 114.1484375  C 4.04578993055556 102.504340277778  0 89.7881944444444  0 76  C 0 62.2118055555555  4.04578993055556 49.4956597222222  12.1373697916667 37.8515625  C 20.2289496527778 26.2074652777778  31.2075737847222 16.9878472222222  45.0732421875 10.1927083333333  C 58.9389105902778 3.39756944444443  74.0811631944445 0  90.5 0  C 106.918836805556 0  122.061089409722 3.39756944444443  135.9267578125 10.1927083333333  C 149.792426215278 16.9878472222222  160.771050347222 26.2074652777778  168.862630208333 37.8515625  Z " fill-rule="nonzero" fill="#03bf16" stroke="none" fill-opacity="0.996078431372549" transform="matrix(1 0 0 1 2407 753 )" />
  </g>
</svg>