<?xml version="1.0" encoding="utf-8"?>
<svg version="1.1" xmlns:xlink="http://www.w3.org/1999/xlink" width="50px" height="50px" xmlns="http://www.w3.org/2000/svg">
  <g transform="matrix(1 0 0 1 -1183 -2437 )">
    <path d="M 20.8333333333333 38.7369791666667  C 21.3975694444444 38.7369791666667  21.8858506944444 38.5308159722222  22.2981770833333 38.1184895833333  L 42.28515625 18.1315104166667  C 42.6974826388889 17.7191840277778  42.9036458333333 17.2309027777778  42.9036458333333 16.6666666666667  C 42.9036458333333 16.1024305555556  42.6974826388889 15.6141493055556  42.28515625 15.2018229166667  L 38.96484375 11.8815104166667  C 38.5525173611111 11.4691840277778  38.0642361111111 11.2630208333333  37.5 11.2630208333333  C 36.9357638888889 11.2630208333333  36.4474826388889 11.4691840277778  36.03515625 11.8815104166667  L 20.8333333333333 27.0833333333333  L 13.96484375 20.21484375  C 13.5525173611111 19.8025173611111  13.0642361111111 19.5963541666667  12.5 19.5963541666667  C 11.9357638888889 19.5963541666667  11.4474826388889 19.8025173611111  11.03515625 20.21484375  L 7.71484375 23.53515625  C 7.30251736111111 23.9474826388889  7.09635416666667 24.4357638888889  7.09635416666667 25  C 7.09635416666667 25.5642361111111  7.30251736111111 26.0525173611111  7.71484375 26.46484375  L 19.3684895833333 38.1184895833333  C 19.7808159722222 38.5308159722222  20.2690972222222 38.7369791666667  20.8333333333333 38.7369791666667  Z M 47.2493489583333 2.75065104166667  C 49.0831163194444 4.58441840277777  50 6.79253472222222  50 9.375  L 50 40.625  C 50 43.2074652777778  49.0831163194444 45.4155815972222  47.2493489583333 47.2493489583333  C 45.4155815972222 49.0831163194444  43.2074652777778 50  40.625 50  L 9.375 50  C 6.79253472222222 50  4.58441840277778 49.0831163194444  2.75065104166667 47.2493489583333  C 0.916883680555555 45.4155815972222  0 43.2074652777778  0 40.625  L 0 9.375  C 0 6.79253472222222  0.916883680555555 4.58441840277777  2.75065104166667 2.75065104166667  C 4.58441840277778 0.916883680555552  6.79253472222222 0  9.375 0  L 40.625 0  C 43.2074652777778 0  45.4155815972222 0.916883680555552  47.2493489583333 2.75065104166667  Z " fill-rule="nonzero" fill="#0000bf" stroke="none" fill-opacity="0.76078431372549" transform="matrix(1 0 0 1 1183 2437 )" />
  </g>
</svg>