<?xml version="1.0" encoding="utf-8"?>
<svg version="1.1" xmlns:xlink="http://www.w3.org/1999/xlink" width="35px" height="35px" xmlns="http://www.w3.org/2000/svg">
  <g transform="matrix(1 0 0 1 -1811 -161 )">
    <path d="M 8.14762242725337 26.8465909090909  C 9.07499408563993 27.7746212121212  9.53867991483322 28.9015151515152  9.53867991483322 30.2272727272727  C 9.53867991483322 31.5530303030303  9.07499408563993 32.6799242424242  8.14762242725337 33.6079545454545  C 7.22025076886681 34.5359848484848  6.09415661225455 35  4.76933995741661 35  C 3.44452330257866 35  2.31842914596641 34.5359848484848  1.39105748757984 33.6079545454545  C 0.463685829193281 32.6799242424242  0 31.5530303030303  0 30.2272727272727  C 0 28.9015151515152  0.463685829193281 27.7746212121212  1.39105748757984 26.8465909090909  C 2.31842914596641 25.9185606060606  3.44452330257866 25.4545454545455  4.76933995741661 25.4545454545455  C 6.09415661225455 25.4545454545455  7.22025076886681 25.9185606060606  8.14762242725337 26.8465909090909  Z M 20.2572746628815 25.6782670454545  C 21.375088715401 28.0977746212121  22.0416370948663 30.6332859848485  22.2569198012775 33.2848011363636  C 22.2900402176485 33.7488162878788  22.1492784480719 34.1465435606061  21.8346344925479 34.4779829545455  C 21.5365507452094 34.8259943181818  21.1473858528507 35  20.667139815472 35  L 17.3136976579134 35  C 16.8996924532766 35  16.5436479772889 34.86328125  16.2455642299503 34.58984375  C 15.9474804826118 34.31640625  15.781878400757 33.9725378787879  15.7487579843861 33.5582386363636  C 15.3844334043057 29.7632575757576  13.8567541991956 26.5192945075758  11.1657203690561 23.8263494318182  C 8.47468653891649 21.1334043560606  5.23302578660989 19.6046401515151  1.44073811213627 19.2400568181818  C 1.02673290749941 19.2069128787879  0.683108587650816 19.0411931818182  0.40986515259049 18.7428977272727  C 0.136621717530163 18.4446022727273  0 18.0883049242424  0 17.6740056818182  L 0 14.3181818181818  C 0 13.8375946969697  0.17388218594748 13.4481534090909  0.521646557842441 13.1498579545455  C 0.803170096995505 12.868134469697  1.1592145729832 12.7272727272727  1.58977998580554 12.7272727272727  L 1.71398154719659 12.7272727272727  C 4.36361485687249 12.9427083333333  6.89732670925006 13.6097301136364  9.31511710432931 14.7283380681818  C 11.7329074994086 15.8469460227273  13.8774544594275 17.3508522727273  15.7487579843861 19.2400568181818  C 17.6366217175302 21.1126893939394  19.139460610362 23.258759469697  20.2572746628815 25.6782670454545  Z M 31.9943222143364 20.8682528409091  C 33.7662644901822 24.8372395833333  34.7598769813106 28.9926609848485  34.9751596877218 33.3345170454545  C 35.0082801040927 33.7819602272727  34.8592382304235 34.1714015151515  34.528034066714 34.5028409090909  C 34.2299503193754 34.8342803030303  33.8490655311095 35  33.3853797019163 35  L 29.833215046132 35  C 29.4026496333097 35  29.0341850011829 34.8549952651515  28.7278211497516 34.5649857954545  C 28.4214572983203 34.2749763257576  28.2599952685119 33.922821969697  28.2434350603265 33.5085227272727  C 28.0447125621008 29.9455492424242  27.2084220487343 26.5607244318182  25.7345635202271 23.3540482954545  C 24.2607049917199 20.1473721590909  22.3438608942512 17.36328125  19.9840312278212 15.0017755681818  C 17.6242015613911 12.6402698863636  14.8420865862314 10.7220643939394  11.6376863023421 9.24715909090909  C 8.4332860184528 7.77225378787878  5.05086349656967 6.92708333333333  1.49041873669269 6.71164772727273  C 1.07641353205583 6.69507575757576  0.724509108114502 6.5334990530303  0.434705464868701 6.22691761363636  C 0.1449018216229 5.92033617424242  0 5.55989583333333  0 5.14559659090909  L 0 1.59090909090909  C 0 1.12689393939394  0.165602081854743 0.745738636363638  0.49680624556423 0.447443181818183  C 0.794889992902768 0.149147727272728  1.1592145729832 0  1.58977998580554 0  L 1.66430092264017 0  C 6.00307546723445 0.215435606060601  10.1555476697421 1.20975378787878  14.1217175301632 2.98295454545455  C 18.0878873905843 4.7561553030303  21.611071682044 7.19223484848485  24.6912704045422 10.2911931818182  C 27.7880293352259 13.3735795454545  30.2223799384907 16.8992660984848  31.9943222143364 20.8682528409091  Z " fill-rule="nonzero" fill="#ffffff" stroke="none" transform="matrix(1 0 0 1 1811 161 )" />
  </g>
</svg>