<?xml version="1.0" encoding="utf-8"?>
<svg version="1.1" xmlns:xlink="http://www.w3.org/1999/xlink" width="31px" height="29px" xmlns="http://www.w3.org/2000/svg">
  <g transform="matrix(1 0 0 1 -1674 -260 )">
    <path d="M 30.6165364583333 0.358723958333332  C 30.8721788194444 0.597873263888885  31 0.881076388888885  31 1.20833333333333  L 31 27.7916666666667  C 31 28.1189236111111  30.8721788194444 28.4021267361111  30.6165364583333 28.6412760416667  C 30.3608940972222 28.8804253472222  30.0581597222222 29  29.7083333333333 29  L 19.375 29  C 19.0251736111111 29  18.7224392361111 28.8804253472222  18.466796875 28.6412760416667  C 18.2111545138889 28.4021267361111  18.0833333333333 28.1189236111111  18 27.7916666666667  L 18 1.20833333333333  C 18.0833333333333 0.881076388888885  18.2111545138889 0.597873263888885  18.466796875 0.358723958333332  C 18.7224392361111 0.119574652777776  19.0251736111111 0  19.375 0  L 29.7083333333333 0  C 30.0581597222222 0  30.3608940972222 0.119574652777776  30.6165364583333 0.358723958333332  Z M 12.533203125 0.358723958333332  C 12.7888454861111 0.597873263888885  12.9166666666667 0.881076388888885  13 1.20833333333333  L 13 27.7916666666667  C 12.9166666666667 28.1189236111111  12.7888454861111 28.4021267361111  12.533203125 28.6412760416667  C 12.2775607638889 28.8804253472222  11.9748263888889 29  11.625 29  L 1.29166666666667 29  C 0.941840277777778 29  0.639105902777778 28.8804253472222  0.383463541666667 28.6412760416667  C 0.127821180555556 28.4021267361111  0 28.1189236111111  0 27.7916666666667  L 0 1.20833333333333  C 0 0.881076388888885  0.127821180555556 0.597873263888885  0.383463541666667 0.358723958333332  C 0.639105902777778 0.119574652777776  0.941840277777778 0  1.29166666666667 0  L 11.625 0  C 11.9748263888889 0  12.2775607638889 0.119574652777776  12.533203125 0.358723958333332  Z " fill-rule="nonzero" fill="#000000" stroke="none" transform="matrix(1 0 0 1 1674 260 )" />
  </g>
</svg>