<?xml version="1.0" encoding="utf-8"?>
<svg version="1.1" xmlns:xlink="http://www.w3.org/1999/xlink" width="35px" height="35px" xmlns="http://www.w3.org/2000/svg">
  <g transform="matrix(1 0 0 1 -46 -154 )">
    <path d="M 34.5670572916667 28.51953125  C 34.8556857638889 28.8658854166667  35 29.2760416666667  35 29.75  L 35 33.25  C 35 33.7239583333333  34.8556857638889 34.1341145833333  34.5670572916667 34.48046875  C 34.2784288194445 34.8268229166667  33.9366319444445 35  33.5416666666667 35  L 1.45833333333333 35  C 1.06336805555556 35  0.721571180555556 34.8268229166667  0.432942708333333 34.48046875  C 0.144314236111111 34.1341145833333  0 33.7239583333333  0 33.25  L 0 29.75  C 0 29.2760416666667  0.144314236111111 28.8658854166667  0.432942708333333 28.51953125  C 0.721571180555556 28.1731770833333  1.06336805555556 28  1.45833333333333 28  L 33.5416666666667 28  C 33.9366319444445 28  34.2784288194445 28.1731770833333  34.5670572916667 28.51953125  Z M 34.5670572916667 14.51953125  C 34.8556857638889 14.8658854166667  35 15.2760416666667  35 15.75  L 35 19.25  C 35 19.7239583333333  34.8556857638889 20.1341145833333  34.5670572916667 20.48046875  C 34.2784288194445 20.8268229166667  33.9366319444445 21  33.5416666666667 21  L 1.45833333333333 21  C 1.06336805555556 21  0.721571180555556 20.8268229166667  0.432942708333333 20.48046875  C 0.144314236111111 20.1341145833333  0 19.7239583333333  0 19.25  L 0 15.75  C 0 15.2760416666667  0.144314236111111 14.8658854166667  0.432942708333333 14.51953125  C 0.721571180555556 14.1731770833333  1.06336805555556 14  1.45833333333333 14  L 33.5416666666667 14  C 33.9366319444445 14  34.2784288194445 14.1731770833333  34.5670572916667 14.51953125  Z M 34.5670572916667 0.519531250000002  C 34.8556857638889 0.865885416666664  35 1.27604166666666  35 1.75  L 35 5.25  C 35 5.72395833333333  34.8556857638889 6.13411458333333  34.5670572916667 6.48046875  C 34.2784288194445 6.82682291666666  33.9366319444445 7  33.5416666666667 7  L 1.45833333333333 7  C 1.06336805555556 7  0.721571180555556 6.82682291666666  0.432942708333333 6.48046875  C 0.144314236111111 6.13411458333333  0 5.72395833333333  0 5.25  L 0 1.75  C 0 1.27604166666666  0.144314236111111 0.865885416666664  0.432942708333333 0.519531250000002  C 0.721571180555556 0.173177083333331  1.06336805555556 0  1.45833333333333 0  L 33.5416666666667 0  C 33.9366319444445 0  34.2784288194445 0.173177083333331  34.5670572916667 0.519531250000002  Z " fill-rule="nonzero" fill="#ffffff" stroke="none" transform="matrix(1 0 0 1 46 154 )" />
  </g>
</svg>