<?xml version="1.0" encoding="utf-8"?>
<svg version="1.1" xmlns:xlink="http://www.w3.org/1999/xlink" width="35px" height="35px" xmlns="http://www.w3.org/2000/svg">
  <g transform="matrix(1 0 0 1 -1067 -163 )">
    <path d="M 10.2941176470588 25.1953125  L 10.2941176470588 31.875  L 16.4705882352941 28.125  L 16.4705882352941 21.9921875  L 10.2941176470588 25.1953125  Z M 2.76654411764706 19.62890625  L 9.26470588235294 23.0078125  L 15.7628676470588 19.62890625  L 9.26470588235294 16.25  L 2.76654411764706 19.62890625  Z M 26.7647058823529 25.1953125  L 26.7647058823529 31.875  L 32.9411764705882 28.125  L 32.9411764705882 21.9921875  L 26.7647058823529 25.1953125  Z M 19.2371323529412 19.62890625  L 25.7352941176471 23.0078125  L 32.2334558823529 19.62890625  L 25.7352941176471 16.25  L 19.2371323529412 19.62890625  Z M 18.5294117647059 12.0703125  L 18.5294117647059 17.28515625  L 24.7058823529412 14.0625  L 24.7058823529412 8.8671875  L 18.5294117647059 12.0703125  Z M 10.4067095588235 6.19140625  L 17.5 9.8828125  L 24.5932904411765 6.19140625  L 17.5 2.5  L 10.4067095588235 6.19140625  Z M 34.6622242647059 18.6328125  C 34.8874080882353 19.0494791666667  35 19.5052083333333  35 20  L 35 28.125  C 35 28.59375  34.898131127451 29.0299479166667  34.6943933823529 29.43359375  C 34.4906556372549 29.8372395833333  34.2118566176471 30.1432291666667  33.8579963235294 30.3515625  L 26.6521139705882 34.7265625  C 26.3840379901961 34.9088541666667  26.078431372549 35  25.7352941176471 35  C 25.3921568627451 35  25.086550245098 34.9088541666667  24.8184742647059 34.7265625  L 17.6125919117647 30.3515625  C 17.569699754902 30.3255208333333  17.5321691176471 30.2994791666667  17.5 30.2734375  C 17.4785539215686 30.2994791666667  17.4410232843137 30.3255208333333  17.3874080882353 30.3515625  L 10.1815257352941 34.7265625  C 9.91344975490196 34.9088541666667  9.6078431372549 35  9.26470588235294 35  C 8.92156862745098 35  8.61596200980392 34.9088541666667  8.34788602941176 34.7265625  L 1.14200367647059 30.3515625  C 0.788143382352941 30.1432291666667  0.509344362745098 29.8372395833333  0.305606617647059 29.43359375  C 0.10186887254902 29.0299479166667  0 28.59375  0 28.125  L 0 20  C 0 19.5052083333333  0.115272671568627 19.0494791666667  0.345818014705882 18.6328125  C 0.576363357843137 18.2161458333333  0.879289215686274 17.9036458333333  1.25459558823529 17.6953125  L 8.23529411764706 14.0625  L 8.23529411764706 6.25  C 8.23529411764706 5.75520833333333  8.35056678921569 5.29947916666667  8.58111213235294 4.8828125  C 8.8116574754902 4.46614583333333  9.11458333333333 4.15364583333333  9.48988970588235 3.9453125  L 16.6957720588235 0.195312499999998  C 16.9424019607843 0.0651041666666713  17.2104779411765 0  17.5 0  C 17.7895220588235 0  18.0575980392157 0.0651041666666713  18.3042279411765 0.195312499999998  L 25.5101102941176 3.9453125  C 25.8854166666667 4.15364583333333  26.1883425245098 4.46614583333333  26.4188878676471 4.8828125  C 26.6494332107843 5.29947916666667  26.7647058823529 5.75520833333333  26.7647058823529 6.25  L 26.7647058823529 14.0625  L 33.7454044117647 17.6953125  C 34.1314338235294 17.9036458333333  34.4370404411765 18.2161458333333  34.6622242647059 18.6328125  Z " fill-rule="nonzero" fill="#ffffff" stroke="none" transform="matrix(1 0 0 1 1067 163 )" />
  </g>
</svg>