<?xml version="1.0" encoding="utf-8"?>
<svg version="1.1" xmlns:xlink="http://www.w3.org/1999/xlink" width="35px" height="35px" xmlns="http://www.w3.org/2000/svg">
  <g transform="matrix(1 0 0 1 -572 -163 )">
    <path d="M 24.453125 30.791015625  C 26.6015625 29.6516927083333  28.3658854166667 28.10546875  29.74609375 26.15234375  C 29.4596354166667 24.1341145833333  28.8899739583333 22.4576822916667  28.037109375 21.123046875  C 27.1842447916667 19.7884114583333  25.9830729166667 19.0169270833333  24.43359375 18.80859375  C 23.5611979166667 19.7721354166667  22.5227864583333 20.5240885416667  21.318359375 21.064453125  C 20.1139322916667 21.6048177083333  18.8411458333333 21.875  17.5 21.875  C 16.1588541666667 21.875  14.8860677083333 21.6048177083333  13.681640625 21.064453125  C 12.4772135416667 20.5240885416667  11.4388020833333 19.7721354166667  10.56640625 18.80859375  C 9.01692708333333 19.0169270833333  7.81575520833333 19.7884114583333  6.962890625 21.123046875  C 6.11002604166667 22.4576822916667  5.54036458333333 24.1341145833333  5.25390625 26.15234375  C 6.63411458333333 28.10546875  8.3984375 29.6516927083333  10.546875 30.791015625  C 12.6953125 31.9303385416667  15.0130208333333 32.5  17.5 32.5  C 19.9869791666667 32.5  22.3046875 31.9303385416667  24.453125 30.791015625  Z M 22.802734375 17.802734375  C 24.267578125 16.337890625  25 14.5703125  25 12.5  C 25 10.4296875  24.267578125 8.662109375  22.802734375 7.197265625  C 21.337890625 5.732421875  19.5703125 5  17.5 5  C 15.4296875 5  13.662109375 5.732421875  12.197265625 7.197265625  C 10.732421875 8.662109375  10 10.4296875  10 12.5  C 10 14.5703125  10.732421875 16.337890625  12.197265625 17.802734375  C 13.662109375 19.267578125  15.4296875 20  17.5 20  C 19.5703125 20  21.337890625 19.267578125  22.802734375 17.802734375  Z M 33.61328125 10.703125  C 34.5377604166667 12.8645833333333  35 15.1302083333333  35 17.5  C 35 19.8697916666667  34.5377604166667 22.1321614583333  33.61328125 24.287109375  C 32.6888020833333 26.4420572916667  31.4485677083333 28.3040364583333  29.892578125 29.873046875  C 28.3365885416667 31.4420572916667  26.4778645833333 32.6888020833333  24.31640625 33.61328125  C 22.1549479166667 34.5377604166667  19.8828125 35  17.5 35  C 15.1302083333333 35  12.8645833333333 34.5377604166667  10.703125 33.61328125  C 8.54166666666667 32.6888020833333  6.6796875 31.4453125  5.1171875 29.8828125  C 3.5546875 28.3203125  2.31119791666667 26.4583333333333  1.38671875 24.296875  C 0.462239583333333 22.1354166666667  0 19.8697916666667  0 17.5  C 0 15.1302083333333  0.462239583333333 12.8645833333333  1.38671875 10.703125  C 2.31119791666667 8.54166666666666  3.5546875 6.6796875  5.1171875 5.1171875  C 6.6796875 3.5546875  8.54166666666667 2.31119791666667  10.703125 1.38671875  C 12.8645833333333 0.462239583333333  15.1302083333333 0  17.5 0  C 19.8697916666667 0  22.1354166666667 0.462239583333333  24.296875 1.38671875  C 26.4583333333333 2.31119791666667  28.3203125 3.5546875  29.8828125 5.1171875  C 31.4453125 6.6796875  32.6888020833333 8.54166666666666  33.61328125 10.703125  Z " fill-rule="nonzero" fill="#ffffff" stroke="none" transform="matrix(1 0 0 1 572 163 )" />
  </g>
</svg>