<?xml version="1.0" encoding="utf-8"?>
<svg version="1.1" xmlns:xlink="http://www.w3.org/1999/xlink" width="35px" height="35px" xmlns="http://www.w3.org/2000/svg">
  <g transform="matrix(1 0 0 1 -1318 -160 )">
    <path d="M 21.6243489583333 21.6243489583333  C 22.763671875 20.4850260416667  23.3333333333333 19.1102430555556  23.3333333333333 17.5  C 23.3333333333333 15.8897569444444  22.763671875 14.5149739583333  21.6243489583333 13.3756510416667  C 20.4850260416667 12.236328125  19.1102430555556 11.6666666666667  17.5 11.6666666666667  C 15.8897569444444 11.6666666666667  14.5149739583333 12.236328125  13.3756510416667 13.3756510416667  C 12.236328125 14.5149739583333  11.6666666666667 15.8897569444444  11.6666666666667 17.5  C 11.6666666666667 19.1102430555556  12.236328125 20.4850260416667  13.3756510416667 21.6243489583333  C 14.5149739583333 22.763671875  15.8897569444444 23.3333333333333  17.5 23.3333333333333  C 19.1102430555556 23.3333333333333  20.4850260416667 22.763671875  21.6243489583333 21.6243489583333  Z M 34.8177083333333 14.4807942708333  C 34.9392361111111 14.6402994791667  35 14.8187934027778  35 15.0162760416667  L 35 20.0748697916667  C 35 20.2571614583333  34.9392361111111 20.4318576388889  34.8177083333333 20.5989583333333  C 34.6961805555556 20.7660590277778  34.5442708333333 20.8648003472222  34.3619791666667 20.8951822916667  L 30.146484375 21.533203125  C 29.8578559027778 22.353515625  29.5616319444445 23.0447048611111  29.2578125 23.6067708333333  C 29.7894965277778 24.3663194444444  30.6022135416667 25.4144965277778  31.6959635416667 26.7513020833333  C 31.8478732638889 26.93359375  31.923828125 27.1234809027778  31.923828125 27.3209635416667  C 31.923828125 27.5184461805556  31.85546875 27.6931423611111  31.71875 27.8450520833333  C 31.30859375 28.4071180555556  30.556640625 29.2274305555556  29.462890625 30.3059895833333  C 28.369140625 31.3845486111111  27.6551649305556 31.923828125  27.3209635416667 31.923828125  C 27.138671875 31.923828125  26.9411892361111 31.85546875  26.728515625 31.71875  L 23.583984375 29.2578125  C 22.9155815972222 29.6072048611111  22.2243923611111 29.8958333333333  21.5104166666667 30.1236979166667  C 21.2673611111111 32.1896701388889  21.0470920138889 33.6024305555556  20.849609375 34.3619791666667  C 20.7432725694444 34.7873263888889  20.4698350694444 35  20.029296875 35  L 14.970703125 35  C 14.7580295138889 35  14.5719401041667 34.9354383680556  14.4124348958333 34.8063151041667  C 14.2529296875 34.6771918402778  14.1655815972222 34.5138888888889  14.150390625 34.31640625  L 13.5123697916667 30.1236979166667  C 12.7680121527778 29.8806423611111  12.0844184027778 29.599609375  11.4615885416667 29.2805989583333  L 8.24869791666667 31.71875  C 8.09678819444444 31.85546875  7.90690104166667 31.923828125  7.67903645833333 31.923828125  C 7.46636284722222 31.923828125  7.27647569444445 31.8402777777778  7.109375 31.6731770833333  C 5.1953125 29.94140625  3.94205729166667 28.6653645833333  3.349609375 27.8450520833333  C 3.24327256944444 27.6931423611111  3.19010416666667 27.5184461805556  3.19010416666667 27.3209635416667  C 3.19010416666667 27.138671875  3.25086805555556 26.9639756944444  3.37239583333333 26.796875  C 3.60026041666667 26.4778645833333  3.98763020833333 25.9727647569444  4.53450520833333 25.2815755208333  C 5.08138020833333 24.5903862847222  5.49153645833333 24.0549045138889  5.76497395833333 23.6751302083333  C 5.35481770833333 22.9155815972222  5.04340277777778 22.1636284722222  4.83072916666667 21.4192708333333  L 0.660807291666667 20.8040364583333  C 0.463324652777778 20.7736545138889  0.303819444444444 20.6787109375  0.182291666666667 20.5192057291667  C 0.0607638888888889 20.3597005208333  0 20.1812065972222  0 19.9837239583333  L 0 14.9251302083333  C 0 14.7428385416667  0.0607638888888889 14.5681423611111  0.182291666666667 14.4010416666667  C 0.303819444444444 14.2339409722222  0.448133680555556 14.1351996527778  0.615234375 14.1048177083333  L 4.853515625 13.466796875  C 5.06618923611111 12.7680121527778  5.36241319444444 12.0692274305556  5.7421875 11.3704427083333  C 5.13454861111111 10.5045572916667  4.32183159722222 9.45638020833333  3.30403645833333 8.22591145833333  C 3.15212673611111 8.04361979166667  3.076171875 7.861328125  3.076171875 7.67903645833333  C 3.076171875 7.52712673611111  3.14453125 7.35243055555555  3.28125 7.15494791666667  C 3.67621527777778 6.60807291666667  4.42437065972222 5.79155815972222  5.52571614583333 4.70540364583333  C 6.62706163194445 3.61924913194444  7.34483506944445 3.076171875  7.67903645833333 3.076171875  C 7.87651909722222 3.076171875  8.07400173611111 3.15212673611111  8.271484375 3.30403645833333  L 11.416015625 5.7421875  C 12.0844184027778 5.39279513888889  12.7756076388889 5.10416666666667  13.4895833333333 4.87630208333333  C 13.7326388888889 2.81032986111111  13.9529079861111 1.39756944444444  14.150390625 0.638020833333332  C 14.2567274305556 0.212673611111109  14.5301649305556 0  14.970703125 0  L 20.029296875 0  C 20.2419704861111 0  20.4280598958333 0.0645616319444414  20.5875651041667 0.193684895833332  C 20.7470703125 0.322808159722219  20.8344184027778 0.486111111111109  20.849609375 0.68359375  L 21.4876302083333 4.87630208333333  C 22.2319878472222 5.11935763888889  22.9155815972222 5.400390625  23.5384114583333 5.71940104166667  L 26.7740885416667 3.28125  C 26.9108072916667 3.14453125  27.0930989583333 3.076171875  27.3209635416667 3.076171875  C 27.5184461805556 3.076171875  27.7083333333333 3.15212673611111  27.890625 3.30403645833333  C 29.8502604166667 5.11176215277778  31.103515625 6.40299479166667  31.650390625 7.177734375  C 31.7567274305556 7.29926215277778  31.8098958333333 7.46636284722222  31.8098958333333 7.67903645833333  C 31.8098958333333 7.861328125  31.7491319444445 8.03602430555555  31.6276041666667 8.203125  C 31.3997395833333 8.52213541666667  31.0123697916667 9.02723524305555  30.4654947916667 9.71842447916667  C 29.9186197916667 10.4096137152778  29.5084635416667 10.9450954861111  29.2350260416667 11.3248697916667  C 29.6299913194445 12.0844184027778  29.94140625 12.8287760416667  30.1692708333333 13.5579427083333  L 34.3391927083333 14.1959635416667  C 34.5366753472222 14.2263454861111  34.6961805555556 14.3212890625  34.8177083333333 14.4807942708333  Z " fill-rule="nonzero" fill="#ffffff" stroke="none" transform="matrix(1 0 0 1 1318 160 )" />
  </g>
</svg>