<?xml version="1.0" encoding="utf-8"?>
<svg version="1.1" xmlns:xlink="http://www.w3.org/1999/xlink" width="36px" height="41px" xmlns="http://www.w3.org/2000/svg">
  <g transform="matrix(1 0 0 1 -79 -331 )">
    <path d="M 22.078125 25.14453125  C 23.9747596153846 22.9844751602564  24.9230769230769 20.385016025641  24.9230769230769 17.3461538461538  C 24.9230769230769 14.3072916666667  23.9747596153846 11.7078325320513  22.078125 9.54777644230769  C 20.1814903846154 7.3877203525641  17.8990384615385 6.30769230769231  15.2307692307692 6.30769230769231  C 12.5625 6.30769230769231  10.2800480769231 7.3877203525641  8.38341346153846 9.54777644230769  C 6.48677884615385 11.7078325320513  5.53846153846154 14.3072916666667  5.53846153846154 17.3461538461538  C 5.53846153846154 20.385016025641  6.48677884615385 22.9844751602564  8.38341346153846 25.14453125  C 10.2800480769231 27.3045873397436  12.5625 28.3846153846154  15.2307692307692 28.3846153846154  C 17.8990384615385 28.3846153846154  20.1814903846154 27.3045873397436  22.078125 25.14453125  Z M 35.1995192307692 35.6286057692308  C 35.7331730769231 36.2363782051282  36 36.9755608974359  36 37.8461538461538  C 36 38.7003205128205  35.7259615384615 39.4395032051282  35.1778846153846 40.0637019230769  C 34.6298076923077 40.6879006410256  33.9807692307692 41  33.2307692307692 41  C 32.4519230769231 41  31.8028846153846 40.6879006410256  31.2836538461538 40.0637019230769  L 23.8629807692308 31.6370192307692  C 21.28125 33.6738782051282  18.4038461538462 34.6923076923077  15.2307692307692 34.6923076923077  C 13.1682692307692 34.6923076923077  11.1959134615385 34.2364783653846  9.31370192307692 33.3248197115385  C 7.43149038461539 32.4131610576923  5.80889423076923 31.1811899038462  4.44591346153846 29.62890625  C 3.08293269230769 28.0766225961538  2.00120192307692 26.2286658653846  1.20072115384615 24.0850360576923  C 0.400240384615385 21.94140625  0 19.6951121794872  0 17.3461538461538  C 0 14.9971955128205  0.400240384615385 12.7509014423077  1.20072115384615 10.6072716346154  C 2.00120192307692 8.46364182692308  3.08293269230769 6.61568509615385  4.44591346153846 5.06340144230769  C 5.80889423076923 3.51111778846154  7.43149038461539 2.27914663461538  9.31370192307692 1.36748798076923  C 11.1959134615385 0.455829326923076  13.1682692307692 0  15.2307692307692 0  C 17.2932692307692 0  19.265625 0.455829326923076  21.1478365384615 1.36748798076923  C 23.0300480769231 2.27914663461538  24.6526442307692 3.51111778846154  26.015625 5.06340144230769  C 27.3786057692308 6.61568509615385  28.4603365384615 8.46364182692308  29.2608173076923 10.6072716346154  C 30.0612980769231 12.7509014423077  30.4615384615385 14.9971955128205  30.4615384615385 17.3461538461538  C 30.4615384615385 20.9599358974359  29.5673076923077 24.2369791666667  27.7788461538462 27.1772836538462  L 35.1995192307692 35.6286057692308  Z " fill-rule="nonzero" fill="#aaaaaa" stroke="none" transform="matrix(1 0 0 1 79 331 )" />
  </g>
</svg>