<?xml version="1.0" encoding="utf-8"?>
<svg version="1.1" xmlns:xlink="http://www.w3.org/1999/xlink" width="35px" height="35px" xmlns="http://www.w3.org/2000/svg">
  <g transform="matrix(1 0 0 1 -1913 -344 )">
    <path d="M 34.2138671875 20.6331380208333  C 34.3581814236111 20.7774522569444  34.4303385416667 20.9483506944444  34.4303385416667 21.1458333333333  C 34.4303385416667 21.2217881944444  34.4227430555556 21.2749565972222  34.4075520833333 21.3053385416667  C 33.4353298611111 25.3765190972222  31.3997395833333 28.6767578125  28.30078125 31.2060546875  C 25.2018229166667 33.7353515625  21.5711805555556 35  17.4088541666667 35  C 15.1909722222222 35  13.0452473958333 34.5822482638889  10.9716796875 33.7467447916667  C 8.89811197916667 32.9112413194444  7.04861111111111 31.71875  5.42317708333333 30.1692708333333  L 2.48372395833333 33.1087239583333  C 2.19509548611111 33.3973524305556  1.85329861111111 33.5416666666667  1.45833333333333 33.5416666666667  C 1.06336805555556 33.5416666666667  0.721571180555556 33.3973524305556  0.432942708333333 33.1087239583333  C 0.144314236111111 32.8200954861111  0 32.4782986111111  0 32.0833333333333  L 0 21.875  C 0 21.4800347222222  0.144314236111111 21.1382378472222  0.432942708333333 20.849609375  C 0.721571180555556 20.5609809027778  1.06336805555556 20.4166666666667  1.45833333333333 20  L 11.6666666666667 20  C 12.0616319444444 20.4166666666667  12.4034288194444 20.5609809027778  12.6920572916667 20.849609375  C 12.9806857638889 21.1382378472222  13.125 21.4800347222222  13.125 21.875  C 13.125 22.2699652777778  12.9806857638889 22.6117621527778  12.6920572916667 22.900390625  L 9.5703125 26.0221354166667  C 10.6488715277778 27.0247395833333  11.8717447916667 27.7994791666667  13.2389322916667 28.3463541666667  C 14.6061197916667 28.8932291666667  16.0264756944444 29.1666666666667  17.5 29.1666666666667  C 19.5355902777778 29.1666666666667  21.4344618055556 28.6729600694444  23.1966145833333 27.685546875  C 24.9587673611111 26.6981336805556  26.3715277777778 25.3385416666667  27.4348958333333 23.6067708333333  C 27.6019965277778 23.3485243055556  28.0045572916667 22.4598524305556  28.642578125 20.9407552083333  C 28.7641059027778 20.5913628472222  28.9919704861111 20.4166666666667  29.326171875 20.4166666666667  L 33.701171875 20.4166666666667  C 33.8986545138889 20.4166666666667  34.0695529513889 20.4888237847222  34.2138671875 20.6331380208333  Z M 34.5670572916667 1.89127604166667  C 34.8556857638889 2.17990451388889  35 2.52170138888889  35 2.91666666666667  L 35 13.125  C 35 13.5199652777778  34.8556857638889 13.8617621527778  34.5670572916667 14.150390625  C 34.2784288194445 14.4390190972222  33.9366319444445 14.5833333333333  33.5416666666667 15  L 23.3333333333333 15  C 22.9383680555556 14.5833333333333  22.5965711805556 14.4390190972222  22.3079427083333 14.150390625  C 22.0193142361111 13.8617621527778  21.875 13.5199652777778  21.875 13.125  C 21.875 12.7300347222222  22.0193142361111 12.3882378472222  22.3079427083333 12.099609375  L 25.4524739583333 8.955078125  C 23.2042100694445 6.87391493055555  20.5533854166667 5.83333333333333  17.5 5.83333333333333  C 15.4644097222222 5.83333333333333  13.5655381944444 6.32703993055555  11.8033854166667 7.314453125  C 10.0412326388889 8.30186631944444  8.62847222222222 9.66145833333333  7.56510416666667 11.3932291666667  C 7.39800347222222 11.6514756944444  6.99544270833333 12.5401475694444  6.357421875 14.0592447916667  C 6.23589409722222 14.4086371527778  6.00802951388889 14.5833333333333  5.673828125 14.5833333333333  L 1.13932291666667 14.5833333333333  C 0.941840277777778 14.5833333333333  0.770941840277778 14.5111762152778  0.626627604166667 14.3668619791667  C 0.482313368055556 14.2225477430556  0.41015625 14.0516493055556  0.41015625 13.8541666666667  L 0.41015625 13.6946614583333  C 1.39756944444444 9.62348090277778  3.44835069444444 6.3232421875  6.5625 3.7939453125  C 9.67664930555556 1.2646484375  13.3224826388889 0  17.5 0  C 19.7178819444444 0  21.875 0.421549479166668  23.9713541666667 1.2646484375  C 26.0677083333333 2.10774739583333  27.9286024305556 3.29644097222222  29.5540364583333 4.83072916666667  L 32.5162760416667 1.89127604166667  C 32.8049045138889 1.60264756944444  33.1467013888889 1.45833333333333  33.5416666666667 1.45833333333333  C 33.9366319444445 1.45833333333333  34.2784288194445 1.60264756944444  34.5670572916667 1.89127604166667  Z " fill-rule="nonzero" fill="#f7781b" stroke="none" transform="matrix(1 0 0 1 1913 344 )" />
  </g>
</svg>