<?xml version="1.0" encoding="utf-8"?>
<svg version="1.1" xmlns:xlink="http://www.w3.org/1999/xlink" width="35px" height="35px" xmlns="http://www.w3.org/2000/svg">
  <g transform="matrix(1 0 0 1 -1880 -902 )">
    <path d="M 12.5035511363636 28.9615885416667  C 12.6526988636364 28.8248697916667  12.7272727272727 28.6501736111111  13 28.4375  L 13 12.3958333333333  C 12.7272727272727 12.1831597222222  12.6526988636364 12.0084635416667  12.5035511363636 11.8717447916667  C 12.3544034090909 11.7350260416667  12.1638257575758 11.6666666666667  11.9318181818182 11.6666666666667  L 10.3409090909091 11.6666666666667  C 10.1089015151515 11.6666666666667  9.91832386363637 11.7350260416667  9.76917613636364 11.8717447916667  C 9.62002840909091 12.0084635416667  9.54545454545455 12.1831597222222  10 12.3958333333333  L 10 28.4375  C 9.54545454545455 28.6501736111111  9.62002840909091 28.8248697916667  9.76917613636364 28.9615885416667  C 9.91832386363637 29.0983072916667  10.1089015151515 29.1666666666667  10.3409090909091 29.1666666666667  L 11.9318181818182 29.1666666666667  C 12.1638257575758 29.1666666666667  12.3544034090909 29.0983072916667  12.5035511363636 28.9615885416667  Z M 18.8671875 28.9615885416667  C 19.0163352272727 28.8248697916667  19.0909090909091 28.6501736111111  19 28.4375  L 19 12.3958333333333  C 19.0909090909091 12.1831597222222  19.0163352272727 12.0084635416667  18.8671875 11.8717447916667  C 18.7180397727273 11.7350260416667  18.5274621212121 11.6666666666667  18.2954545454545 11.6666666666667  L 16.7045454545455 11.6666666666667  C 16.4725378787879 11.6666666666667  16.2819602272727 11.7350260416667  16.1328125 11.8717447916667  C 15.9836647727273 12.0084635416667  15.9090909090909 12.1831597222222  16 12.3958333333333  L 16 28.4375  C 15.9090909090909 28.6501736111111  15.9836647727273 28.8248697916667  16.1328125 28.9615885416667  C 16.2819602272727 29.0983072916667  16.4725378787879 29.1666666666667  16.7045454545455 29.1666666666667  L 18.2954545454545 29.1666666666667  C 18.5274621212121 29.1666666666667  18.7180397727273 29.0983072916667  18.8671875 28.9615885416667  Z M 25.2308238636364 28.9615885416667  C 25.3799715909091 28.8248697916667  25.4545454545455 28.6501736111111  25 28.4375  L 25 12.3958333333333  C 25.4545454545455 12.1831597222222  25.3799715909091 12.0084635416667  25.2308238636364 11.8717447916667  C 25.0816761363636 11.7350260416667  24.8910984848485 11.6666666666667  24.6590909090909 11.6666666666667  L 23.0681818181818 11.6666666666667  C 22.8361742424242 11.6666666666667  22.6455965909091 11.7350260416667  22.4964488636364 11.8717447916667  C 22.3473011363636 12.0084635416667  22.2727272727273 12.1831597222222  22 12.3958333333333  L 22 28.4375  C 22.2727272727273 28.6501736111111  22.3473011363636 28.8248697916667  22.4964488636364 28.9615885416667  C 22.6455965909091 29.0983072916667  22.8361742424242 29.1666666666667  23.0681818181818 29.1666666666667  L 24.6590909090909 29.1666666666667  C 24.8910984848485 29.1666666666667  25.0816761363636 29.0983072916667  25.2308238636364 28.9615885416667  Z M 13.1498579545455 3.16731770833333  L 11.9318181818182 6  L 23.0681818181818 6  L 21.875 3.16731770833333  C 21.7589962121212 3.03059895833333  21.618134469697 2.94704861111111  21.4524147727273 2.91666666666667  L 13.5724431818182 2.91666666666667  C 13.4067234848485 2.94704861111111  13.2658617424242 3.03059895833333  13.1498579545455 3.16731770833333  Z M 34.7762784090909 6.03841145833333  C 34.9254261363636 6.17513020833333  35 6.34982638888889  35 6.5625  L 35 8.02083333333333  C 35 8.23350694444444  34.9254261363636 8.408203125  34.7762784090909 8.544921875  C 34.6271306818182 8.681640625  34.436553030303 8.75  34.2045454545455 8.75  L 31.8181818181818 8.75  L 31.8181818181818 30.3515625  C 31.8181818181818 31.6124131944444  31.428740530303 32.7023654513889  30.6498579545455 33.6214192708333  C 29.8709753787879 34.5404730902778  28.9346590909091 35  27.8409090909091 35  L 7.15909090909091 35  C 6.06534090909091 35  5.12902462121212 34.5556640625  4.35014204545455 33.6669921875  C 3.57125946969697 32.7783203125  3.18181818181818 31.7035590277778  3.18181818181818 30.4427083333333  L 3.18181818181818 8.75  L 0.795454545454546 8.75  C 0.56344696969697 8.75  0.372869318181818 8.681640625  0.223721590909091 8.544921875  C 0.0745738636363636 8.408203125  0 8.23350694444444  0 8.02083333333333  L 0 6.5625  C 0 6.34982638888889  0.0745738636363636 6.17513020833333  0.223721590909091 6.03841145833333  C 0.372869318181818 5.90169270833333  0.56344696969697 5.83333333333333  0.795454545454546 5.83333333333333  L 8.4765625 5.83333333333333  L 10.2166193181818 2.02799479166667  C 10.4651988636364 1.46592881944444  10.9126420454545 0.987413194444441  11.5589488636364 0.592447916666668  C 12.2052556818182 0.197482638888887  12.8598484848485 0  13.5227272727273 0  L 21.4772727272727 0  C 22.1401515151515 0  22.7947443181818 0.197482638888887  23.4410511363636 0.592447916666668  C 24.0873579545455 0.987413194444441  24.5348011363636 1.46592881944444  24.7833806818182 2.02799479166667  L 26.5234375 5.83333333333333  L 34.2045454545455 5.83333333333333  C 34.436553030303 5.83333333333333  34.6271306818182 5.90169270833333  34.7762784090909 6.03841145833333  Z " fill-rule="nonzero" fill="#f7781b" stroke="none" transform="matrix(1 0 0 1 1880 902 )" />
  </g>
</svg>