<?xml version="1.0" encoding="utf-8"?>
<svg version="1.1" xmlns:xlink="http://www.w3.org/1999/xlink" width="35px" height="35px" xmlns="http://www.w3.org/2000/svg">
  <g transform="matrix(1 0 0 1 -1899 -712 )">
    <path d="M 34.1750841750842 26.1616161616162  C 34.7250280583614 26.7115600448934  35 27.3793490460157  35 28.1649831649832  C 35 28.9506172839506  34.7250280583614 29.618406285073  34.1750841750842 30.1683501683502  L 30.1683501683502 34.1750841750842  C 29.618406285073 34.7250280583614  28.9506172839506 35  28.1649831649832 35  C 27.3793490460157 35  26.7115600448934 34.7250280583614  26.1616161616162 34.1750841750842  L 17.5 25.513468013468  L 8.83838383838384 34.1750841750842  C 8.28843995510662 34.7250280583614  7.62065095398429 35  6.83501683501683 35  C 6.04938271604938 35  5.38159371492705 34.7250280583614  4.83164983164983 34.1750841750842  L 0.824915824915825 30.1683501683502  C 0.274971941638609 29.618406285073  0 28.9506172839506  0 28.1649831649832  C 0 27.3793490460157  0.274971941638609 26.7115600448934  0.824915824915825 26.1616161616162  L 9.48653198653199 17.5  L 0.824915824915825 8.83838383838384  C 0.274971941638609 8.28843995510662  0 7.62065095398429  0 6.83501683501683  C 0 6.04938271604938  0.274971941638609 5.38159371492704  0.824915824915825 4.83164983164983  L 4.83164983164983 0.824915824915825  C 5.38159371492705 0.274971941638607  6.04938271604938 0  6.83501683501683 0  C 7.62065095398429 0  8.28843995510662 0.274971941638607  8.83838383838384 0.824915824915825  L 17.5 9.48653198653199  L 26.1616161616162 0.824915824915825  C 26.7115600448934 0.274971941638607  27.3793490460157 0  28.1649831649832 0  C 28.9506172839506 0  29.618406285073 0.274971941638607  30.1683501683502 0.824915824915825  L 34.1750841750842 4.83164983164983  C 34.7250280583614 5.38159371492704  35 6.04938271604938  35 6.83501683501683  C 35 7.62065095398429  34.7250280583614 8.28843995510662  34.1750841750842 8.83838383838384  L 25.513468013468 17.5  L 34.1750841750842 26.1616161616162  Z " fill-rule="nonzero" fill="#f7781b" stroke="none" transform="matrix(1 0 0 1 1899 712 )" />
  </g>
</svg>