<?xml version="1.0" encoding="utf-8"?>
<svg version="1.1" xmlns:xlink="http://www.w3.org/1999/xlink" width="35px" height="35px" xmlns="http://www.w3.org/2000/svg">
  <g transform="matrix(1 0 0 1 -1439 -418 )">
    <path d="M 5.91419141914191 32.042904290429  L 8.38613861386139 32.042904290429  L 10.4884488448845 29.9405940594059  L 5.05940594059406 24.5115511551155  L 2.95709570957096 26.6138613861386  L 2.95709570957096 29.0858085808581  L 5.91419141914191 29.0858085808581  L 5.91419141914191 32.042904290429  Z M 20.3069306930693 10.996699669967  C 20.4147414741474 10.8888888888889  20.4686468646865 10.7579757975798  20.4686468646865 10.6039603960396  C 20.4686468646865 10.2651265126513  20.2992299229923 10.0957095709571  19.960396039604 10.0957095709571  C 19.8063806380638 10.0957095709571  19.6754675467547 10.1496149614961  19.5676567656766 10.2574257425743  L 7.04620462046205 22.7788778877888  C 6.93839383938394 22.8866886688669  6.88448844884488 23.017601760176  6.88448844884488 23.1716171617162  C 6.88448844884488 23.5104510451045  7.05390539053905 23.6798679867987  7.39273927392739 23.6798679867987  C 7.54675467546755 23.6798679867987  7.67766776677668 23.6259625962596  7.78547854785479 23.5181518151815  L 20.3069306930693 10.996699669967  Z M 0 25.3894389438944  L 19.2211221122112 6.16831683168317  L 28.8316831683168 15.7788778877888  L 9.61056105610561 35  L 0 35  L 0 25.3894389438944  Z M 34.1452145214521 6.28382838283828  C 34.7150715071507 6.88448844884489  35 7.58525852585259  35 8.38613861386139  C 35 9.2024202420242  34.7150715071507 9.89548954895489  34.1452145214521 10.4653465346535  L 30.3102310231023 14.3003300330033  L 20.6996699669967 4.68976897689769  L 24.5346534653465 0.877887788778876  C 25.0891089108911 0.292629262926289  25.7821782178218 0  26.6138613861386 0  C 27.4301430143014 0  28.1309130913091 0.292629262926289  28.7161716171617 0.877887788778876  L 34.1452145214521 6.28382838283828  Z " fill-rule="nonzero" fill="#f7781b" stroke="none" transform="matrix(1 0 0 1 1439 418 )" />
  </g>
</svg>