<?xml version="1.0" encoding="utf-8"?>
<svg version="1.1" xmlns:xlink="http://www.w3.org/1999/xlink" width="35px" height="35px" xmlns="http://www.w3.org/2000/svg">
  <g transform="matrix(1 0 0 1 -1435 -596 )">
    <path d="M 2.1875 15  L 32.8125 15  C 33.4163411458333 15  33.931884765625 15.244140625  34.359130859375 15.732421875  C 34.786376953125 16.220703125  35 16.8098958333333  35 17.5  C 35 18.1901041666667  34.786376953125 18.779296875  34.359130859375 19.267578125  C 33.931884765625 19.755859375  33.4163411458333 20  32.8125 20  L 32.55615234375 20  L 30.5908203125 32.9296875  C 30.4996744791667 33.5286458333333  30.2490234375 34.0234375  29.8388671875 34.4140625  C 29.4287109375 34.8046875  28.9615885416667 35  28.4375 35  L 6.5625 35  C 6.03841145833333 35  5.5712890625 34.8046875  5.1611328125 34.4140625  C 4.7509765625 34.0234375  4.50032552083333 33.5286458333333  4.4091796875 32.9296875  L 2.44384765625 20  L 2.1875 20  C 1.58365885416667 20  1.068115234375 19.755859375  0.640869140625 19.267578125  C 0.213623046875 18.779296875  0 18.1901041666667  0 17.5  C 0 16.8098958333333  0.213623046875 16.220703125  0.640869140625 15.732421875  C 1.068115234375 15.244140625  1.58365885416667 15  2.1875 15  Z M 8.203125 30.625  L 8.28857421875 30.625  C 8.58479817708333 30.5989583333333  8.83260091145833 30.4524739583333  9.031982421875 30.185546875  C 9.23136393229167 29.9186197916667  9.31966145833333 29.6158854166667  9.296875 29.27734375  L 8.75 21.15234375  C 8.72721354166667 20.8138020833333  8.59903971354167 20.5305989583333  8.365478515625 20.302734375  C 8.13191731770833 20.0748697916667  7.86702473958333 19.9739583333333  7.57080078125 20  C 7.27457682291667 20.0260416666667  7.02677408854167 20.1725260416667  6.827392578125 20.439453125  C 6.62801106770833 20.7063802083333  6.53971354166667 21.0091145833333  6.5625 21.34765625  L 7.109375 29.47265625  C 7.13216145833333 29.7981770833333  7.24894205729167 30.0716145833333  7.459716796875 30.29296875  C 7.67049153645833 30.5143229166667  7.91829427083333 30.625  8.203125 30.625  Z M 14.98779296875 30.25390625  C 15.2042643229167 30.0065104166667  15.3125 29.7135416666667  15.3125 29.375  L 15.3125 21.25  C 15.3125 20.9114583333333  15.2042643229167 20.6184895833333  14.98779296875 20.37109375  C 14.7713216145833 20.1236979166667  14.5149739583333 20  14.21875 20  C 13.9225260416667 20  13.6661783854167 20.1236979166667  13.44970703125 20.37109375  C 13.2332356770833 20.6184895833333  13.125 20.9114583333333  13.125 21.25  L 13.125 29.375  C 13.125 29.7135416666667  13.2332356770833 30.0065104166667  13.44970703125 30.25390625  C 13.6661783854167 30.5013020833333  13.9225260416667 30.625  14.21875 30.625  C 14.5149739583333 30.625  14.7713216145833 30.5013020833333  14.98779296875 30.25390625  Z M 21.55029296875 30.25390625  C 21.7667643229167 30.0065104166667  21.875 29.7135416666667  21.875 29.375  L 21.875 21.25  C 21.875 20.9114583333333  21.7667643229167 20.6184895833333  21.55029296875 20.37109375  C 21.3338216145833 20.1236979166667  21.0774739583333 20  20.78125 20  C 20.4850260416667 20  20.2286783854167 20.1236979166667  20.01220703125 20.37109375  C 19.7957356770833 20.6184895833333  19.6875 20.9114583333333  19.6875 21.25  L 19.6875 29.375  C 19.6875 29.7135416666667  19.7957356770833 30.0065104166667  20.01220703125 30.25390625  C 20.2286783854167 30.5013020833333  20.4850260416667 30.625  20.78125 30.625  C 21.0774739583333 30.625  21.3338216145833 30.5013020833333  21.55029296875 30.25390625  Z M 27.540283203125 30.29296875  C 27.7510579427083 30.0716145833333  27.8678385416667 29.7981770833333  27.890625 29.47265625  L 28.4375 21.34765625  C 28.4602864583333 21.0091145833333  28.3719889322917 20.7063802083333  28.172607421875 20.439453125  C 27.9732259114583 20.1725260416667  27.7254231770833 20.0260416666667  27.42919921875 20  C 27.1329752604167 19.9739583333333  26.8680826822917 20.0748697916667  26.634521484375 20.302734375  C 26.4009602864583 20.5305989583333  26.2727864583333 20.8138020833333  26.25 21.15234375  L 25.703125 29.27734375  C 25.6803385416667 29.6158854166667  25.7686360677083 29.9186197916667  25.968017578125 30.185546875  C 26.1673990885417 30.4524739583333  26.4152018229167 30.5989583333333  26.71142578125 30.625  L 26.796875 30.625  C 27.0817057291667 30.625  27.3295084635417 30.5143229166667  27.540283203125 30.29296875  Z M 8.912353515625 4.296875  C 8.519287109375 4.66145833333333  8.26009114583333 5.13020833333333  8.134765625 5.703125  L 6.54541015625 13.75  L 4.28955078125 13.75  L 6.015625 5.13671875  C 6.23209635416667 3.99088541666666  6.73909505208333 3.056640625  7.53662109375 2.333984375  C 8.33414713541667 1.611328125  9.24560546875 1.25  10.27099609375 1.25  L 13.125 1.25  C 13.125 0.911458333333332  13.2332356770833 0.618489583333329  13.44970703125 0.371093750000001  C 13.6661783854167 0.12369791666667  13.9225260416667 0  14.21875 0  L 20.78125 0  C 21.0774739583333 0  21.3338216145833 0.12369791666667  21.55029296875 0.371093750000001  C 21.7667643229167 0.618489583333329  21.875 0.911458333333332  21.875 1.25  L 24.72900390625 1.25  C 25.75439453125 1.25  26.6658528645833 1.611328125  27.46337890625 2.333984375  C 28.2609049479167 3.056640625  28.7679036458333 3.99088541666666  28.984375 5.13671875  L 30.71044921875 13.75  L 28.45458984375 13.75  L 26.865234375 5.703125  C 26.7399088541667 5.13020833333333  26.480712890625 4.66145833333333  26.087646484375 4.296875  C 25.694580078125 3.93229166666667  25.24169921875 3.75  24.72900390625 3.75  L 21.875 3.75  C 21.875 4.08854166666667  21.7667643229167 4.38151041666667  21.55029296875 4.62890625  C 21.3338216145833 4.87630208333333  21.0774739583333 5  20.78125 5  L 14.21875 5  C 13.9225260416667 5  13.6661783854167 4.87630208333333  13.44970703125 4.62890625  C 13.2332356770833 4.38151041666667  13.125 4.08854166666667  13.125 3.75  L 10.27099609375 3.75  C 9.75830078125 3.75  9.305419921875 3.93229166666667  8.912353515625 4.296875  Z " fill-rule="nonzero" fill="#f7781b" stroke="none" transform="matrix(1 0 0 1 1435 596 )" />
  </g>
</svg>