<?xml version="1.0" encoding="utf-8"?>
<svg version="1.1" xmlns:xlink="http://www.w3.org/1999/xlink" width="35px" height="20px" xmlns="http://www.w3.org/2000/svg">
  <g transform="matrix(1 0 0 1 -1903 -602 )">
    <path d="M 34.6492985971944 2.06185567010309  C 34.8830995323981 2.29095074455899  35 2.55441008018327  35 2.85223367697595  C 35 3.15005727376861  34.8830995323981 3.41351660939289  34.6492985971944 3.6426116838488  L 18.3066132264529 19.6563573883161  C 18.0728122912492 19.885452462772  17.8039412157649 20  17.5 20  C 17.1960587842351 20  16.9271877087508 19.885452462772  16.6933867735471 19.6563573883161  L 0.350701402805611 3.6426116838488  C 0.116900467601871 3.41351660939289  0 3.15005727376861  0 2.85223367697595  C 0 2.55441008018327  0.116900467601871 2.29095074455899  0.350701402805611 2.06185567010309  L 2.10420841683367 0.34364261168385  C 2.33800935203741 0.114547537227947  2.60688042752171 0  2.91082164328657 0  C 3.21476285905144 0  3.48363393453574 0.114547537227947  3.71743486973948 0.34364261168385  L 17.5 13.8487972508591  L 31.2825651302605 0.34364261168385  C 31.5163660654643 0.114547537227947  31.7852371409486 0  32.0891783567134 0  C 32.3931195724783 0  32.6619906479626 0.114547537227947  32.8957915831663 0.34364261168385  L 34.6492985971944 2.06185567010309  Z " fill-rule="nonzero" fill="#f7781b" stroke="none" transform="matrix(1 0 0 1 1903 602 )" />
  </g>
</svg>