<?xml version="1.0" encoding="utf-8"?>
<svg version="1.1" xmlns:xlink="http://www.w3.org/1999/xlink" width="35px" height="35px" xmlns="http://www.w3.org/2000/svg">
  <g transform="matrix(1 0 0 1 -74 -1840 )">
    <path d="M 12.6622596153846 29.5809659090909  C 13.1951121794872 30.2107007575758  13.4615384615385 30.9564393939394  13.4615384615385 31.8181818181818  C 13.4615384615385 32.6799242424242  13.1951121794872 33.4256628787879  12.6622596153846 34.0553977272727  C 12.1294070512821 34.6851325757576  11.4983974358974 35  10.7692307692308 35  C 10.0400641025641 35  9.40905448717949 34.6851325757576  8.87620192307692 34.0553977272727  C 8.34334935897436 33.4256628787879  8.07692307692308 32.6799242424242  8.07692307692308 31.8181818181818  C 8.07692307692308 30.9564393939394  8.34334935897436 30.2107007575758  8.87620192307692 29.5809659090909  C 9.40905448717949 28.9512310606061  10.0400641025641 28.6363636363636  10.7692307692308 28.6363636363636  C 11.4983974358974 28.6363636363636  12.1294070512821 28.9512310606061  12.6622596153846 29.5809659090909  Z M 31.5084134615385 29.5809659090909  C 32.041266025641 30.2107007575758  32.3076923076923 30.9564393939394  32.3076923076923 31.8181818181818  C 32.3076923076923 32.6799242424242  32.041266025641 33.4256628787879  31.5084134615385 34.0553977272727  C 30.9755608974359 34.6851325757576  30.3445512820513 35  29.6153846153846 35  C 28.886217948718 35  28.2552083333333 34.6851325757576  27.7223557692308 34.0553977272727  C 27.1895032051282 33.4256628787879  26.9230769230769 32.6799242424242  26.9230769230769 31.8181818181818  C 26.9230769230769 30.9564393939394  27.1895032051282 30.2107007575758  27.7223557692308 29.5809659090909  C 28.2552083333333 28.9512310606061  28.886217948718 28.6363636363636  29.6153846153846 28.6363636363636  C 30.3445512820513 28.6363636363636  30.9755608974359 28.9512310606061  31.5084134615385 29.5809659090909  Z M 34.6003605769231 3.65411931818182  C 34.8667868589744 3.96898674242424  35 4.34185606060606  35 4.77272727272727  L 35 17.5  C 35 17.8977272727273  34.8843149038462 18.2498816287879  34.6529447115385 18.5564630681818  C 34.4215745192308 18.8630445075758  34.1376201923077 19.0411931818182  33.8010817307692 19.0909090909091  L 11.8419471153846 22.1235795454545  C 12.0242387820513 23.1178977272727  12.1153846153846 23.6979166666667  12.1153846153846 23.8636363636364  C 12.1153846153846 24.1287878787879  11.9471153846154 24.6590909090909  11.6105769230769 25  L 30.9615384615385 25  C 31.3261217948718 25.4545454545455  31.6416266025641 25.6119791666667  31.9080528846154 25.9268465909091  C 32.1744791666667 26.2417140151515  32.3076923076923 26.6145833333333  32.3076923076923 27.0454545454545  C 32.3076923076923 27.4763257575758  32.1744791666667 27.8491950757576  31.9080528846154 28.1640625  C 31.6416266025641 28.4789299242424  31.3261217948718 28.6363636363636  30.9615384615385 28  L 9.42307692307692 28  C 9.05849358974359 28.6363636363636  8.74298878205128 28.4789299242424  8.4765625 28.1640625  C 8.21013621794872 27.8491950757576  8.07692307692308 27.4763257575758  8.07692307692308 27.0454545454545  C 8.07692307692308 26.8631628787879  8.13301282051282 26.6021543560606  8.24519230769231 26.2624289772727  C 8.3573717948718 25.9227035984848  8.46955128205128 25.6244081439394  8.58173076923077 25.3675426136364  C 8.69391025641026 25.1106770833333  8.84465144230769 24.7792376893939  9.03395432692308 24.3732244318182  C 9.22325721153846 23.9672111742424  9.33193108974359 23.7227746212121  9.35997596153846 23.6399147727273  L 5.63701923076923 3.18181818181818  L 1.34615384615385 3.18181818181818  C 0.981570512820513 3.18181818181818  0.666065705128205 3.02438446969697  0.399639423076923 2.70951704545455  C 0.133213141025641 2.39464962121212  0 2.0217803030303  0 1.59090909090909  C 0 1.16003787878788  0.133213141025641 0.787168560606056  0.399639423076923 0.472301136363638  C 0.666065705128205 0.157433712121209  0.981570512820513 0  1.34615384615385 0  L 6.73076923076923 0  C 6.95512820512821 0  7.15494791666667 0.0538589015151492  7.33022836538462 0.161576704545455  C 7.50550881410256 0.269294507575757  7.64222756410256 0.397727272727272  7.74038461538462 0.546875  C 7.83854166666667 0.696022727272728  7.9296875 0.899029356060601  8.01382211538462 1.15589488636364  C 8.09795673076923 1.41276041666666  8.15404647435898 1.62819602272727  8.18209134615385 1.80220170454546  C 8.21013621794872 1.97620738636364  8.24869791666667 2.22064393939394  8.29777644230769 2.53551136363636  C 8.34685496794872 2.85037878787878  8.37840544871795 3.06581439393939  8.39242788461539 3.18181818181818  L 33.6538461538462 3.18181818181818  C 34.0184294871795 3.18181818181818  34.3339342948718 3.33925189393939  34.6003605769231 3.65411931818182  Z " fill-rule="nonzero" fill="#f7781b" stroke="none" transform="matrix(1 0 0 1 74 1840 )" />
  </g>
</svg>