<?xml version="1.0" encoding="utf-8"?>
<svg version="1.1" xmlns:xlink="http://www.w3.org/1999/xlink" width="25px" height="28px" xmlns="http://www.w3.org/2000/svg">
  <g transform="matrix(1 0 0 1 -1451 -1719 )">
    <path d="M 15.33203125 17.171875  C 16.6491386217949 15.6967147435897  17.3076923076923 13.9214743589744  17.3076923076923 11.8461538461538  C 17.3076923076923 9.77083333333333  16.6491386217949 7.99559294871795  15.33203125 6.52043269230769  C 14.0149238782051 5.04527243589743  12.4298878205128 4.30769230769231  10.5769230769231 4.30769230769231  C 8.72395833333333 4.30769230769231  7.13892227564103 5.04527243589743  5.82181490384615 6.52043269230769  C 4.50470753205128 7.99559294871795  3.84615384615385 9.77083333333333  3.84615384615385 11.8461538461538  C 3.84615384615385 13.9214743589744  4.50470753205128 15.6967147435897  5.82181490384615 17.171875  C 7.13892227564103 18.6470352564103  8.72395833333333 19.3846153846154  10.5769230769231 19.3846153846154  C 12.4298878205128 19.3846153846154  14.0149238782051 18.6470352564103  15.33203125 17.171875  Z M 24.4441105769231 24.3317307692308  C 24.814703525641 24.7467948717949  25 25.2516025641026  25 25.8461538461538  C 25 26.4294871794872  24.8096955128205 26.9342948717949  24.4290865384615 27.3605769230769  C 24.0484775641026 27.786858974359  23.5977564102564 28  23.0769230769231 28  C 22.5360576923077 28  22.0853365384615 27.786858974359  21.7247596153846 27.3605769230769  L 16.5715144230769 21.6057692307692  C 14.7786458333333 22.9967948717949  12.7804487179487 23.6923076923077  10.5769230769231 23.6923076923077  C 9.14463141025641 23.6923076923077  7.77493990384615 23.3810096153846  6.46784855769231 22.7584134615385  C 5.16075721153846 22.1358173076923  4.03395432692308 21.2944711538462  3.08743990384615 20.234375  C 2.14092548076923 19.1742788461538  1.38972355769231 17.9122596153846  0.833834134615385 16.4483173076923  C 0.277944711538462 14.984375  0 13.4503205128205  0 11.8461538461538  C 0 10.2419871794872  0.277944711538462 8.70793269230769  0.833834134615385 7.24399038461538  C 1.38972355769231 5.78004807692308  2.14092548076923 4.51802884615385  3.08743990384615 3.45793269230769  C 4.03395432692308 2.39783653846154  5.16075721153846 1.55649038461538  6.46784855769231 0.933894230769232  C 7.77493990384615 0.311298076923076  9.14463141025641 0  10.5769230769231 0  C 12.0092147435897 0  13.37890625 0.311298076923076  14.6859975961538 0.933894230769232  C 15.9930889423077 1.55649038461538  17.1198918269231 2.39783653846154  18.06640625 3.45793269230769  C 19.0129206730769 4.51802884615385  19.7641225961538 5.78004807692308  20.3200120192308 7.24399038461538  C 20.8759014423077 8.70793269230769  21.1538461538462 10.2419871794872  21.1538461538462 11.8461538461538  C 21.1538461538462 14.3141025641026  20.5328525641026 16.5520833333333  19.2908653846154 18.5600961538462  L 24.4441105769231 24.3317307692308  Z " fill-rule="nonzero" fill="#aaaaaa" stroke="none" transform="matrix(1 0 0 1 1451 1719 )" />
  </g>
</svg>