<?xml version="1.0" encoding="utf-8"?>
<svg version="1.1" xmlns:xlink="http://www.w3.org/1999/xlink" width="35px" height="35px" xmlns="http://www.w3.org/2000/svg">
  <g transform="matrix(1 0 0 1 -1363 -1716 )">
    <path d="M 20.7356770833333 31.3151041666667  C 21.0091145833333 31.0807291666667  21.1458333333333 30.7465277777778  21.1458333333333 30.3125  L 21 28.8541666666667  L 21 16.6666666666667  L 21.1458333333333 11.6666666666667  L 13.8541666666667 11.6666666666667  L 14 16.6666666666667  L 14 28.8541666666667  L 13.8541666666667 30.3125  C 13.8541666666667 30.7465277777778  13.9908854166667 31.0807291666667  14.2643229166667 31.3151041666667  C 14.5377604166667 31.5494791666667  14.8871527777778 31.6666666666667  15.3125 31.6666666666667  L 19.6875 31.6666666666667  C 20.1128472222222 31.6666666666667  20.4622395833333 31.5494791666667  20.7356770833333 31.3151041666667  Z M 9.20572916666667 7.60416666666667  C 9.63107638888889 8.09027777777777  10.1475694444444 8.33333333333334  10.7552083333333 8.33333333333334  L 15.1985677083333 8.33333333333334  L 12.3274739583333 4.140625  C 11.9325086805556 3.60243055555555  11.4084201388889 3.33333333333333  10.7552083333333 3.33333333333333  C 10.1475694444444 3.33333333333333  9.63107638888889 3.57638888888889  9.20572916666667 4.0625  C 8.78038194444444 4.54861111111111  8.56770833333333 5.13888888888889  8.56770833333333 5.83333333333333  C 8.56770833333333 6.52777777777777  8.78038194444444 7.11805555555555  9.20572916666667 7.60416666666667  Z M 25.7942708333333 7.60416666666667  C 26.2196180555556 7.11805555555555  26.4322916666667 6.52777777777777  26.4322916666667 5.83333333333333  C 26.4322916666667 5.13888888888889  26.2196180555556 4.54861111111111  25.7942708333333 4.0625  C 25.3689236111111 3.57638888888889  24.8524305555556 3.33333333333333  24.2447916666667 3.33333333333333  C 23.5915798611111 3.33333333333333  23.0674913194444 3.60243055555555  22.6725260416667 4.140625  L 19.82421875 8.33333333333334  L 24.2447916666667 8.33333333333334  C 24.8524305555556 8.33333333333334  25.3689236111111 8.09027777777777  25.7942708333333 7.60416666666667  Z M 34.794921875 11.9010416666667  C 34.931640625 12.0572916666667  35 12.2569444444444  35 12.5  L 35 20.8333333333333  C 35 21.0763888888889  34.931640625 21.2760416666667  34.794921875 21.4322916666667  C 34.658203125 21.5885416666667  34.4835069444445 21.6666666666667  34.2708333333333 21.6666666666667  L 32 21.6666666666667  L 32 32.5  C 32.0833333333333 33.1944444444445  31.8706597222222 33.7847222222222  31.4453125 34.2708333333333  C 31.0199652777778 34.7569444444444  30.5034722222222 35  29.8958333333333 35  L 5.10416666666667 35  C 4.49652777777778 35  3.98003472222222 34.7569444444444  3.5546875 34.2708333333333  C 3.12934027777778 33.7847222222222  2.91666666666667 33.1944444444445  3 32.5  L 3 21.6666666666667  L 0.729166666666667 21.6666666666667  C 0.516493055555556 21.6666666666667  0.341796875 21.5885416666667  0.205078125 21.4322916666667  C 0.068359375 21.2760416666667  0 21.0763888888889  0 20.8333333333333  L 0 12.5  C 0 12.2569444444444  0.068359375 12.0572916666667  0.205078125 11.9010416666667  C 0.341796875 11.7447916666667  0.516493055555556 11.6666666666667  0.729166666666667 12  L 10.7552083333333 12  C 9.34244791666667 11.6666666666667  8.13856336805556 11.0980902777778  7.1435546875 9.9609375  C 6.14854600694445 8.82378472222222  5.65104166666667 7.44791666666667  5.65104166666667 5.83333333333333  C 5.65104166666667 4.21875  6.14854600694445 2.84288194444444  7.1435546875 1.70572916666667  C 8.13856336805556 0.568576388888888  9.34244791666667 0  10.7552083333333 0  C 12.3806423611111 0  13.6566840277778 0.668402777777773  14.5833333333333 2.00520833333333  L 17.5 6.30208333333333  L 20.4166666666667 2.00520833333333  C 21.3433159722222 0.668402777777773  22.6193576388889 0  24.2447916666667 0  C 25.6575520833333 0  26.8614366319445 0.568576388888888  27.8564453125 1.70572916666667  C 28.8514539930556 2.84288194444444  29.3489583333333 4.21875  29.3489583333333 5.83333333333333  C 29.3489583333333 7.44791666666667  28.8514539930556 8.82378472222222  27.8564453125 9.9609375  C 26.8614366319445 11.0980902777778  25.6575520833333 11.6666666666667  24.2447916666667 12  L 34.2708333333333 12  C 34.4835069444445 11.6666666666667  34.658203125 11.7447916666667  34.794921875 11.9010416666667  Z " fill-rule="nonzero" fill="#f7781b" stroke="none" transform="matrix(1 0 0 1 1363 1716 )" />
  </g>
</svg>