<?xml version="1.0" encoding="utf-8"?>
<svg version="1.1" xmlns:xlink="http://www.w3.org/1999/xlink" width="33px" height="33px" xmlns="http://www.w3.org/2000/svg">
  <g transform="matrix(1 0 0 1 -302 -999 )">
    <path d="M 25.716796875 18.841796875  C 25.9889322916667 18.5696614583333  26.125 18.2473958333333  26.125 17.875  L 26.125 15.125  C 26.125 14.7526041666667  25.9889322916667 14.4303385416667  25.716796875 14.158203125  C 25.4446614583333 13.8860677083333  25.1223958333333 13.75  24.75 13.75  L 19.25 13.75  L 19.25 8.25  C 19.25 7.87760416666666  19.1139322916667 7.55533854166666  18.841796875 7.283203125  C 18.5696614583333 7.01106770833333  18.2473958333333 6.875  17.875 6.875  L 15.125 6.875  C 14.7526041666667 6.875  14.4303385416667 7.01106770833333  14.158203125 7.283203125  C 13.8860677083333 7.55533854166666  13.75 7.87760416666666  13.75 8.25  L 13.75 13.75  L 8.25 13.75  C 7.87760416666667 13.75  7.55533854166667 13.8860677083333  7.283203125 14.158203125  C 7.01106770833333 14.4303385416667  6.875 14.7526041666667  6.875 15.125  L 6.875 17.875  C 6.875 18.2473958333333  7.01106770833333 18.5696614583333  7.283203125 18.841796875  C 7.55533854166667 19.1139322916667  7.87760416666667 19.25  8.25 19.25  L 13.75 19.25  L 13.75 24.75  C 13.75 25.1223958333333  13.8860677083333 25.4446614583333  14.158203125 25.716796875  C 14.4303385416667 25.9889322916667  14.7526041666667 26.125  15.125 26.125  L 17.875 26.125  C 18.2473958333333 26.125  18.5696614583333 25.9889322916667  18.841796875 25.716796875  C 19.1139322916667 25.4446614583333  19.25 25.1223958333333  19.25 24.75  L 19.25 19.25  L 24.75 19.25  C 25.1223958333333 19.25  25.4446614583333 19.1139322916667  25.716796875 18.841796875  Z M 30.787109375 8.2177734375  C 32.2623697916667 10.7457682291667  33 13.5065104166667  33 16.5  C 33 19.4934895833333  32.2623697916667 22.2542317708333  30.787109375 24.7822265625  C 29.3118489583333 27.3102213541667  27.3102213541667 29.3118489583333  24.7822265625 30.787109375  C 22.2542317708333 32.2623697916667  19.4934895833333 33  16.5 33  C 13.5065104166667 33  10.7457682291667 32.2623697916667  8.2177734375 30.787109375  C 5.68977864583333 29.3118489583333  3.68815104166667 27.3102213541667  2.212890625 24.7822265625  C 0.737630208333333 22.2542317708333  0 19.4934895833333  0 16.5  C 0 13.5065104166667  0.737630208333333 10.7457682291667  2.212890625 8.2177734375  C 3.68815104166667 5.68977864583333  5.68977864583333 3.68815104166666  8.2177734375 2.212890625  C 10.7457682291667 0.73763020833333  13.5065104166667 0  16.5 0  C 19.4934895833333 0  22.2542317708333 0.73763020833333  24.7822265625 2.212890625  C 27.3102213541667 3.68815104166666  29.3118489583333 5.68977864583333  30.787109375 8.2177734375  Z " fill-rule="nonzero" fill="#ffffff" stroke="none" transform="matrix(1 0 0 1 302 999 )" />
  </g>
</svg>