<?xml version="1.0" encoding="utf-8"?>
<svg version="1.1" xmlns:xlink="http://www.w3.org/1999/xlink" width="32px" height="33px" xmlns="http://www.w3.org/2000/svg">
  <g transform="matrix(1 0 0 1 -486 -891 )">
    <path d="M 26.2708333333333 18.841796875  C 26.5347222222222 18.5696614583333  26.6666666666667 18.2473958333333  26.6666666666667 17.875  L 26.6666666666667 15.125  C 26.6666666666667 14.7526041666667  26.5347222222222 14.4303385416667  26.2708333333333 14.158203125  C 26.0069444444444 13.8860677083333  25.6944444444444 13.75  25.3333333333333 13.75  L 18.6666666666667 13.75  L 18.6666666666667 6.875  C 18.6666666666667 6.50260416666666  18.5347222222222 6.18033854166666  18.2708333333333 5.908203125  C 18.0069444444444 5.63606770833333  17.6944444444444 5.5  17.3333333333333 5.5  L 14.6666666666667 5.5  C 14.3055555555556 5.5  13.9930555555556 5.63606770833333  13.7291666666667 5.908203125  C 13.4652777777778 6.18033854166666  13.3333333333333 6.50260416666666  13.3333333333333 6.875  L 13.3333333333333 13.75  L 6.66666666666667 13.75  C 6.30555555555556 13.75  5.99305555555556 13.8860677083333  5.72916666666667 14.158203125  C 5.46527777777778 14.4303385416667  5.33333333333333 14.7526041666667  5.33333333333333 15.125  L 5.33333333333333 17.875  C 5.33333333333333 18.2473958333333  5.46527777777778 18.5696614583333  5.72916666666667 18.841796875  C 5.99305555555556 19.1139322916667  6.30555555555556 19.25  6.66666666666667 19.25  L 13.3333333333333 19.25  L 13.3333333333333 26.125  C 13.3333333333333 26.4973958333333  13.4652777777778 26.8196614583333  13.7291666666667 27.091796875  C 13.9930555555556 27.3639322916667  14.3055555555556 27.5  14.6666666666667 27.5  L 17.3333333333333 27.5  C 17.6944444444444 27.5  18.0069444444444 27.3639322916667  18.2708333333333 27.091796875  C 18.5347222222222 26.8196614583333  18.6666666666667 26.4973958333333  18.6666666666667 26.125  L 18.6666666666667 19.25  L 25.3333333333333 19.25  C 25.6944444444444 19.25  26.0069444444444 19.1139322916667  26.2708333333333 18.841796875  Z M 30.2395833333333 1.8154296875  C 31.4131944444444 3.02571614583333  32 4.48307291666666  32 6.1875  L 32 26.8125  C 32 28.5169270833333  31.4131944444444 29.9742838541667  30.2395833333333 31.1845703125  C 29.0659722222222 32.3948567708333  27.6527777777778 33  26 33  L 6 33  C 4.34722222222222 33  2.93402777777778 32.3948567708333  1.76041666666667 31.1845703125  C 0.586805555555555 29.9742838541667  0 28.5169270833333  0 26.8125  L 0 6.1875  C 0 4.48307291666666  0.586805555555555 3.02571614583333  1.76041666666667 1.8154296875  C 2.93402777777778 0.605143229166665  4.34722222222222 0  6 0  L 26 0  C 27.6527777777778 0  29.0659722222222 0.605143229166665  30.2395833333333 1.8154296875  Z " fill-rule="nonzero" fill="#ffffff" stroke="none" transform="matrix(1 0 0 1 486 891 )" />
  </g>
</svg>