<?xml version="1.0" encoding="utf-8"?>
<svg version="1.1" xmlns:xlink="http://www.w3.org/1999/xlink" width="54px" height="50px" xmlns="http://www.w3.org/2000/svg">
  <g transform="matrix(1 0 0 1 -1203 -2151 )">
    <path d="M 38.91796875 30.2083333333333  C 38.91796875 30.4904513888889  38.80078125 30.7400173611111  38.56640625 30.95703125  L 33.43359375 35.7096354166667  C 33.19921875 35.9266493055556  32.9296875 36.03515625  32.625 36.03515625  C 32.3203125 36.03515625  32.05078125 35.9266493055556  31.81640625 35.7096354166667  L 27 31.25  L 22.18359375 35.7096354166667  C 21.94921875 35.9266493055556  21.6796875 36.03515625  21.375 36.03515625  C 21.0703125 36.03515625  20.80078125 35.9266493055556  20.56640625 35.7096354166667  L 15.43359375 30.95703125  C 15.19921875 30.7400173611111  15.08203125 30.4904513888889  15.08203125 30.2083333333333  C 15.08203125 29.9262152777778  15.19921875 29.6766493055556  15.43359375 29.4596354166667  L 20.25 25  L 15.43359375 20.5403645833333  C 15.19921875 20.3233506944444  15.08203125 20.0737847222222  15.08203125 19.7916666666667  C 15.08203125 19.5095486111111  15.19921875 19.2599826388889  15.43359375 19.04296875  L 20.56640625 14.2903645833333  C 20.80078125 14.0733506944444  21.0703125 13.96484375  21.375 13.96484375  C 21.6796875 13.96484375  21.94921875 14.0733506944444  22.18359375 14.2903645833333  L 27 18.75  L 31.81640625 14.2903645833333  C 32.05078125 14.0733506944444  32.3203125 13.96484375  32.625 13.96484375  C 32.9296875 13.96484375  33.19921875 14.0733506944444  33.43359375 14.2903645833333  L 38.56640625 19.04296875  C 38.80078125 19.2599826388889  38.91796875 19.5095486111111  38.91796875 19.7916666666667  C 38.91796875 20.0737847222222  38.80078125 20.3233506944444  38.56640625 20.5403645833333  L 33.75 25  L 38.56640625 29.4596354166667  C 38.80078125 29.6766493055556  38.91796875 29.9262152777778  38.91796875 30.2083333333333  Z M 43.55859375 33.88671875  C 45.26953125 31.1740451388889  46.125 28.2118055555556  46.125 25  C 46.125 21.7881944444444  45.26953125 18.8259548611111  43.55859375 16.11328125  C 41.84765625 13.4006076388889  39.52734375 11.2521701388889  36.59765625 9.66796875  C 33.66796875 8.08376736111111  30.46875 7.29166666666667  27 7.29166666666667  C 23.53125 7.29166666666667  20.33203125 8.08376736111111  17.40234375 9.66796875  C 14.47265625 11.2521701388889  12.15234375 13.4006076388889  10.44140625 16.11328125  C 8.73046875 18.8259548611111  7.875 21.7881944444444  7.875 25  C 7.875 28.2118055555556  8.73046875 31.1740451388889  10.44140625 33.88671875  C 12.15234375 36.5993923611111  14.47265625 38.7478298611111  17.40234375 40.33203125  C 20.33203125 41.9162326388889  23.53125 42.7083333333333  27 42.7083333333333  C 30.46875 42.7083333333333  33.66796875 41.9162326388889  36.59765625 40.33203125  C 39.52734375 38.7478298611111  41.84765625 36.5993923611111  43.55859375 33.88671875  Z M 50.37890625 12.451171875  C 52.79296875 16.2814670138889  54 20.4644097222222  54 25  C 54 29.5355902777778  52.79296875 33.7185329861111  50.37890625 37.548828125  C 47.96484375 41.3791232638889  44.689453125 44.4118923611111  40.552734375 46.6471354166667  C 36.416015625 48.8823784722222  31.8984375 50  27 50  C 22.1015625 50  17.583984375 48.8823784722222  13.447265625 46.6471354166667  C 9.310546875 44.4118923611111  6.03515625 41.3791232638889  3.62109375 37.548828125  C 1.20703125 33.7185329861111  0 29.5355902777778  0 25  C 0 20.4644097222222  1.20703125 16.2814670138889  3.62109375 12.451171875  C 6.03515625 8.62087673611111  9.310546875 5.58810763888888  13.447265625 3.35286458333333  C 17.583984375 1.11762152777777  22.1015625 0  27 0  C 31.8984375 0  36.416015625 1.11762152777777  40.552734375 3.35286458333333  C 44.689453125 5.58810763888888  47.96484375 8.62087673611111  50.37890625 12.451171875  Z " fill-rule="nonzero" fill="#000000" stroke="none" transform="matrix(1 0 0 1 1203 2151 )" />
  </g>
</svg>