<?xml version="1.0" encoding="utf-8"?>
<svg version="1.1" xmlns:xlink="http://www.w3.org/1999/xlink" width="46px" height="50px" xmlns="http://www.w3.org/2000/svg">
  <g transform="matrix(1 0 0 1 -1878 -2216 )">
    <path d="M 33.15234375 30.2083333333333  C 33.15234375 30.4904513888889  33.0525173611111 30.7400173611111  32.8528645833333 30.95703125  L 28.48046875 35.7096354166667  C 28.2808159722222 35.9266493055556  28.0512152777778 36.03515625  27.7916666666667 36.03515625  C 27.5321180555556 36.03515625  27.3025173611111 35.9266493055556  27.1028645833333 35.7096354166667  L 23 31.25  L 18.8971354166667 35.7096354166667  C 18.6974826388889 35.9266493055556  18.4678819444444 36.03515625  18.2083333333333 36.03515625  C 17.9487847222222 36.03515625  17.7191840277778 35.9266493055556  17.51953125 35.7096354166667  L 13.1471354166667 30.95703125  C 12.9474826388889 30.7400173611111  12.84765625 30.4904513888889  12.84765625 30.2083333333333  C 12.84765625 29.9262152777778  12.9474826388889 29.6766493055556  13.1471354166667 29.4596354166667  L 17.25 25  L 13.1471354166667 20.5403645833333  C 12.9474826388889 20.3233506944444  12.84765625 20.0737847222222  12.84765625 19.7916666666667  C 12.84765625 19.5095486111111  12.9474826388889 19.2599826388889  13.1471354166667 19.04296875  L 17.51953125 14.2903645833333  C 17.7191840277778 14.0733506944444  17.9487847222222 13.96484375  18.2083333333333 13.96484375  C 18.4678819444444 13.96484375  18.6974826388889 14.0733506944444  18.8971354166667 14.2903645833333  L 23 18.75  L 27.1028645833333 14.2903645833333  C 27.3025173611111 14.0733506944444  27.5321180555556 13.96484375  27.7916666666667 13.96484375  C 28.0512152777778 13.96484375  28.2808159722222 14.0733506944444  28.48046875 14.2903645833333  L 32.8528645833333 19.04296875  C 33.0525173611111 19.2599826388889  33.15234375 19.5095486111111  33.15234375 19.7916666666667  C 33.15234375 20.0737847222222  33.0525173611111 20.3233506944444  32.8528645833333 20.5403645833333  L 28.75 25  L 32.8528645833333 29.4596354166667  C 33.0525173611111 29.6766493055556  33.15234375 29.9262152777778  33.15234375 30.2083333333333  Z M 37.10546875 33.88671875  C 38.5629340277778 31.1740451388889  39.2916666666667 28.2118055555556  39.2916666666667 25  C 39.2916666666667 21.7881944444444  38.5629340277778 18.8259548611111  37.10546875 16.11328125  C 35.6480034722222 13.4006076388889  33.6714409722222 11.2521701388889  31.17578125 9.66796875  C 28.6801215277778 8.08376736111111  25.9548611111111 7.29166666666667  23 7.29166666666667  C 20.0451388888889 7.29166666666667  17.3198784722222 8.08376736111111  14.82421875 9.66796875  C 12.3285590277778 11.2521701388889  10.3519965277778 13.4006076388889  8.89453125 16.11328125  C 7.43706597222222 18.8259548611111  6.70833333333333 21.7881944444444  6.70833333333333 25  C 6.70833333333333 28.2118055555556  7.43706597222222 31.1740451388889  8.89453125 33.88671875  C 10.3519965277778 36.5993923611111  12.3285590277778 38.7478298611111  14.82421875 40.33203125  C 17.3198784722222 41.9162326388889  20.0451388888889 42.7083333333333  23 42.7083333333333  C 25.9548611111111 42.7083333333333  28.6801215277778 41.9162326388889  31.17578125 40.33203125  C 33.6714409722222 38.7478298611111  35.6480034722222 36.5993923611111  37.10546875 33.88671875  Z M 42.9153645833333 12.451171875  C 44.9717881944444 16.2814670138889  46 20.4644097222222  46 25  C 46 29.5355902777778  44.9717881944444 33.7185329861111  42.9153645833333 37.548828125  C 40.8589409722222 41.3791232638889  38.0687934027778 44.4118923611111  34.544921875 46.6471354166667  C 31.0210503472222 48.8823784722222  27.1727430555556 50  23 50  C 18.8272569444444 50  14.9789496527778 48.8823784722222  11.455078125 46.6471354166667  C 7.93120659722222 44.4118923611111  5.14105902777778 41.3791232638889  3.08463541666667 37.548828125  C 1.02821180555556 33.7185329861111  0 29.5355902777778  0 25  C 0 20.4644097222222  1.02821180555556 16.2814670138889  3.08463541666667 12.451171875  C 5.14105902777778 8.62087673611111  7.93120659722222 5.58810763888888  11.455078125 3.35286458333333  C 14.9789496527778 1.11762152777777  18.8272569444444 0  23 0  C 27.1727430555556 0  31.0210503472222 1.11762152777777  34.544921875 3.35286458333333  C 38.0687934027778 5.58810763888888  40.8589409722222 8.62087673611111  42.9153645833333 12.451171875  Z " fill-rule="nonzero" fill="#000000" stroke="none" transform="matrix(1 0 0 1 1878 2216 )" />
  </g>
</svg>