<?xml version="1.0" encoding="utf-8"?>
<svg version="1.1" xmlns:xlink="http://www.w3.org/1999/xlink" width="56px" height="62px" xmlns="http://www.w3.org/2000/svg">
  <g transform="matrix(1 0 0 1 -1313 -321 )">
    <path d="M 2 0  L 2 62  L 0 62  L 0 0  L 2 0  Z M 4 0  L 4 61.9559659090909  L 3 61.9559659090909  L 3 0  L 4 0  Z M 7 0  L 7 61.9559659090909  L 6 61.9559659090909  L 6 0  L 7 0  Z M 12 0  L 12 61.9559659090909  L 11 61.9559659090909  L 11 0  L 12 0  Z M 17 0  L 17 61.9559659090909  L 15 61.9559659090909  L 15 0  L 17 0  Z M 21 0  L 21 61.9559659090909  L 20 61.9559659090909  L 20 0  L 21 0  Z M 23 0  L 23 61.9559659090909  L 22 61.9559659090909  L 22 0  L 23 0  Z M 25 0  L 25 61.9559659090909  L 24 61.9559659090909  L 24 0  L 25 0  Z M 29 0  L 29 61.9559659090909  L 28 61.9559659090909  L 28 0  L 29 0  Z M 34 0  L 34 61.9559659090909  L 32 61.9559659090909  L 32 0  L 34 0  Z M 38 0  L 38 61.9559659090909  L 36 61.9559659090909  L 36 0  L 38 0  Z M 42 0  L 42 61.9559659090909  L 40 61.9559659090909  L 40 0  L 42 0  Z M 45 0  L 45 61.9559659090909  L 43 61.9559659090909  L 43 0  L 45 0  Z M 51 0  L 51 61.9559659090909  L 48 61.9559659090909  L 48 0  L 51 0  Z M 53 0  L 53 61.9559659090909  L 52 61.9559659090909  L 52 0  L 53 0  Z M 56 0  L 56 62  L 54 62  L 54 0  L 56 0  Z " fill-rule="nonzero" fill="#000000" stroke="none" transform="matrix(1 0 0 1 1313 321 )" />
  </g>
</svg>