<?xml version="1.0" encoding="utf-8"?>
<svg version="1.1" xmlns:xlink="http://www.w3.org/1999/xlink" width="61px" height="70px" xmlns="http://www.w3.org/2000/svg">
  <g transform="matrix(1 0 0 1 -1168 -1592 )">
    <path d="M 43.962890625 42.2916666666667  C 43.962890625 42.6866319444444  43.8305121527778 43.0360243055556  43.5657552083333 43.33984375  L 37.767578125 49.9934895833333  C 37.5028211805556 50.2973090277778  37.1983506944444 50.44921875  36.8541666666667 50.44921875  C 36.5099826388889 50.44921875  36.2055121527778 50.2973090277778  35.9407552083333 49.9934895833333  L 30.5 43.75  L 25.0592447916667 49.9934895833333  C 24.7944878472222 50.2973090277778  24.4900173611111 50.44921875  24.1458333333333 50.44921875  C 23.8016493055556 50.44921875  23.4971788194445 50.2973090277778  23.232421875 49.9934895833333  L 17.4342447916667 43.33984375  C 17.1694878472222 43.0360243055556  17.037109375 42.6866319444444  17.037109375 42.2916666666667  C 17.037109375 41.8967013888889  17.1694878472222 41.5473090277778  17.4342447916667 41.2434895833333  L 22.875 35  L 17.4342447916667 28.7565104166667  C 17.1694878472222 28.4526909722222  17.037109375 28.1032986111111  17.037109375 27.7083333333333  C 17.037109375 27.3133680555556  17.1694878472222 26.9639756944444  17.4342447916667 26.66015625  L 23.232421875 20.0065104166667  C 23.4971788194445 19.7026909722222  23.8016493055556 19.55078125  24.1458333333333 19.55078125  C 24.4900173611111 19.55078125  24.7944878472222 19.7026909722222  25.0592447916667 20.0065104166667  L 30.5 26.25  L 35.9407552083333 20.0065104166667  C 36.2055121527778 19.7026909722222  36.5099826388889 19.55078125  36.8541666666667 19.55078125  C 37.1983506944444 19.55078125  37.5028211805556 19.7026909722222  37.767578125 20.0065104166667  L 43.5657552083333 26.66015625  C 43.8305121527778 26.9639756944444  43.962890625 27.3133680555556  43.962890625 27.7083333333333  C 43.962890625 28.1032986111111  43.8305121527778 28.4526909722222  43.5657552083333 28.7565104166667  L 38.125 35  L 43.5657552083333 41.2434895833333  C 43.8305121527778 41.5473090277778  43.962890625 41.8967013888889  43.962890625 42.2916666666667  Z M 49.205078125 47.44140625  C 51.1378038194444 43.6436631944444  52.1041666666667 39.4965277777778  52.1041666666667 35  C 52.1041666666667 30.5034722222222  51.1378038194444 26.3563368055556  49.205078125 22.55859375  C 47.2723524305556 18.7608506944444  44.6512586805556 15.7530381944444  41.341796875 13.53515625  C 38.0323350694444 11.3172743055556  34.4184027777778 10.2083333333333  30.5 10.2083333333333  C 26.5815972222222 10.2083333333333  22.9676649305556 11.3172743055556  19.658203125 13.53515625  C 16.3487413194444 15.7530381944444  13.7276475694444 18.7608506944444  11.794921875 22.55859375  C 9.86219618055556 26.3563368055556  8.89583333333333 30.5034722222222  8.89583333333333 35  C 8.89583333333333 39.4965277777778  9.86219618055556 43.6436631944444  11.794921875 47.44140625  C 13.7276475694444 51.2391493055556  16.3487413194444 54.2469618055556  19.658203125 56.46484375  C 22.9676649305556 58.6827256944444  26.5815972222222 59.7916666666667  30.5 59.7916666666667  C 34.4184027777778 59.7916666666667  38.0323350694444 58.6827256944444  41.341796875 56.46484375  C 44.6512586805556 54.2469618055556  47.2723524305556 51.2391493055556  49.205078125 47.44140625  Z M 56.9095052083333 17.431640625  C 59.6365017361111 22.7940538194444  61 28.6501736111111  61 35  C 61 41.3498263888889  59.6365017361111 47.2059461805556  56.9095052083333 52.568359375  C 54.1825086805556 57.9307725694444  50.4825303819444 62.1766493055556  45.8095703125 65.3059895833333  C 41.1366102430556 68.4353298611111  36.0334201388889 70  30.5 70  C 24.9665798611111 70  19.8633897569444 68.4353298611111  15.1904296875 65.3059895833333  C 10.5174696180556 62.1766493055556  6.81749131944445 57.9307725694444  4.09049479166667 52.568359375  C 1.36349826388889 47.2059461805556  0 41.3498263888889  0 35  C 0 28.6501736111111  1.36349826388889 22.7940538194444  4.09049479166667 17.431640625  C 6.81749131944445 12.0692274305556  10.5174696180556 7.82335069444444  15.1904296875 4.69401041666666  C 19.8633897569444 1.56467013888888  24.9665798611111 0  30.5 0  C 36.0334201388889 0  41.1366102430556 1.56467013888888  45.8095703125 4.69401041666666  C 50.4825303819444 7.82335069444444  54.1825086805556 12.0692274305556  56.9095052083333 17.431640625  Z " fill-rule="nonzero" fill="#000000" stroke="none" transform="matrix(1 0 0 1 1168 1592 )" />
  </g>
</svg>