<?xml version="1.0" encoding="utf-8"?>
<svg version="1.1" xmlns:xlink="http://www.w3.org/1999/xlink" width="41px" height="45px" xmlns="http://www.w3.org/2000/svg">
  <g transform="matrix(1 0 0 1 -1062 -1800 )">
    <path d="M 40.1846590909091 17.2585227272727  C 40.7282196969697 17.8551136363636  41 18.5795454545455  41 19.4318181818182  L 41 25.5681818181818  C 41 26.4204545454545  40.7282196969697 27.1448863636364  40.1846590909091 27.7414772727273  C 39.6410984848485 28.3380681818182  38.9810606060606 28.6363636363636  38.2045454545455 28  L 26 28  L 26 41.9318181818182  C 26.0909090909091 42.7840909090909  25.8191287878788 43.5085227272727  25.2755681818182 44.1051136363636  C 24.7320075757576 44.7017045454545  24.0719696969697 45  23.2954545454545 45  L 17.7045454545455 45  C 16.9280303030303 45  16.2679924242424 44.7017045454545  15.7244318181818 44.1051136363636  C 15.1808712121212 43.5085227272727  14.9090909090909 42.7840909090909  15 41.9318181818182  L 15 28  L 2.79545454545455 28  C 2.01893939393939 28.6363636363636  1.35890151515152 28.3380681818182  0.815340909090909 27.7414772727273  C 0.271780303030303 27.1448863636364  0 26.4204545454545  0 25.5681818181818  L 0 19.4318181818182  C 0 18.5795454545455  0.271780303030303 17.8551136363636  0.815340909090909 17.2585227272727  C 1.35890151515152 16.6619318181818  2.01893939393939 16.3636363636364  2.79545454545455 17  L 15 17  L 15 3.06818181818182  C 14.9090909090909 2.21590909090909  15.1808712121212 1.49147727272727  15.7244318181818 0.894886363636364  C 16.2679924242424 0.298295454545453  16.9280303030303 0  17.7045454545455 0  L 23.2954545454545 0  C 24.0719696969697 0  24.7320075757576 0.298295454545453  25.2755681818182 0.894886363636364  C 25.8191287878788 1.49147727272727  26.0909090909091 2.21590909090909  26 3.06818181818182  L 26 17  L 38.2045454545455 17  C 38.9810606060606 16.3636363636364  39.6410984848485 16.6619318181818  40.1846590909091 17.2585227272727  Z " fill-rule="nonzero" fill="#000000" stroke="none" transform="matrix(1 0 0 1 1062 1800 )" />
  </g>
</svg>