<?xml version="1.0" encoding="utf-8"?>
<svg version="1.1" xmlns:xlink="http://www.w3.org/1999/xlink" width="46px" height="28px" xmlns="http://www.w3.org/2000/svg">
  <g transform="matrix(1 0 0 1 -976 -1817 )">
    <path d="M 45.146484375 0.923611111111112  C 45.7154947916667 1.53935185185185  46 2.26851851851851  46 3.11111111111111  C 46 3.9537037037037  45.7154947916667 4.68287037037037  45.146484375 5.29861111111111  L 25.021484375 27.0763888888889  C 24.4524739583333 27.6921296296296  23.7786458333333 28  23 28  C 22.2213541666667 28  21.5475260416667 27.6921296296296  20.978515625 27.0763888888889  L 0.853515625 5.29861111111111  C 0.284505208333333 4.68287037037037  0 3.9537037037037  0 3.11111111111111  C 0 2.26851851851851  0.284505208333333 1.53935185185185  0.853515625 0.923611111111112  C 1.42252604166667 0.307870370370367  2.09635416666667 0  2.875 0  L 43.125 0  C 43.9036458333333 0  44.5774739583333 0.307870370370367  45.146484375 0.923611111111112  Z " fill-rule="nonzero" fill="#000000" stroke="none" transform="matrix(1 0 0 1 976 1817 )" />
  </g>
</svg>