<?xml version="1.0" encoding="utf-8"?>
<svg version="1.1" xmlns:xlink="http://www.w3.org/1999/xlink" width="71px" height="55px" xmlns="http://www.w3.org/2000/svg">
  <g transform="matrix(1 0 0 1 -1131 -1800 )">
    <path d="M 33.1121076233184 41.25  L 35.3408071748879 41.25  L 39.957399103139 36.71875  L 33.9080717488789 30.78125  L 29.2914798206278 35.3125  L 29.2914798206278 37.5  L 33.1121076233184 37.5  L 33.1121076233184 41.25  Z M 52.8122197309417 14.4140625  C 53.2632660687594 13.9713541666667  53.2765321375187 13.5416666666667  52.8520179372197 13.125  C 52.4275037369208 12.7083333333333  51.9897234678625 12.7213541666667  51.5386771300448 13.1640625  L 37.6093049327354 26.8359375  C 37.1582585949178 27.2786458333333  37.1449925261584 27.7083333333333  37.5695067264574 28.125  C 37.9940209267564 28.5416666666667  38.4318011958147 28.5286458333333  38.8828475336323 28.0859375  L 52.8122197309417 14.4140625  Z M 55.2399103139013 35.1953125  C 55.770553064275 35.4036458333333  56.0358744394619 35.78125  56.0358744394619 36.328125  L 56.0358744394619 43.75  C 56.0358744394619 46.8489583333333  54.9148916292975 49.4986979166667  52.6729260089686 51.69921875  C 50.4309603886398 53.8997395833333  47.7313153961136 55  44.5739910313901 55  L 11.4618834080717 55  C 8.30455904334828 55  5.60491405082212 53.8997395833333  3.36294843049327 51.69921875  C 1.12098281016442 49.4986979166667  0 46.8489583333333  0 43.75  L 0 11.25  C 0 8.15104166666666  1.12098281016442 5.50130208333333  3.36294843049327 3.30078125  C 5.60491405082212 1.10026041666666  8.30455904334828 0  11.4618834080717 0  L 44.5739910313901 0  C 46.2455156950673 0  47.7976457399103 0.32552083333333  49.2303811659193 0.976562499999997  C 49.6283632286995 1.15885416666666  49.8671524663677 1.45833333333333  49.9467488789238 1.875  C 50.0263452914798 2.31770833333333  49.9069506726457 2.6953125  49.5885650224215 3.0078125  L 47.6384529147982 4.921875  C 47.2670029895366 5.28645833333333  46.8424887892377 5.390625  46.3649103139013 5.234375  C 45.7546711509716 5.078125  45.1576980568012 5  44.5739910313901 5  L 11.4618834080717 5  C 9.71076233183857 5  8.21169656203289 5.61197916666666  6.96468609865471 6.8359375  C 5.71767563527653 8.05989583333333  5.09417040358744 9.53125  5 11.25  L 5 43.75  C 5.09417040358744 45.46875  5.71767563527653 46.9401041666667  6.96468609865471 48.1640625  C 8.21169656203289 49.3880208333333  9.71076233183857 50  11.4618834080717 50  L 44.5739910313901 50  C 46.3251121076233 50  47.824177877429 49.3880208333333  49.0711883408072 48.1640625  C 50.3181988041854 46.9401041666667  50.9417040358744 45.46875  50.9417040358744 43.75  L 50.9417040358744 38.828125  C 50.9417040358744 38.4895833333333  51.0610986547085 38.203125  51.2998878923767 37.96875  L 53.8469730941704 35.46875  C 54.2449551569507 35.078125  54.7092675635277 34.9869791666667  55.2399103139013 35.1953125  Z M 26 33.75  L 52.2152466367713 7.5  L 63.6771300448431 18.75  L 36.932735426009 45  L 26 45  L 26 33.75  Z M 71 10  C 71 11.0416666666667  70.6285500747384 11.9270833333333  69.8856502242152 12.65625  L 66.2242152466368 16.25  L 54.762331838565 5  L 58.4237668161435 1.40625  C 59.1666666666667 0.677083333333328  60.0687593423019 0.312500000000003  61.1300448430493 0.312500000000003  C 62.1913303437967 0.312500000000003  63.093423019432 0.677083333333328  63.8363228699552 1.40625  L 69.8856502242152 7.34375  C 70.6285500747384 8.07291666666666  71 8.95833333333333  71 10  Z " fill-rule="nonzero" fill="#000000" stroke="none" transform="matrix(1 0 0 1 1131 1800 )" />
  </g>
</svg>