<?xml version="1.0" encoding="utf-8"?>
<svg version="1.1" xmlns:xlink="http://www.w3.org/1999/xlink" width="50px" height="42px" xmlns="http://www.w3.org/2000/svg">
  <g transform="matrix(1 0 0 1 -125 -2574 )">
    <path d="M 41.7318099819603 23.0582386363636  C 42.1326919222289 23.2173295454545  42.3331328923632 23.5056818181818  42.3331328923632 23.9232954545455  L 42.3331328923632 33.4090909090909  C 42.3331328923632 35.7755681818182  41.4862697935458 37.7990056818182  39.792543595911 39.4794034090909  C 38.0988173982762 41.1598011363636  36.0593305271598 42  33.6740829825616 42  L 8.65904990980156 42  C 6.27380236520345 42  4.23431549408699 41.1598011363636  2.5405892964522 39.4794034090909  C 0.846863098817398 37.7990056818182  0 35.7755681818182  0 33.4090909090909  L 0 8.59090909090909  C 0 6.22443181818181  0.846863098817398 4.20099431818182  2.5405892964522 2.52059659090909  C 4.23431549408699 0.84019886363636  6.27380236520345 0  8.65904990980156 0  L 33.6740829825616 0  C 34.9368610944077 0  36.1094407696933 0.248579545454543  37.1918220084185 0.745738636363634  C 37.49248346362 0.884943181818179  37.6728803367408 1.11363636363636  37.7330126277811 1.43181818181818  C 37.7931449188214 1.76988636363636  37.702946482261 2.05823863636363  37.4624173180998 2.296875  L 35.9891761876127 3.75852272727273  C 35.7887352174785 3.95738636363636  35.558228101824 4.05681818181818  35.2976548406494 4.05681818181818  C 35.2375225496091 4.05681818181818  35.1473241130487 4.03693181818182  35.0270595309681 3.99715909090909  C 34.5660452996593 3.87784090909091  34.1150531168571 3.81818181818182  33.6740829825616 4  L 8.65904990980156 4  C 7.33613950691521 3.81818181818182  6.20364802565645 4.28551136363636  5.26157546602526 5.22017045454545  C 4.31950290639407 6.15482954545454  3.84846662657847 7.27840909090909  4 8.59090909090909  L 4 33.4090909090909  C 3.84846662657847 34.7215909090909  4.31950290639407 35.8451704545454  5.26157546602526 36.7798295454545  C 6.20364802565645 37.7144886363636  7.33613950691521 38.1818181818182  8.65904990980156 38  L 33.6740829825616 38  C 34.996993385448 38.1818181818182  36.1294848667068 37.7144886363636  37.0715574263379 36.7798295454545  C 38.0136299859691 35.8451704545454  38.4846662657847 34.7215909090909  38.4846662657847 33.4090909090909  L 38.4846662657847 25.8323863636364  C 38.4846662657847 25.5738636363636  38.5748647023452 25.3551136363636  38.755261575466 25.1761363636364  L 40.6794948887553 23.2670454545455  C 40.8799358588896 23.0681818181818  41.110442974544 22.96875  41.3710162357186 22.96875  C 41.4912808177992 22.96875  41.6115453998797 22.9985795454545  41.7318099819603 23.0582386363636  Z M 50 7.63636363636363  C 50 8.29261363636363  49.7594708358388 8.859375  49.2784125075165 9.33664772727273  L 24.8045700541191 33.6178977272727  C 24.3235117257968 34.0951704545455  23.752254960914 34.3338068181818  23.0907997594708 34.3338068181818  C 22.4293445580277 34.3338068181818  21.8580877931449 34.0951704545455  21.3770294648226 33.6178977272727  L 8.44858689116055 20.7911931818182  C 7.96752856283824 20.3139204545455  7.72699939867709 19.7471590909091  7.72699939867709 19.0909090909091  C 7.72699939867709 18.4346590909091  7.96752856283824 17.8678977272727  8.44858689116055 17.390625  L 11.7558628983764 14.109375  C 12.2369212266987 13.6321022727273  12.8081779915815 13.3934659090909  13.4696331930247 13.3934659090909  C 14.1310883944678 13.3934659090909  14.7023451593506 13.6321022727273  15.1834034876729 14.109375  L 23.0907997594708 21.9545454545455  L 42.5435959110042 2.65482954545455  C 43.0246542393265 2.17755681818182  43.5959110042093 1.93892045454545  44.2573662056524 1.93892045454545  C 44.9188214070956 1.93892045454545  45.4900781719784 2.17755681818182  45.9711365003007 2.65482954545455  L 49.2784125075165 5.93607954545455  C 49.7594708358388 6.41335227272727  50 6.98011363636363  50 7.63636363636363  Z " fill-rule="nonzero" fill="#419543" stroke="none" transform="matrix(1 0 0 1 125 2574 )" />
  </g>
</svg>