<?xml version="1.0" encoding="utf-8"?>
<svg version="1.1" xmlns:xlink="http://www.w3.org/1999/xlink" width="35px" height="35px" xmlns="http://www.w3.org/2000/svg">
  <g transform="matrix(1 0 0 1 -845 -95 )">
    <path d="M 29.1666666666667 10  C 29.1666666666667 11.9140625  28.5666232638889 13.6848958333333  27.3665364583333 15.3125  C 28.0805121527778 15.4947916666667  28.7603081597222 15.7421875  29.4059244791667 16.0546875  C 30.0515407986111 16.3671875  30.7275390625 16.8424479166667  31.4339192708333 17.48046875  C 32.1402994791667 18.1184895833333  32.744140625 18.8704427083333  33.2454427083333 19.736328125  C 33.7467447916667 20.6022135416667  34.1644965277778 21.7220052083333  34.4986979166667 23.095703125  C 34.8328993055556 24.4694010416667  35 26.0091145833333  35 27.71484375  C 35 29.7200520833333  34.2404513888889 31.435546875  32.7213541666667 32.861328125  C 31.2022569444445 34.287109375  29.3717447916667 35  27.2298177083333 35  L 7.77018229166667 35  C 5.62825520833333 35  3.79774305555556 34.287109375  2.27864583333333 32.861328125  C 0.759548611111111 31.435546875  0 29.7200520833333  0 27.71484375  C 0 26.0091145833333  0.167100694444444 24.4694010416667  0.501302083333333 23.095703125  C 0.835503472222222 21.7220052083333  1.25325520833333 20.6022135416667  1.75455729166667 19.736328125  C 2.255859375 18.8704427083333  2.85970052083333 18.1184895833333  3.56608072916667 17.48046875  C 4.2724609375 16.8424479166667  4.94845920138889 16.3671875  5.59407552083333 16.0546875  C 6.23969184027778 15.7421875  6.91948784722222 15.4947916666667  7.63346354166667 15.3125  C 6.43337673611111 13.6848958333333  5.83333333333333 11.9140625  5.83333333333333 10  C 5.83333333333333 8.64583333333333  6.14095052083333 7.353515625  6.75618489583333 6.123046875  C 7.37141927083333 4.892578125  8.203125 3.828125  9.25130208333333 2.9296875  C 10.2994791666667 2.03125  11.5413411458333 1.318359375  12.9768880208333 0.791015624999999  C 14.4124348958333 0.263671874999998  15.9201388888889 0  17.5 0  C 19.0798611111111 0  20.5875651041667 0.263671874999998  22.0231119791667 0.791015624999999  C 23.4586588541667 1.318359375  24.7005208333333 2.03125  25.7486979166667 2.9296875  C 26.796875 3.828125  27.6285807291667 4.892578125  28.2438151041667 6.123046875  C 28.8590494791667 7.353515625  29.1666666666667 8.64583333333333  29.1666666666667 10  Z M 23.6865234375 4.697265625  C 21.9775390625 3.232421875  19.9153645833333 2.5  17.5 2.5  C 15.0846354166667 2.5  13.0224609375 3.232421875  11.3134765625 4.697265625  C 9.6044921875 6.162109375  8.75 7.9296875  8.75 10  C 8.75 12.0703125  9.6044921875 13.837890625  11.3134765625 15.302734375  C 13.0224609375 16.767578125  15.0846354166667 17.5  17.5 17.5  C 19.9153645833333 17.5  21.9775390625 16.767578125  23.6865234375 15.302734375  C 25.3955078125 13.837890625  26.25 12.0703125  26.25 10  C 26.25 7.9296875  25.3955078125 6.162109375  23.6865234375 4.697265625  Z M 7.77018229166667 32  L 27.2298177083333 32  C 28.5666232638889 32.5  29.7097439236111 32.0345052083333  30.6591796875 31.103515625  C 31.6086154513889 30.1725260416667  32.0833333333333 29.04296875  32.0833333333333 27.71484375  C 32.0833333333333 24.6028645833333  31.4870876736111 22.1484375  30.2945963541667 20.3515625  C 29.1021050347222 18.5546875  27.3893229166667 17.6106770833333  25.15625 17.51953125  C 22.9535590277778 19.1731770833333  20.4014756944444 20  17.5 20  C 14.5985243055556 20  12.0464409722222 19.1731770833333  9.84375 17.51953125  C 7.61067708333333 17.6106770833333  5.89789496527778 18.5546875  4.70540364583333 20.3515625  C 3.51291232638889 22.1484375  2.91666666666667 24.6028645833333  2.91666666666667 27.71484375  C 2.91666666666667 29.04296875  3.39138454861111 30.1725260416667  4.3408203125 31.103515625  C 5.29025607638889 32.0345052083333  6.43337673611111 32.5  7.77018229166667 32  Z " fill-rule="nonzero" fill="#f7781b" stroke="none" transform="matrix(1 0 0 1 845 95 )" />
  </g>
</svg>