<?xml version="1.0" encoding="utf-8"?>
<svg version="1.1" xmlns:xlink="http://www.w3.org/1999/xlink" width="35px" height="35px" xmlns="http://www.w3.org/2000/svg">
  <g transform="matrix(1 0 0 1 -169 -89 )">
    <path d="M 21.1388221153846 17.0670572916667  C 21.4052483974359 16.7784288194444  21.5384615384615 16.4366319444444  21.5384615384615 16.0416666666667  C 21.5384615384615 15.6467013888889  21.4052483974359 15.3049045138889  21.1388221153846 15.0162760416667  C 20.8723958333333 14.7276475694444  20.556891025641 14.5833333333333  20.1923076923077 14.5833333333333  L 14.8076923076923 14.5833333333333  C 14.443108974359 14.5833333333333  14.1276041666667 14.7276475694444  13.8611778846154 15.0162760416667  C 13.5947516025641 15.3049045138889  13.4615384615385 15.6467013888889  13.4615384615385 16.0416666666667  C 13.4615384615385 16.4366319444444  13.5947516025641 16.7784288194444  13.8611778846154 17.0670572916667  C 14.1276041666667 17.3556857638889  14.443108974359 17.5  14.8076923076923 17.5  L 20.1923076923077 17.5  C 20.556891025641 17.5  20.8723958333333 17.3556857638889  21.1388221153846 17.0670572916667  Z M 33.2542067307692 10.6412760416667  C 33.5206330128205 10.9299045138889  33.6538461538462 11.2717013888889  33 11.6666666666667  L 33 33.5416666666667  C 33.6538461538462 33.9366319444444  33.5206330128205 34.2784288194444  33.2542067307692 34.5670572916667  C 32.9877804487179 34.8556857638889  32.6722756410256 35  32.3076923076923 35  L 2.69230769230769 35  C 2.32772435897436 35  2.01221955128205 34.8556857638889  1.74579326923077 34.5670572916667  C 1.47936698717949 34.2784288194444  1.34615384615385 33.9366319444444  2 33.5416666666667  L 2 11.6666666666667  C 1.34615384615385 11.2717013888889  1.47936698717949 10.9299045138889  1.74579326923077 10.6412760416667  C 2.01221955128205 10.3526475694444  2.32772435897436 10.2083333333333  2.69230769230769 10.2083333333333  L 32.3076923076923 10.2083333333333  C 32.6722756410256 10.2083333333333  32.9877804487179 10.3526475694444  33.2542067307692 10.6412760416667  Z M 34.6003605769231 0.432942708333332  C 34.8667868589744 0.721571180555551  35 1.06336805555555  35 1.45833333333333  L 35 7.29166666666667  C 35 7.68663194444444  34.8667868589744 8.02842881944444  34.6003605769231 8.31705729166667  C 34.3339342948718 8.60568576388889  34.0184294871795 8.75  33.6538461538462 9  L 1.34615384615385 9  C 0.981570512820513 8.75  0.666065705128206 8.60568576388889  0.399639423076923 8.31705729166667  C 0.133213141025641 8.02842881944444  0 7.68663194444444  0 7.29166666666667  L 0 1.45833333333333  C 0 1.06336805555555  0.133213141025641 0.721571180555551  0.399639423076923 0.432942708333332  C 0.666065705128206 0.144314236111109  0.981570512820513 0  1.34615384615385 0  L 33.6538461538462 0  C 34.0184294871795 0  34.3339342948718 0.144314236111109  34.6003605769231 0.432942708333332  Z " fill-rule="nonzero" fill="#ffffff" stroke="none" transform="matrix(1 0 0 1 169 89 )" />
  </g>
</svg>