<?xml version="1.0" encoding="utf-8"?>
<svg version="1.1" xmlns:xlink="http://www.w3.org/1999/xlink" width="40px" height="41px" xmlns="http://www.w3.org/2000/svg">
  <g transform="matrix(1 0 0 1 -82 -456 )">
    <path d="M 24.53125 25.14453125  C 26.6386217948718 22.9844751602564  27.6923076923077 20.385016025641  27.6923076923077 17.3461538461538  C 27.6923076923077 14.3072916666667  26.6386217948718 11.7078325320513  24.53125 9.54777644230769  C 22.4238782051282 7.3877203525641  19.8878205128205 6.30769230769231  16.9230769230769 6.30769230769231  C 13.9583333333333 6.30769230769231  11.4222756410256 7.3877203525641  9.31490384615385 9.54777644230769  C 7.20753205128205 11.7078325320513  6.15384615384615 14.3072916666667  6.15384615384615 17.3461538461538  C 6.15384615384615 20.385016025641  7.20753205128205 22.9844751602564  9.31490384615385 25.14453125  C 11.4222756410256 27.3045873397436  13.9583333333333 28.3846153846154  16.9230769230769 28.3846153846154  C 19.8878205128205 28.3846153846154  22.4238782051282 27.3045873397436  24.53125 25.14453125  Z M 39.1105769230769 35.6286057692308  C 39.7035256410256 36.2363782051282  40 36.9755608974359  40 37.8461538461538  C 40 38.7003205128205  39.6955128205128 39.4395032051282  39.0865384615385 40.0637019230769  C 38.4775641025641 40.6879006410256  37.7564102564103 41  36.9230769230769 41  C 36.0576923076923 41  35.3365384615385 40.6879006410256  34.7596153846154 40.0637019230769  L 26.5144230769231 31.6370192307692  C 23.6458333333333 33.6738782051282  20.448717948718 34.6923076923077  16.9230769230769 34.6923076923077  C 14.6314102564103 34.6923076923077  12.4399038461538 34.2364783653846  10.3485576923077 33.3248197115385  C 8.25721153846154 32.4131610576923  6.45432692307692 31.1811899038462  4.93990384615385 29.62890625  C 3.42548076923077 28.0766225961538  2.22355769230769 26.2286658653846  1.33413461538462 24.0850360576923  C 0.444711538461538 21.94140625  0 19.6951121794872  0 17.3461538461538  C 0 14.9971955128205  0.444711538461538 12.7509014423077  1.33413461538462 10.6072716346154  C 2.22355769230769 8.46364182692308  3.42548076923077 6.61568509615385  4.93990384615385 5.06340144230769  C 6.45432692307692 3.51111778846154  8.25721153846154 2.27914663461538  10.3485576923077 1.36748798076923  C 12.4399038461538 0.455829326923076  14.6314102564103 0  16.9230769230769 0  C 19.2147435897436 0  21.40625 0.455829326923076  23.4975961538462 1.36748798076923  C 25.5889423076923 2.27914663461538  27.3918269230769 3.51111778846154  28.90625 5.06340144230769  C 30.4206730769231 6.61568509615385  31.6225961538462 8.46364182692308  32.5120192307692 10.6072716346154  C 33.4014423076923 12.7509014423077  33.8461538461538 14.9971955128205  33.8461538461538 17.3461538461538  C 33.8461538461538 20.9599358974359  32.8525641025641 24.2369791666667  30.8653846153846 27.1772836538462  L 39.1105769230769 35.6286057692308  Z " fill-rule="nonzero" fill="#aaaaaa" stroke="none" transform="matrix(1 0 0 1 82 456 )" />
  </g>
</svg>