<?xml version="1.0" encoding="utf-8"?>
<svg version="1.1" xmlns:xlink="http://www.w3.org/1999/xlink" width="39px" height="50px" xmlns="http://www.w3.org/2000/svg">
  <g transform="matrix(1 0 0 1 -1251 -338 )">
    <path d="M 10.3732244318182 35.9793526785714  C 10.5486505681818 36.1560639880952  10.6363636363636 36.3653273809524  10.6363636363636 36.6071428571429  L 10.6363636363636 38.3928571428571  C 10.6363636363636 38.6346726190476  10.5486505681818 38.8439360119048  10.3732244318182 39.0206473214286  C 10.1977982954545 39.1973586309524  9.99005681818182 39.2857142857143  9.75 39.2857142857143  L 7.97727272727273 39.2857142857143  C 7.73721590909091 39.2857142857143  7.52947443181818 39.1973586309524  7.35404829545455 39.0206473214286  C 7.17862215909091 38.8439360119048  7.09090909090909 38.6346726190476  7.09090909090909 38.3928571428571  L 7.09090909090909 36.6071428571429  C 7.09090909090909 36.3653273809524  7.17862215909091 36.1560639880952  7.35404829545455 35.9793526785714  C 7.52947443181818 35.8026413690476  7.73721590909091 35.7142857142857  7.97727272727273 35.7142857142857  L 9.75 35.7142857142857  C 9.99005681818182 35.7142857142857  10.1977982954545 35.8026413690476  10.3732244318182 35.9793526785714  Z M 10.3732244318182 28.8364955357143  C 10.5486505681818 29.0132068452381  10.6363636363636 29.2224702380952  10.6363636363636 29.4642857142857  L 10.6363636363636 31.25  C 10.6363636363636 31.4918154761905  10.5486505681818 31.7010788690476  10.3732244318182 31.8777901785714  C 10.1977982954545 32.0545014880952  9.99005681818182 32.1428571428571  9.75 32.1428571428571  L 7.97727272727273 32.1428571428571  C 7.73721590909091 32.1428571428571  7.52947443181818 32.0545014880952  7.35404829545455 31.8777901785714  C 7.17862215909091 31.7010788690476  7.09090909090909 31.4918154761905  7.09090909090909 31.25  L 7.09090909090909 29.4642857142857  C 7.09090909090909 29.2224702380952  7.17862215909091 29.0132068452381  7.35404829545455 28.8364955357143  C 7.52947443181818 28.6597842261905  7.73721590909091 28.5714285714286  7.97727272727273 28.5714285714286  L 9.75 28.5714285714286  C 9.99005681818182 28.5714285714286  10.1977982954545 28.6597842261905  10.3732244318182 28.8364955357143  Z M 17.4641335227273 28.8364955357143  C 17.6395596590909 29.0132068452381  17.7272727272727 29.2224702380952  17.7272727272727 29.4642857142857  L 17.7272727272727 31.25  C 17.7272727272727 31.4918154761905  17.6395596590909 31.7010788690476  17.4641335227273 31.8777901785714  C 17.2887073863636 32.0545014880952  17.0809659090909 32.1428571428571  16.8409090909091 32.1428571428571  L 15.0681818181818 32.1428571428571  C 14.828125 32.1428571428571  14.6203835227273 32.0545014880952  14.4449573863636 31.8777901785714  C 14.26953125 31.7010788690476  14.1818181818182 31.4918154761905  14.1818181818182 31.25  L 14.1818181818182 29.4642857142857  C 14.1818181818182 29.2224702380952  14.26953125 29.0132068452381  14.4449573863636 28.8364955357143  C 14.6203835227273 28.6597842261905  14.828125 28.5714285714286  15.0681818181818 28.5714285714286  L 16.8409090909091 28.5714285714286  C 17.0809659090909 28.5714285714286  17.2887073863636 28.6597842261905  17.4641335227273 28.8364955357143  Z M 10.3732244318182 21.6936383928571  C 10.5486505681818 21.8703497023809  10.6363636363636 22.0796130952381  10.6363636363636 22.3214285714286  L 10.6363636363636 24.1071428571429  C 10.6363636363636 24.3489583333333  10.5486505681818 24.5582217261905  10.3732244318182 24.7349330357143  C 10.1977982954545 24.9116443452381  9.99005681818182 25  9.75 25  L 7.97727272727273 25  C 7.73721590909091 25  7.52947443181818 24.9116443452381  7.35404829545455 24.7349330357143  C 7.17862215909091 24.5582217261905  7.09090909090909 24.3489583333333  7.09090909090909 24.1071428571429  L 7.09090909090909 22.3214285714286  C 7.09090909090909 22.0796130952381  7.17862215909091 21.8703497023809  7.35404829545455 21.6936383928571  C 7.52947443181818 21.5169270833333  7.73721590909091 21.4285714285714  7.97727272727273 21.4285714285714  L 9.75 21.4285714285714  C 9.99005681818182 21.4285714285714  10.1977982954545 21.5169270833333  10.3732244318182 21.6936383928571  Z M 31.6459517045455 35.9793526785714  C 31.8213778409091 36.1560639880952  31.9090909090909 36.3653273809524  31.9090909090909 36.6071428571429  L 31.9090909090909 38.3928571428571  C 31.9090909090909 38.6346726190476  31.8213778409091 38.8439360119048  31.6459517045455 39.0206473214286  C 31.4705255681818 39.1973586309524  31.2627840909091 39.2857142857143  31.0227272727273 39.2857142857143  L 29.25 39.2857142857143  C 29.0099431818182 39.2857142857143  28.8022017045455 39.1973586309524  28.6267755681818 39.0206473214286  C 28.4513494318182 38.8439360119048  28.3636363636364 38.6346726190476  28.3636363636364 38.3928571428571  L 28.3636363636364 36.6071428571429  C 28.3636363636364 36.3653273809524  28.4513494318182 36.1560639880952  28.6267755681818 35.9793526785714  C 28.8022017045455 35.8026413690476  29.0099431818182 35.7142857142857  29.25 35.7142857142857  L 31.0227272727273 35.7142857142857  C 31.2627840909091 35.7142857142857  31.4705255681818 35.8026413690476  31.6459517045455 35.9793526785714  Z M 24.5550426136364 28.8364955357143  C 24.73046875 29.0132068452381  24.8181818181818 29.2224702380952  24.8181818181818 29.4642857142857  L 24.8181818181818 31.25  C 24.8181818181818 31.4918154761905  24.73046875 31.7010788690476  24.5550426136364 31.8777901785714  C 24.3796164772727 32.0545014880952  24.171875 32.1428571428571  23.9318181818182 32.1428571428571  L 22.1590909090909 32.1428571428571  C 21.9190340909091 32.1428571428571  21.7112926136364 32.0545014880952  21.5358664772727 31.8777901785714  C 21.3604403409091 31.7010788690476  21.2727272727273 31.4918154761905  21.2727272727273 31.25  L 21.2727272727273 29.4642857142857  C 21.2727272727273 29.2224702380952  21.3604403409091 29.0132068452381  21.5358664772727 28.8364955357143  C 21.7112926136364 28.6597842261905  21.9190340909091 28.5714285714286  22.1590909090909 28.5714285714286  L 23.9318181818182 28.5714285714286  C 24.171875 28.5714285714286  24.3796164772727 28.6597842261905  24.5550426136364 28.8364955357143  Z M 17.4641335227273 21.6936383928571  C 17.6395596590909 21.8703497023809  17.7272727272727 22.0796130952381  17.7272727272727 22.3214285714286  L 17.7272727272727 24.1071428571429  C 17.7272727272727 24.3489583333333  17.6395596590909 24.5582217261905  17.4641335227273 24.7349330357143  C 17.2887073863636 24.9116443452381  17.0809659090909 25  16.8409090909091 25  L 15.0681818181818 25  C 14.828125 25  14.6203835227273 24.9116443452381  14.4449573863636 24.7349330357143  C 14.26953125 24.5582217261905  14.1818181818182 24.3489583333333  14.1818181818182 24.1071428571429  L 14.1818181818182 22.3214285714286  C 14.1818181818182 22.0796130952381  14.26953125 21.8703497023809  14.4449573863636 21.6936383928571  C 14.6203835227273 21.5169270833333  14.828125 21.4285714285714  15.0681818181818 21.4285714285714  L 16.8409090909091 21.4285714285714  C 17.0809659090909 21.4285714285714  17.2887073863636 21.5169270833333  17.4641335227273 21.6936383928571  Z M 10.3732244318182 14.55078125  C 10.5486505681818 14.7274925595238  10.6363636363636 14.9367559523809  10.6363636363636 15.1785714285714  L 10.6363636363636 16.9642857142857  C 10.6363636363636 17.2061011904762  10.5486505681818 17.4153645833333  10.3732244318182 17.5920758928571  C 10.1977982954545 17.7687872023809  9.99005681818182 17.8571428571429  9.75 17.8571428571429  L 7.97727272727273 17.8571428571429  C 7.73721590909091 17.8571428571429  7.52947443181818 17.7687872023809  7.35404829545455 17.5920758928571  C 7.17862215909091 17.4153645833333  7.09090909090909 17.2061011904762  7.09090909090909 16.9642857142857  L 7.09090909090909 15.1785714285714  C 7.09090909090909 14.9367559523809  7.17862215909091 14.7274925595238  7.35404829545455 14.55078125  C 7.52947443181818 14.3740699404762  7.73721590909091 14.2857142857143  7.97727272727273 14.2857142857143  L 9.75 14.2857142857143  C 9.99005681818182 14.2857142857143  10.1977982954545 14.3740699404762  10.3732244318182 14.55078125  Z M 31.6459517045455 28.8364955357143  C 31.8213778409091 29.0132068452381  31.9090909090909 29.2224702380952  31.9090909090909 29.4642857142857  L 31.9090909090909 31.25  C 31.9090909090909 31.4918154761905  31.8213778409091 31.7010788690476  31.6459517045455 31.8777901785714  C 31.4705255681818 32.0545014880952  31.2627840909091 32.1428571428571  31.0227272727273 32.1428571428571  L 29.25 32.1428571428571  C 29.0099431818182 32.1428571428571  28.8022017045455 32.0545014880952  28.6267755681818 31.8777901785714  C 28.4513494318182 31.7010788690476  28.3636363636364 31.4918154761905  28.3636363636364 31.25  L 28.3636363636364 29.4642857142857  C 28.3636363636364 29.2224702380952  28.4513494318182 29.0132068452381  28.6267755681818 28.8364955357143  C 28.8022017045455 28.6597842261905  29.0099431818182 28.5714285714286  29.25 28.5714285714286  L 31.0227272727273 28.5714285714286  C 31.2627840909091 28.5714285714286  31.4705255681818 28.6597842261905  31.6459517045455 28.8364955357143  Z M 24.5550426136364 21.6936383928571  C 24.73046875 21.8703497023809  24.8181818181818 22.0796130952381  24.8181818181818 22.3214285714286  L 24.8181818181818 24.1071428571429  C 24.8181818181818 24.3489583333333  24.73046875 24.5582217261905  24.5550426136364 24.7349330357143  C 24.3796164772727 24.9116443452381  24.171875 25  23.9318181818182 25  L 22.1590909090909 25  C 21.9190340909091 25  21.7112926136364 24.9116443452381  21.5358664772727 24.7349330357143  C 21.3604403409091 24.5582217261905  21.2727272727273 24.3489583333333  21.2727272727273 24.1071428571429  L 21.2727272727273 22.3214285714286  C 21.2727272727273 22.0796130952381  21.3604403409091 21.8703497023809  21.5358664772727 21.6936383928571  C 21.7112926136364 21.5169270833333  21.9190340909091 21.4285714285714  22.1590909090909 21.4285714285714  L 23.9318181818182 21.4285714285714  C 24.171875 21.4285714285714  24.3796164772727 21.5169270833333  24.5550426136364 21.6936383928571  Z M 17.4641335227273 14.55078125  C 17.6395596590909 14.7274925595238  17.7272727272727 14.9367559523809  17.7272727272727 15.1785714285714  L 17.7272727272727 16.9642857142857  C 17.7272727272727 17.2061011904762  17.6395596590909 17.4153645833333  17.4641335227273 17.5920758928571  C 17.2887073863636 17.7687872023809  17.0809659090909 17.8571428571429  16.8409090909091 17.8571428571429  L 15.0681818181818 17.8571428571429  C 14.828125 17.8571428571429  14.6203835227273 17.7687872023809  14.4449573863636 17.5920758928571  C 14.26953125 17.4153645833333  14.1818181818182 17.2061011904762  14.1818181818182 16.9642857142857  L 14.1818181818182 15.1785714285714  C 14.1818181818182 14.9367559523809  14.26953125 14.7274925595238  14.4449573863636 14.55078125  C 14.6203835227273 14.3740699404762  14.828125 14.2857142857143  15.0681818181818 14.2857142857143  L 16.8409090909091 14.2857142857143  C 17.0809659090909 14.2857142857143  17.2887073863636 14.3740699404762  17.4641335227273 14.55078125  Z M 10.3732244318182 7.40792410714286  C 10.5486505681818 7.58463541666666  10.6363636363636 7.79389880952381  10.6363636363636 8.03571428571428  L 10.6363636363636 9.82142857142857  C 10.6363636363636 10.063244047619  10.5486505681818 10.2725074404762  10.3732244318182 10.44921875  C 10.1977982954545 10.6259300595238  9.99005681818182 10.7142857142857  9.75 10.7142857142857  L 7.97727272727273 10.7142857142857  C 7.73721590909091 10.7142857142857  7.52947443181818 10.6259300595238  7.35404829545455 10.44921875  C 7.17862215909091 10.2725074404762  7.09090909090909 10.063244047619  7.09090909090909 9.82142857142857  L 7.09090909090909 8.03571428571428  C 7.09090909090909 7.79389880952381  7.17862215909091 7.58463541666666  7.35404829545455 7.40792410714286  C 7.52947443181818 7.23121279761904  7.73721590909091 7.14285714285715  7.97727272727273 7.14285714285715  L 9.75 7.14285714285715  C 9.99005681818182 7.14285714285715  10.1977982954545 7.23121279761904  10.3732244318182 7.40792410714286  Z M 31.6459517045455 21.6936383928571  C 31.8213778409091 21.8703497023809  31.9090909090909 22.0796130952381  31.9090909090909 22.3214285714286  L 31.9090909090909 24.1071428571429  C 31.9090909090909 24.3489583333333  31.8213778409091 24.5582217261905  31.6459517045455 24.7349330357143  C 31.4705255681818 24.9116443452381  31.2627840909091 25  31.0227272727273 25  L 29.25 25  C 29.0099431818182 25  28.8022017045455 24.9116443452381  28.6267755681818 24.7349330357143  C 28.4513494318182 24.5582217261905  28.3636363636364 24.3489583333333  28.3636363636364 24.1071428571429  L 28.3636363636364 22.3214285714286  C 28.3636363636364 22.0796130952381  28.4513494318182 21.8703497023809  28.6267755681818 21.6936383928571  C 28.8022017045455 21.5169270833333  29.0099431818182 21.4285714285714  29.25 21.4285714285714  L 31.0227272727273 21.4285714285714  C 31.2627840909091 21.4285714285714  31.4705255681818 21.5169270833333  31.6459517045455 21.6936383928571  Z M 24.5550426136364 14.55078125  C 24.73046875 14.7274925595238  24.8181818181818 14.9367559523809  24.8181818181818 15.1785714285714  L 24.8181818181818 16.9642857142857  C 24.8181818181818 17.2061011904762  24.73046875 17.4153645833333  24.5550426136364 17.5920758928571  C 24.3796164772727 17.7687872023809  24.171875 17.8571428571429  23.9318181818182 17.8571428571429  L 22.1590909090909 17.8571428571429  C 21.9190340909091 17.8571428571429  21.7112926136364 17.7687872023809  21.5358664772727 17.5920758928571  C 21.3604403409091 17.4153645833333  21.2727272727273 17.2061011904762  21.2727272727273 16.9642857142857  L 21.2727272727273 15.1785714285714  C 21.2727272727273 14.9367559523809  21.3604403409091 14.7274925595238  21.5358664772727 14.55078125  C 21.7112926136364 14.3740699404762  21.9190340909091 14.2857142857143  22.1590909090909 14.2857142857143  L 23.9318181818182 14.2857142857143  C 24.171875 14.2857142857143  24.3796164772727 14.3740699404762  24.5550426136364 14.55078125  Z M 17.4641335227273 7.40792410714286  C 17.6395596590909 7.58463541666666  17.7272727272727 7.79389880952381  17.7272727272727 8.03571428571428  L 17.7272727272727 9.82142857142857  C 17.7272727272727 10.063244047619  17.6395596590909 10.2725074404762  17.4641335227273 10.44921875  C 17.2887073863636 10.6259300595238  17.0809659090909 10.7142857142857  16.8409090909091 10.7142857142857  L 15.0681818181818 10.7142857142857  C 14.828125 10.7142857142857  14.6203835227273 10.6259300595238  14.4449573863636 10.44921875  C 14.26953125 10.2725074404762  14.1818181818182 10.063244047619  14.1818181818182 9.82142857142857  L 14.1818181818182 8.03571428571428  C 14.1818181818182 7.79389880952381  14.26953125 7.58463541666666  14.4449573863636 7.40792410714286  C 14.6203835227273 7.23121279761904  14.828125 7.14285714285715  15.0681818181818 7.14285714285715  L 16.8409090909091 7.14285714285715  C 17.0809659090909 7.14285714285715  17.2887073863636 7.23121279761904  17.4641335227273 7.40792410714286  Z M 31.6459517045455 14.55078125  C 31.8213778409091 14.7274925595238  31.9090909090909 14.9367559523809  31.9090909090909 15.1785714285714  L 31.9090909090909 16.9642857142857  C 31.9090909090909 17.2061011904762  31.8213778409091 17.4153645833333  31.6459517045455 17.5920758928571  C 31.4705255681818 17.7687872023809  31.2627840909091 17.8571428571429  31.0227272727273 17.8571428571429  L 29.25 17.8571428571429  C 29.0099431818182 17.8571428571429  28.8022017045455 17.7687872023809  28.6267755681818 17.5920758928571  C 28.4513494318182 17.4153645833333  28.3636363636364 17.2061011904762  28.3636363636364 16.9642857142857  L 28.3636363636364 15.1785714285714  C 28.3636363636364 14.9367559523809  28.4513494318182 14.7274925595238  28.6267755681818 14.55078125  C 28.8022017045455 14.3740699404762  29.0099431818182 14.2857142857143  29.25 14.2857142857143  L 31.0227272727273 14.2857142857143  C 31.2627840909091 14.2857142857143  31.4705255681818 14.3740699404762  31.6459517045455 14.55078125  Z M 24.5550426136364 7.40792410714286  C 24.73046875 7.58463541666666  24.8181818181818 7.79389880952381  24.8181818181818 8.03571428571428  L 24.8181818181818 9.82142857142857  C 24.8181818181818 10.063244047619  24.73046875 10.2725074404762  24.5550426136364 10.44921875  C 24.3796164772727 10.6259300595238  24.171875 10.7142857142857  23.9318181818182 10.7142857142857  L 22.1590909090909 10.7142857142857  C 21.9190340909091 10.7142857142857  21.7112926136364 10.6259300595238  21.5358664772727 10.44921875  C 21.3604403409091 10.2725074404762  21.2727272727273 10.063244047619  21.2727272727273 9.82142857142857  L 21.2727272727273 8.03571428571428  C 21.2727272727273 7.79389880952381  21.3604403409091 7.58463541666666  21.5358664772727 7.40792410714286  C 21.7112926136364 7.23121279761904  21.9190340909091 7.14285714285715  22.1590909090909 7.14285714285715  L 23.9318181818182 7.14285714285715  C 24.171875 7.14285714285715  24.3796164772727 7.23121279761904  24.5550426136364 7.40792410714286  Z M 31.6459517045455 7.40792410714286  C 31.8213778409091 7.58463541666666  31.9090909090909 7.79389880952381  31.9090909090909 8.03571428571428  L 31.9090909090909 9.82142857142857  C 31.9090909090909 10.063244047619  31.8213778409091 10.2725074404762  31.6459517045455 10.44921875  C 31.4705255681818 10.6259300595238  31.2627840909091 10.7142857142857  31.0227272727273 10.7142857142857  L 29.25 10.7142857142857  C 29.0099431818182 10.7142857142857  28.8022017045455 10.6259300595238  28.6267755681818 10.44921875  C 28.4513494318182 10.2725074404762  28.3636363636364 10.063244047619  28.3636363636364 9.82142857142857  L 28.3636363636364 8.03571428571428  C 28.3636363636364 7.79389880952381  28.4513494318182 7.58463541666666  28.6267755681818 7.40792410714286  C 28.8022017045455 7.23121279761904  29.0099431818182 7.14285714285715  29.25 7.14285714285715  L 31.0227272727273 7.14285714285715  C 31.2627840909091 7.14285714285715  31.4705255681818 7.23121279761904  31.6459517045455 7.40792410714286  Z M 24.8181818181818 40.1785714285714  L 24.8181818181818 46  L 35 46  L 35 4  L 4 4  L 4 46  L 14.1818181818182 46  L 14.1818181818182 40.1785714285714  C 14.1818181818182 39.936755952381  14.26953125 39.7274925595238  14.4449573863636 39.55078125  C 14.6203835227273 39.3740699404762  14.828125 39.2857142857143  15.0681818181818 39.2857142857143  L 23.9318181818182 39.2857142857143  C 24.171875 39.2857142857143  24.3796164772727 39.3740699404762  24.5550426136364 39.55078125  C 24.73046875 39.7274925595238  24.8181818181818 39.936755952381  24.8181818181818 40.1785714285714  Z M 38.4737215909091 0.53013392857143  C 38.8245738636364 0.883556547619041  39 1.30208333333333  39 1.78571428571428  L 39 48.2142857142857  C 39 48.6979166666667  38.8245738636364 49.1164434523809  38.4737215909091 49.4698660714286  C 38.1228693181818 49.8232886904762  37.7073863636364 50  37.2272727272727 50  L 1.77272727272727 50  C 1.29261363636364 50  0.877130681818182 49.8232886904762  0.526278409090909 49.4698660714286  C 0.175426136363636 49.1164434523809  0 48.6979166666667  0 48.2142857142857  L 0 1.78571428571428  C 0 1.30208333333333  0.175426136363636 0.883556547619041  0.526278409090909 0.53013392857143  C 0.877130681818182 0.176711309523814  1.29261363636364 0  1.77272727272727 0  L 37.2272727272727 0  C 37.7073863636364 0  38.1228693181818 0.176711309523814  38.4737215909091 0.53013392857143  Z " fill-rule="nonzero" fill="#ffffff" stroke="none" transform="matrix(1 0 0 1 1251 338 )" />
  </g>
</svg>