<?xml version="1.0" encoding="utf-8"?>
<svg version="1.1" xmlns:xlink="http://www.w3.org/1999/xlink" width="84px" height="70px" xmlns="http://www.w3.org/2000/svg">
  <g transform="matrix(1 0 0 1 -1885 -328 )">
    <path d="M 63.65625 63.30078125  C 64.2956730769231 62.7235243055556  64.6153846153846 62.0399305555556  64.6153846153846 61.25  C 64.6153846153846 60.4600694444444  64.2956730769231 59.7764756944444  63.65625 59.19921875  C 63.0168269230769 58.6219618055556  62.2596153846154 58.3333333333333  61.3846153846154 58.3333333333333  C 60.5096153846154 58.3333333333333  59.7524038461539 58.6219618055556  59.1129807692308 59.19921875  C 58.4735576923077 59.7764756944444  58.1538461538462 60.4600694444444  58.1538461538462 61.25  C 58.1538461538462 62.0399305555556  58.4735576923077 62.7235243055556  59.1129807692308 63.30078125  C 59.7524038461539 63.8780381944444  60.5096153846154 64.1666666666667  61.3846153846154 64.1666666666667  C 62.2596153846154 64.1666666666667  63.0168269230769 63.8780381944444  63.65625 63.30078125  Z M 76.5793269230769 63.30078125  C 77.21875 62.7235243055556  77.5384615384615 62.0399305555556  77.5384615384615 61.25  C 77.5384615384615 60.4600694444444  77.21875 59.7764756944444  76.5793269230769 59.19921875  C 75.9399038461539 58.6219618055556  75.1826923076923 58.3333333333333  74.3076923076923 58.3333333333333  C 73.4326923076923 58.3333333333333  72.6754807692308 58.6219618055556  72.0360576923077 59.19921875  C 71.3966346153846 59.7764756944444  71.0769230769231 60.4600694444444  71.0769230769231 61.25  C 71.0769230769231 62.0399305555556  71.3966346153846 62.7235243055556  72.0360576923077 63.30078125  C 72.6754807692308 63.8780381944444  73.4326923076923 64.1666666666667  74.3076923076923 64.1666666666667  C 75.1826923076923 64.1666666666667  75.9399038461539 63.8780381944444  76.5793269230769 63.30078125  Z M 82.5865384615385 47.9427083333333  C 83.5288461538462 48.7934027777778  84 49.8263888888889  84 51.0416666666667  L 84 65.625  C 84 66.8402777777778  83.5288461538462 67.8732638888889  82.5865384615385 68.7239583333333  C 81.6442307692308 69.5746527777778  80.5 70  79.1538461538461 70  L 4.84615384615385 70  C 3.5 70  2.35576923076923 69.5746527777778  1.41346153846154 68.7239583333333  C 0.471153846153846 67.8732638888889  0 66.8402777777778  0 65.625  L 0 51.0416666666667  C 0 49.8263888888889  0.471153846153846 48.7934027777778  1.41346153846154 47.9427083333333  C 2.35576923076923 47.0920138888889  3.5 46.6666666666667  4.84615384615385 46  L 28.3197115384615 46  L 35.1346153846154 52.8645833333333  C 37.0865384615385 54.5659722222222  39.375 55.4166666666667  42 55.4166666666667  C 44.625 55.4166666666667  46.9134615384615 54.5659722222222  48.8653846153846 52.8645833333333  L 55.7307692307692 46  L 79.1538461538461 46  C 80.5 46.6666666666667  81.6442307692308 47.0920138888889  82.5865384615385 47.9427083333333  Z M 64.6153846153846 24  C 66.0288461538461 23.3333333333333  67.0216346153846 23.92578125  67.59375 25.1106770833333  C 68.1658653846154 26.3563368055556  67.9302884615385 27.4197048611111  66.8870192307692 28.30078125  L 44.2716346153846 48.7174479166667  C 43.6658653846154 49.2947048611111  42.9086538461538 49.5833333333333  42 49.5833333333333  C 41.0913461538462 49.5833333333333  40.3341346153846 49.2947048611111  39.7283653846154 48.7174479166667  L 17.1129807692308 28.30078125  C 16.0697115384615 27.4197048611111  15.8341346153846 26.3563368055556  16.40625 25.1106770833333  C 16.9783653846154 23.92578125  17.9711538461538 23.3333333333333  19.3846153846154 24  L 33 24  L 33 2.91666666666666  C 32.3076923076923 2.1267361111111  32.6274038461538 1.4431423611111  33.2668269230769 0.865885416666664  C 33.90625 0.288628472222227  34.6634615384615 0  35.5384615384615 0  L 48.4615384615385 0  C 49.3365384615385 0  50.09375 0.288628472222227  50.7331730769231 0.865885416666664  C 51.3725961538462 1.4431423611111  51.6923076923077 2.1267361111111  51 2.91666666666666  L 51 24  L 64.6153846153846 24  Z " fill-rule="nonzero" fill="#419543" stroke="none" transform="matrix(1 0 0 1 1885 328 )" />
  </g>
</svg>