<?xml version="1.0" encoding="utf-8"?>
<svg version="1.1" xmlns:xlink="http://www.w3.org/1999/xlink" width="30px" height="18px" xmlns="http://www.w3.org/2000/svg">
  <g transform="matrix(1 0 0 1 -1927 -462 )">
    <path d="M 29.6993987975952 1.85567010309278  C 29.8997995991984 2.06185567010309  30 2.29896907216495  30 2.56701030927835  C 30 2.83505154639175  29.8997995991984 3.07216494845361  29.6993987975952 3.27835051546392  L 15.6913827655311 17.6907216494845  C 15.4909819639279 17.8969072164948  15.2605210420842 18  15 18  C 14.7394789579158 18  14.5090180360721 17.8969072164948  14.3086172344689 17.6907216494845  L 0.30060120240481 3.27835051546392  C 0.100200400801604 3.07216494845361  0 2.83505154639175  0 2.56701030927835  C 0 2.29896907216495  0.100200400801604 2.06185567010309  0.30060120240481 1.85567010309278  L 1.80360721442886 0.309278350515465  C 2.00400801603206 0.103092783505152  2.23446893787575 0  2.49498997995992 0  C 2.75551102204409 0  2.98597194388778 0.103092783505152  3.18637274549098 0.309278350515465  L 15 12.4639175257732  L 26.813627254509 0.309278350515465  C 27.0140280561122 0.103092783505152  27.2444889779559 0  27.5050100200401 0  C 27.7655310621243 0  27.9959919839679 0.103092783505152  28.1963927855711 0.309278350515465  L 29.6993987975952 1.85567010309278  Z " fill-rule="nonzero" fill="#000000" stroke="none" transform="matrix(1 0 0 1 1927 462 )" />
  </g>
</svg>